<mxfile host="Electron" modified="2023-12-26T05:41:44.467Z" agent="Mozilla/5.0 (Windows NT 10.0; Win64; x64) AppleWebKit/537.36 (KHTML, like Gecko) draw.io/22.1.2 Chrome/114.0.5735.289 Electron/25.9.4 Safari/537.36" etag="E6XxGFwTO1bR67qNKzmk" version="22.1.2" type="device" pages="2">
  <diagram name="Dados Script" id="L2TF4irluL9vukOUjO-T">
    <mxGraphModel dx="1036" dy="640" grid="0" gridSize="10" guides="1" tooltips="1" connect="1" arrows="1" fold="1" page="1" pageScale="1" pageWidth="2339" pageHeight="3300" math="0" shadow="0">
      <root>
        <mxCell id="0" />
        <mxCell id="1" parent="0" />
        <mxCell id="Pu-5_52rEPCiig4ukhZV-6" value="Computador Local Windows" style="shape=mxgraph.ibm.box;prType=zone;fontStyle=0;verticalAlign=top;align=left;spacingLeft=32;spacingTop=4;fillColor=none;rounded=0;whiteSpace=wrap;html=1;strokeColor=#0370FF;strokeWidth=1;dashed=0;container=1;spacing=-4;collapsible=0;expand=0;recursiveResize=0;" parent="1" vertex="1">
          <mxGeometry x="102" y="19" width="1202" height="560" as="geometry" />
        </mxCell>
        <mxCell id="rQOZGqiJM3C5LVE3NJN--41" value="" style="rounded=0;whiteSpace=wrap;html=1;" parent="Pu-5_52rEPCiig4ukhZV-6" vertex="1">
          <mxGeometry x="12" y="67" width="310" height="123" as="geometry" />
        </mxCell>
        <mxCell id="Pu-5_52rEPCiig4ukhZV-7" value="MÃ¡quina Virtual Ubuntu" style="shape=mxgraph.ibm.box;prType=zone;fontStyle=0;verticalAlign=top;align=left;spacingLeft=32;spacingTop=4;fillColor=none;rounded=0;whiteSpace=wrap;html=1;strokeColor=#000000;strokeWidth=1;dashed=0;container=1;spacing=-4;collapsible=0;expand=0;recursiveResize=0;" parent="Pu-5_52rEPCiig4ukhZV-6" vertex="1">
          <mxGeometry x="10" y="250" width="483" height="287" as="geometry" />
        </mxCell>
        <mxCell id="rQOZGqiJM3C5LVE3NJN--20" value="" style="rounded=0;whiteSpace=wrap;html=1;" parent="Pu-5_52rEPCiig4ukhZV-7" vertex="1">
          <mxGeometry x="100" y="138" width="263" height="112" as="geometry" />
        </mxCell>
        <mxCell id="rQOZGqiJM3C5LVE3NJN--19" value="" style="rounded=0;whiteSpace=wrap;html=1;" parent="Pu-5_52rEPCiig4ukhZV-7" vertex="1">
          <mxGeometry x="177" y="35" width="120" height="66" as="geometry" />
        </mxCell>
        <mxCell id="Pu-5_52rEPCiig4ukhZV-10" value="" style="shape=image;verticalLabelPosition=bottom;labelBackgroundColor=default;verticalAlign=top;aspect=fixed;imageAspect=0;image=https://upload.wikimedia.org/wikipedia/commons/thumb/0/05/Apache_kafka.svg/154px-Apache_kafka.svg.png;" parent="Pu-5_52rEPCiig4ukhZV-7" vertex="1">
          <mxGeometry x="121.99999999999997" y="152.5" width="40.04" height="65" as="geometry" />
        </mxCell>
        <mxCell id="rQOZGqiJM3C5LVE3NJN--13" value="" style="shape=image;verticalLabelPosition=bottom;labelBackgroundColor=default;verticalAlign=top;aspect=fixed;imageAspect=0;image=https://upload.wikimedia.org/wikipedia/commons/thumb/0/05/Apache_kafka.svg/154px-Apache_kafka.svg.png;" parent="Pu-5_52rEPCiig4ukhZV-7" vertex="1">
          <mxGeometry x="217" y="152.5" width="40.04" height="65" as="geometry" />
        </mxCell>
        <mxCell id="rQOZGqiJM3C5LVE3NJN--14" value="" style="shape=image;verticalLabelPosition=bottom;labelBackgroundColor=default;verticalAlign=top;aspect=fixed;imageAspect=0;image=https://upload.wikimedia.org/wikipedia/commons/thumb/0/05/Apache_kafka.svg/154px-Apache_kafka.svg.png;" parent="Pu-5_52rEPCiig4ukhZV-7" vertex="1">
          <mxGeometry x="308" y="152.5" width="40.04" height="65" as="geometry" />
        </mxCell>
        <mxCell id="rQOZGqiJM3C5LVE3NJN--15" value="Broker 1" style="text;html=1;strokeColor=none;fillColor=none;align=center;verticalAlign=middle;whiteSpace=wrap;rounded=0;" parent="Pu-5_52rEPCiig4ukhZV-7" vertex="1">
          <mxGeometry x="112.01999999999998" y="225" width="60" height="30" as="geometry" />
        </mxCell>
        <mxCell id="rQOZGqiJM3C5LVE3NJN--16" value="Broker 2" style="text;html=1;strokeColor=none;fillColor=none;align=center;verticalAlign=middle;whiteSpace=wrap;rounded=0;" parent="Pu-5_52rEPCiig4ukhZV-7" vertex="1">
          <mxGeometry x="207.01999999999998" y="225" width="60" height="30" as="geometry" />
        </mxCell>
        <mxCell id="rQOZGqiJM3C5LVE3NJN--17" value="Broker 3" style="text;html=1;strokeColor=none;fillColor=none;align=center;verticalAlign=middle;whiteSpace=wrap;rounded=0;" parent="Pu-5_52rEPCiig4ukhZV-7" vertex="1">
          <mxGeometry x="298.02" y="225" width="60" height="30" as="geometry" />
        </mxCell>
        <mxCell id="rQOZGqiJM3C5LVE3NJN--18" value="" style="shape=image;verticalLabelPosition=bottom;labelBackgroundColor=default;verticalAlign=top;aspect=fixed;imageAspect=0;image=https://upload.wikimedia.org/wikipedia/commons/thumb/7/77/Apache_ZooKeeper_logo.svg/1200px-Apache_ZooKeeper_logo.svg.png;" parent="Pu-5_52rEPCiig4ukhZV-7" vertex="1">
          <mxGeometry x="198" y="45.01000000000001" width="85" height="45.97" as="geometry" />
        </mxCell>
        <mxCell id="rQOZGqiJM3C5LVE3NJN--28" value="Cluster" style="text;html=1;strokeColor=none;fillColor=none;align=center;verticalAlign=middle;whiteSpace=wrap;rounded=0;" parent="Pu-5_52rEPCiig4ukhZV-7" vertex="1">
          <mxGeometry x="201.01999999999998" y="114" width="60" height="30" as="geometry" />
        </mxCell>
        <mxCell id="rQOZGqiJM3C5LVE3NJN--29" value="" style="group" parent="Pu-5_52rEPCiig4ukhZV-7" vertex="1" connectable="0">
          <mxGeometry x="576" y="14.98999999999998" width="255" height="247.01000000000002" as="geometry" />
        </mxCell>
        <mxCell id="rQOZGqiJM3C5LVE3NJN--3" value="" style="rounded=0;whiteSpace=wrap;html=1;" parent="rQOZGqiJM3C5LVE3NJN--29" vertex="1">
          <mxGeometry x="21" y="12.01000000000002" width="234" height="235" as="geometry" />
        </mxCell>
        <mxCell id="Pu-5_52rEPCiig4ukhZV-13" value="" style="shape=image;verticalLabelPosition=bottom;labelBackgroundColor=default;verticalAlign=top;aspect=fixed;imageAspect=0;image=https://upload.wikimedia.org/wikipedia/commons/thumb/f/f3/Apache_Spark_logo.svg/1920px-Apache_Spark_logo.svg.png;" parent="rQOZGqiJM3C5LVE3NJN--29" vertex="1">
          <mxGeometry x="65.14999999999998" y="29.01000000000002" width="153.69" height="79.79" as="geometry" />
        </mxCell>
        <mxCell id="rQOZGqiJM3C5LVE3NJN--2" value="OU" style="text;html=1;strokeColor=none;fillColor=none;align=center;verticalAlign=middle;whiteSpace=wrap;rounded=0;" parent="rQOZGqiJM3C5LVE3NJN--29" vertex="1">
          <mxGeometry x="106" y="116.31000000000003" width="60" height="30" as="geometry" />
        </mxCell>
        <mxCell id="rQOZGqiJM3C5LVE3NJN--4" value="" style="shape=image;verticalLabelPosition=bottom;labelBackgroundColor=default;verticalAlign=top;aspect=fixed;imageAspect=0;image=https://upload.wikimedia.org/wikipedia/commons/thumb/c/c3/Python-logo-notext.svg/800px-Python-logo-notext.svg.png;" parent="rQOZGqiJM3C5LVE3NJN--29" vertex="1">
          <mxGeometry width="78" height="85.51" as="geometry" />
        </mxCell>
        <mxCell id="mdqovbeL93gy_Ksap09n-4" value="" style="shape=image;verticalLabelPosition=bottom;labelBackgroundColor=default;verticalAlign=top;aspect=fixed;imageAspect=0;image=data:image/png,iVBORw0KGgoAAAANSUhEUgAAAPcAAACgCAYAAADQB/ocAAAAAXNSR0IArs4c6QAAAARnQU1BAACxjwv8YQUAAAAJcEhZcwAAEnQAABJ0Ad5mH3gAAGyKSURBVHhe7b0HgKRVlTb8VM6xqzrn7uk8OQfSwJAFAQEBAQV1Aygqrv/uGvb7lHVdBdeE7qoIShKRIDkPYQLDMDM9qdN0zl055/Cfc6sbBj5gYYY0zfsMl0pvvRW6nvs859xz75XlCZAgQcK8g3z2UoIECfMMErklSJinkMgtQcI8hURuCRLmKSRyS5AwTyGRW4KEeQqJ3BIkzFNI5JYgYZ5CIrcECfMUErklSJinkMgtQcI8hURuCRLmKSRyS5AwTyGRW4KEeQqJ3BIkzFNI5JYgYZ5CIrcECfMUErklSJinkMgtQcI8hURuCRLmKSRyS5AwTyGRW4KEeQqJ3BIkzFNI65a/B8TjcUxNTWFychIymQx2u100s9kMtVqNRCIBjUYDhUIhHpcg4aOERO7DwF9FNptFKpVCOp1GJpNBLpcTjR8bGhrCXXfdhdtvvx1KpRInnngiNm7ciGXLlsHhcGBiYgKlpaWC7FqtFiqVSpCdj5XILuHDhkTuw5BMJjE9PY1t27Zh7969gswejweRSESociwWE9ej0aggKxOXG6u2XC4XHQMTuqKiAgsWLMCSJUtEB1BfXy+OkyDhw8QnmtxMxh07dmDPrp1E5AG4PV74fEGEwwF6MAkZ0sjnMqTiGcTiKXj8EYSjSVjNepywthn+YBRDI25Mu0NIpjLinEx6Vm2j0QibzQan0wm7zYKSkjIsJrKvX78ejY2N4lgJEj5IfOLIzXFzf38/9uzZTbHzFLq6ujA6PIB8OoQSuwblxSY4rHpYTBrotCooFXLy60A6k4U/FMfoVBCeQILU2UHKXItoLAVfIEqXCcTDccT9Qbg8IQxNBjE8E0Ymm4dKqYDZYhUK3tHRgdraWrS0tAhlZxsvWXYJHwQ+EeTmj8gxdF9fDyn0sLDdTz/9tLDdTKsSInRznROLmkrR0VSCcqcRDpsedrMOJr2KTyDOwwRncu8/5MKMN44LLlgNu9OKLJ0lmUgj7A8jMuXC2NAUdu4bw5b94xicDEFBHUQwkkIsmRX2XafTYc2aNdi0aZOI16uqqoSV51ifk3HcJEg4Wsx7cjOpOU7mWPqmm/4DW17ahhmXhyx5TjxusxmwZnkDysusFFenSWmzMOg0aG8sxsqOMrTW2Mmik+Xmr+mwr4qvyoiEeZ0eeY0OxEj25PRADkqfG6Hxaew+OIbbnzoAu0mHV3o8GJwK0/PI7NNrZ0nRlRSfL168GBdeeCF1FOcjFArDYDDAYrFAr9fPvpIECUeGeU/u7u5uPPDAAyLDHfD7kUgmXiM22+HqqiKsXl6PpYtqsKC+GJUVdlJXGRLxNExGsuklFkFuGT1PlkpwoC6e+xpIifNqDaA10KVa3CXLpCHzeeHpH8YTrwxh4+JKPLqjC3sOuZFMq7B/KIAJT5xITpadCG61mFFfXYqyqnroDSaRgWfCS5BwNJi35Obhq7/97W+i7d69GyMjI6SaeUHoMqcJy9rKsHZJFRqri1BMty0WA0xmPXR6rVDhTE4GuVoFDak4yTGRmjqELJE2mSSSJ+kFDiM5E1xFxGYVVxWy4vJoBDnXDDwTMyix6DEZm8GEL4hIiGx3RouHXx7Bc50TGJmJiM5Eq1HT041i2Oyss87Cddddh7q6OnEuCRKOBPOO3PxxeEjrvvvuE23Xrl3wk2KzYy4vNmNJcymWtZdjMV221jtht+oKSTM+gFpeRteJrIVGVptani23QknX6RjqNISKJ+Pi+mtWnZ4nlFtHCq5UQUZqrwgFoZyZFA/n9RHEZVGk6GnGjAOd/V48vWscT+0aIyX3QaUgt5DKIUfna29vx6mnniouTzvtNGHTGcFgEK+88gqGh4dRVlYmHpc6AAlvh3lHbiby1q1b8aMf/Qi9vb0Uc6dg1KtRV2ETSn3q+kYsaiqBxUQK/XZgos+BScvkJsJyE9f5brLoTHKh6Kzss8hrSb1JwbkzkMei0IwPFToAXQwwhKiDIMX3llDHoMDQVIQUfBiP7BiBWqvCvj4XUukcPVVFKm5CZWUlbr75ZjQ1NWFmZgZbtmwRIcaBAwdEQu6SSy7BKaecMvvKEiS8EfOK3DzMxePWX/7yl0XxiQw5QeKOxmJ8/vxlOH55DUyGw4pJZkmczeWRzuSQoUZX6Vn0TPpacnQjz9VpdCmT5aEgNZdzwYpOBwXZdTWptzJHVv3wr5DVn+w1k1xOHYuayC3LZAB1lCQ7AGhIugPFQMJALyTHiCuMrskwciY9fn7rForJ80gkcxibCiORzuI3v/kNVqxYgaeeego3/uQnCAR8YnjtvPPOw+c//3lRJCNBwlthXpGbh7d+/vOfC+XmApUWst3nbmzBeae0oaLYBLVaQc66YL85rs4rWI2VmHRH0D3oQ+9gAB5fEqFIEj5/CMFAEOFIFIl4AiaTEUV2E0qdFlSWmlBdqkNrgwNVDj0MmoKazyGvovOSPZeR6qsmRyHnGF1J5DZ5AW0YiNmAkIN6FaXImiep00haLXjoiX1obCxFNqPEI4/34n/+tl1UuvEwWTAQwOjgIThtWorTw/jBDT/EZZddJmXVJbwt5g25Dx06hDvuuAN/+MMfEA6HcPqGRpx9QjNWLaoUsbZKoxaxMJOZLXM6L0MwnMaEO4csbNAaS8kK20i9uRilD8m4VwyjpdIyxOIZcgJ+eLx+uN1BTE/7qXmgpc7CbtGS5bcKd7CwuYRIb6FOREnKrYOMOg+Vawpyjs+VEVJuD6An9U6aKH6oADKF7HperULOboNrzA2jw0quQY2Xto7g7//9r+J9atRarKjWYUWVCrsmM3BnzPjWv35PJN6kAhgJb4d5Q+7bbrsVf/zjH9HXc1DE1F+8cAXWLKtFkcNcSIaJVkiOyZQG5GRWRIhkgbACSrUFVlsxLBYTZDmyyGkXhclkt2V0fF6OFCmv1z0Kr2cGLrcHU9NeTExMYWTMg4lJH6KROAxqOWoprm+qLUJbgxPFJTZBzKm+USyuNKLYmYXG7oXM4APSZMk9dURuDhGInKz0TjvZdVJ1I703hRY93R58+8bHsaNvDAaVAheusOH4Zh3+42kfmpaegKu//A8i7pYg4e2g+D+E2evHJLhv4iTan/70J2x56UVRPvrlS9bgpA3NsDmthQITbpzJVqghU1mg0JRDqauH1tQEZ0kN7PZi6HQUI7MIEqnlSjvF1mV0ODVVEVREfpPJhOLiEtTV1WBh+wKsWtmOhvpKsurUedDzXN4w9vXNYG/PFKY8EUzMhHCgdwovvDIEi55nh2Wg1sWg1sfocDlZc7bl5Cb4yXIlZFot8pEEvT8iPJM9Te8lIMOugXE02DXY2GKAzZTFrVv8OOmU0ygOXylmokmQ8HaYF+TmcewnnngCY6MjaFlQiq/+3cnQWq2QszVmogjrKiebrCdSN0JBTU6k5dEukk86CTdmU5aO5eP5ATI0eR7LzonhMLnSTI2eo6TzquxE1FpS5yoiei3WrWrAovZyOlaG8Uk/9vdNY0fnGPYR0QMUv3NiLpWO0/NiMBrTUHNoECmmlyMi5+i1ZERuHiePJiFTa8R1ZU4Ba1KPh3d1YUlpHhsaNUjSe7x7RxibNp0qYnGejcZJRLbm0hxyCW/GvCA3L6DASbSR0VFRvOJy+UltVTBzUYqO1JqUkcmp0rfTdRXx2I1sYpBaH7LxPmTiPcjGeun2IeTifP8QsqkxsudTdCxZ9IwfuWwIuUwAObo/y8fTMQWVt5IaV6O4rAkrlrVjw6oK6LUyeHxhTLvDiCXSGHdHkU4l4PfFMD0TR1WZCfloMeQ5DbkFBZF7tsWpM+FqN+qQYtEs+g568PT+Xqwoz6OtTI7JaBoPd8awfPlyhMNhkUB85JFHhKvg2WdMdgkS5jAvYm625TzTy+fzEVlyRMYY9uzZBq9rBJXlJqxb10EK21Y4mAjJ8XThkhV7bpx67mtgJZ1VeqHgTLy5S7rI8fOSdIUPI5WVa+kKKTEhn0siEQ9QZ+PF3oOj2PxCFx56bBepdh52kwIc/jdWqnHxaeWwK5qxoLQEDpuRTs3nppMniNx826iFeyaGR+47iNtf2olzW1I4rkWJg/40vnqHXwyN8WgAF7VwEcsvf/lLQW4uZZUgYQ7HvHIzeJYVDxfxPOna2no4isuJdHoSQyNm3CF0dw+QfU0QkXj6JREzE4UsGYI8HoQsHiq0RITu4/upcQ15ho7LpojIKXoF7gS45JQadwxznQF3ELk4tahofIxSIYPVqkeZTYNyUx5WdRoufxyeUBq+cAbhGBCJyqBXWlBhs8Jq1Bc6jxSdL0cE1xaUOxCI44Vt/fAQgduKM3S+HGZiWTy+Ny5Um5d6YjKvXLlSjHlLtlzCmzEvyH045qZU1tc3YEFTK7J5Bfbu66G4vBN2mx42nQyGbBTysAfykAvyCF1yi3ohj/mJ6ET4ZLhAcoqTZURyWSYlmqgt55bLzhauzKn9HJig9Fg6AV02gnJtAh3VOmHNfcEEkTuNYIzCCG8GDSVFaC4vgsNUKGYRCTQKHwS5lSr4qEN4fushUv0omp1JOC0ZIncOT+5PifJaVm6Ou7k8laeNSsSW8Gaw35y34LXMzjjjbPzjtd+EPyTDn/68Hfu37UJ2ogdyVy9k/kEgSLEztwBdDwzQff2QeXvp8S7Ip/ZDMb4PypHdUIztg2KqBwrPMOSBScgi3BmQ4guljxGhqdGlPBagc0wg7xlDPuyDiZzy332qAactt6HUKkM2l4MvkhSVaeFohsSfSEmqnSOCZ8j65/L0JyEFz2XyiCZSMKhzUCt4imhWlKYyh/VqmahF51i7pKRk9tNKkPBGzDvlfjNY0ZjkK1aswf0PPo6Y3w2HYhplsj4gPklxrgtIuolgXrr0FK7zffEZIDZFjYjKxyVdpOoeaqTuCbb01MKk/KEZyINTRHhqdKmg+xJBH6Zmgjg4FMCefh96BiagzAZI1NMY9+WRIuIGIgksri6luLuIXIAC4XgaU0R6pVYNrVoNjy+Kp7d0w6yJo95OSi3LYf+MHAcmcjhzsU6cQ2MuwaJFi9DWNptPkCDhMMyLhNr/Bv6IPGT03W9/G117XsKmlhz+4XQnFLkIEXmMrDZdimEvxlvYW46JOZvNs8Q4eSZXIws1JsM6jAeVmAzI4A7liaA5uIJpuANJBKO8emoOWlWe9DiJSCyFSX8WE/48MpwUVypw4Zo2XH7cYjSVObG5awiOMhtaGytRUmRG79AM/r+b/oo6ewzH1YXhS+bxzCDZAPosNU4ZXuxNIG9uxGc/+1l8/etfn32jEiS8jnmv3Iy5cWBegXRX5wHE/ZNYSLGw2ahCXlWGvKaWWhUxrpRuO6kVFZqSLx3IK+zUbMjLLBRVG6npyT5rySZrKAxXkLUmtqYSSMfZogdhVARRYQqjyRlHa0kCCyhmrrFn4TTloaR+YsLP9jyPCMXiJq1WtLu37ceK9gZUOu3QKFRiHbbHtu9FuSWJMlMSw74suslQXLgsKyrfDs1k4KE+qaioCGeeeebsJ5Ug4XXMW3LzMsSMufXImODl5eV4edt2zAx2ocqYQb2TJbQIICKDiJwTZC4hUlfQZRW1mkJTc6MOQFk9e72Gjq+GTl+OIrLGlfYi1DhsqLBZ0F5hxtp6M45v0mNDoxIranNYVpvGirosWsrypNh57B6Rka2WwU/WnJdcYpK/0DOCU5a1ENF1oqYmGIjiqZ37UGXhjH0O/RQ1RKkTuWptHK6YAgcncxj3pmG1WsWqLfz5pKSahMMxL8nNNnxgYEBcslrPEZxXOdmyeTPGDk3CrrZjWWkaitReyJNdkCXHgXQM+RwdmzchB1JsENlBqi0nNZcX07dFyq4sp1Y5S3TuAGoBbSMUhhYYTW0w6jugVbRAnqNjsiZ6D0y6OL16iix6lq7nsGdEAV+U11IjFfeF0DkyBSW9RwO910QyCw3F4PlYBs/t7UGJMYVutwIzURWaS/M4qTmGiYgce0fzGPNkxPLJ55xzjvicPFIgQcIc5iW555ZYGh0dFVVbxcVEzFlsfuYZDPT0oEhjxaqS45BNEWGJ0DIEIMcY5OkhyFMHifC7oEh0Eum7IE8cgiw2UkiuxWaQj/iRiyeRJ8VFOk0k5rQFl7eqKCSnptEDGrbxJchEK5BJVCFBx+0YjOK2rTlsOaQg5S68HwaXpyZSaRwgki+rr8byykpEPTG81D1E4X4SB6fjcJhiuGhZHJVFGTzZo0XnKOCPFjov3tKIl03mIUAJEuYwL7t6Vmze2ufee+8VNeecTJtDMpNGKBFHIE52N6NDNl6JVGA5ku6TkHAdR9ebiJBEzFSeHg9AlpmELN0PeWYfFJmXqW2GMvMYVOl7oEz+GYr4Q5CFnwN8e5DzjCMXDtHzSJJ5korWCrmNFb6OzrEW9ealOKXVigYnJ9Rm3xCBuwbiNyrsVlTZ7DBDjXQgiRRZ9lfHUggl5aiwKtFAfZRSpUbPJBCKy6BSykRBCy/VzLugMLi45dVXX4XX6xXDZxI+uZi3Po4JPTg4iJdeegkvvviiIHzXft6IYBzBRALhdIoCcSJWRoNsoogIXYN0qAVp/0KkvMuI6Mvhm2rFwLATew6pMTqTRiwRgizngSw/RZcjZL37IcuSymd2k+JvJ8V/HrLofuSDk8gLssnE5BW50QE5xexFujasqmjGlevUqLTJoSpECwIcLi+prUYynkb/8Ax8/gipewbT4QzqHMDSagWRmYjt0qLYpCCiK0nNFSK30ENOhAtb9u3bh7/85S/485//LNZk53XQJXxyMW/JzarFjXcUeeyxx8SP/7FHHkJvXx8SRJqkLEuqqgJUzHAmuZzUWo9stAwZfxNSnsWITi+Bb6IdU6NNRLgKdA5YsH9UT3EyHZfXkNrKqNNI0KsR4eUDFPPuJrLvIuveSwo+jRwRnJdpkvOSSwYL2fZKFKla8OlFJVhdp4bd+HoCjCJzGDVaHByawJ6+EcQTKYSJnAaNHKtrZVhSJUdWpkG/W4MTWlRY1aAS5OYFJdil8PpqTGpesII7MyY9hycSPrmYt+Rmm8o/fI/bLRSNlezBR57C4PAoEZLITKRR1BuI4GSf1bNfA3OB/LFYMy0rh1VmRYu2EetMy5BxteKJLeW47Wkbnu40YSqgQjSpQSarofNxU1Oj2F0xTiTvJv8/gJzfg3w8IQgu4/niOgvkeTu0mXac0WFGveN16eY12/YMjODAwBjCoSj0ciV8iRhay7VYXEVKb1dBr1HDoVcQ2RUoM/PEFpnYiZQnzHzvu9/FbbfcgsH+frFXWUNDgzRL7BOOeRtzj4+PIxFna5wXGxNcccUV6DvUT2TIisd57TLeBkhRq4eSmtyqovtZwel/nCDjIFhc0pdECr3MXoLPL1iCZcYGPLMHuPq3aTzWqYIrRLZeqDg3tWhQ+iBXjtFzZ5D1EMGpkxHarNFQHF6EXKwGi8ttKDarhB1n8HvqmZpGh7kI7RYHxkMhmDRKfH61Astq1VCpNSKbvrJWi33jSjxzMEWxd2F2Gj9XkSb7rrei2mQTSTbeg4xHByR8cjHvyM1b7fL0T5fLhSUVSqwidc5mkkK52Zoz1DIFdHklokHePogIbFJCXqmDsq5AcuIhEZtIwyo+S3Q1fVV2lRariypxXmUHSmRO/GlrFL/enMD2fhlZ4DkF56ZEXk7xORE8l4wX1JsUVkYxs0xnpPPqoKfnq/B6dpsXblzrLMdSWzF0yhyUei++dYYBi4nMJr0G/rgKL9Lr/ODRJH76VBR7RlLQyTX0nCp8v209fti8HheULUCTzSnWOZdmiUmYd+Tm9b15kUQ3k7tSi+MWWFBp1YvkEiscw0CW15ZRIT4UQcyXEhMy8lo55EVEYbLBijItZBTPymY3IZhTcBk1p1qHlfZSnFvRBHnMhK09aTywO4EtA7xJP6n3bMvzvHImuCyIfJIcBGfQeRxaRWpNnUQ8YUY6w1aek2kyaBVKbKysQG1JFianG/W1Maxq1GAyrMADnWn8zwsx3LYlikc649gznEKJwoZzicyfq2rFacV12GCvgIrOE8llxFRQTihKMfcnG/OG3Bx37t+/H08++aRILCmycTQU67Gw3IxGh2n2qAIspKCVpJq5fiL3cBQxdxKpaIY4TLE2KbecyK0o0YiEm0zLcbFMqLiIyYnoFrkaJ5BinlpSC1lCg809USJ4DFMhBVJZtuYFi84Eh8qHfIrUO1sIB7hOXabVYTqoQDRRUFY1kb7cYEBbuQYqqx9BjQuedJQ6jCTu3x3H716M4A8vhfH0gSj8kQwWGOw4q6wBF1c245SiKvF5UvksesJeHAp5hUPhfMNcZybhk4ljltycCeeMMI/n8jJLPOT1s5/9DD/84Q8RCYewvNaMCqsRZpUOxbwDyGEoIpvbaDJC7Uki2xVEfDCCyEwSsSARPEWEVMggd2qgqCabXq6DTD9rcUUcTiegpqQ4/OySRoqRnQhHcmTNI3iqK4kg2efXyE1fb14RJkvOhS50XqHS9JVrdOin1/bHCpUsRlLaZcUOJE1uDCT8eKQ7jBse8+Mbd8/gz9sCODQZRzKVpU5AgVKtAX9XvxifIdVu1BW2GWIKD8dCGI0G4Q4Fxa6mvJ65VLH2ycYx+9fnLXkffvhhXHPNNTj77LPFzKhHH31ULD3EM64uWFpMys3WV4d04vWtg5ijJaTIHRTLaikuVSfITg9EkOwOIjYRQ5BsepzUMSNITv8VqaBsMkJeQVadVZzjcEFyUnBSzCWWYjQZ7ZgJpvDb56fgDrOTJ/Uma56l2Dsr59VaqDfg5zAL+Q2oVdg7HYArysNogE4txwLqRO7s9OP/PjaO27dNY9qXRAvF3+eQOtcZraI8tdXiwM8WnSwsuFWpEc9lZPM53D7Rg66wT1SpcUkqJ9OkmPuTjWOG3Dzkw0kyXpv8a1/7Gq699lqxuwhXZ3GyjBU8Ho+hzKzBdZsWoKnEBhX0CEfV8EZfzxqX28yoqTDB6CSeET+0SjnUrMbeFNJE8tRgWMThsVAGqWRBbaEkJberoajUQe7gBRfpPrqfDDaaTXY0EPkypMzucArdU2n4orze+ezwmJgqyq/Mz+GOAWJWV9eMj95Xgdwxisf3+0LYPeZHgFzACkslvlG/AldVtmOICMurL32qfAG+0bAcTQYr/GlS/XQCKeo0wtk0tgemsT/gQiCVEHO7udZcgoSPBbk58dPZ2SmSYW+OE3nPL7bc//3f/42bbrpJrE/+4IMP4vnnnxcb4gUCAUF81qgFpNTnLa3BaW2VsGqNiAbUmHLnMDVLIhayheUVaKsoh9xAH70oxVWipOBEcCKdLJhGdiKO1GgUCbLN8XAGSV60kIgrI4LLOKvuVBPBqVfgsXE6X6XOiHJ6LQYT/MBkAu4I7zU2a815aIztMb9B+mjxFHcAk5gMhUUxDd8dS2exb8qPGpUN55c24byyRtQTiWdS1FnR+c8sqcd5pY2o0ZsFkb1EbM4PpOh7G4oGcPd4NyZjYVRUV+GEE07AcccdJ96PhE82PnJyh0IhUVF19913i105OZbmZBATffv27XjooYdw6623CpXmTfF27twpkmeH100r5DLUO804rb0a5y6pQ7HRTLGzBu5pFUanEkRuryB2jdOGpVU1qLGVIy0n61ycAvR5KNUyaEjBVUS1PFnyLMW46ekEEl4iuLDos0NidA6ZgQherBFDZjJ6jlmlgYUabxLI/dKAiKVft+ZMcsj5zPRV0+OBaBRPH9hHx8ToMYrK6XlG6mFqZBZ8ejb7vc5eDiXdHySFPq2kDqcX18KkJCsf8mAgHoSGYm812fSxRBhPu0fwvGsUJmcRNm3aJFp1dfXsNyPhk4yPlNysuFwX/Y1vfEMMXzG5mey8UT7vavmtb30L//Iv/4L7/vpXeN0useGeTa+EVlWozmLw+LDTqMcFyxpJtRegxEwWOaOBb1qNsSkFRn0x+ONe6LUanLu6A+1VlVDITEjk9MgZicxFdB5tYU0yHZ2XL5HKIjcdR4YIniR7HmXCp0naZ8e8ZSpZYbhMr4CCVZ+IyISjRxGMZZBIMdELY96FohYmuJzi/ywm/X480rkb4URhMgt3DiuJzDe0HYeznLUoVesFkZeYHfjH6kVYanJiIhnF31xD2OKbFMfU6y0IZ9J4YmYYfxztojBBLvbzvvzyy7F27VpxXgkSPlJy85xrHrrizeR5HJqJff/99+NLX/oSvvOd74i6cC5KUSoVqCjS4+I1pbjh/CqsrDOI57Nim7RqXLNxGU5pbYDdYEY6pYZvRomJQQW63GmM0XnNRP4Tli/GGauWo6a4SBAunjIhk9Mi7SBVNtPJSIX5fEaVEioiCxM5708iMxlDMk7qTfF3bpbgInJgFbfxNkAcefOcbfGWBPLkAfg1hC0nBedxbd53bNTjxku93Rj3eojoGaH2JxRV4lsUSzvoGCUF8+LcFJOz5e6N+vHd3m24beygGF//Wt0SFNOlOxnDb4f34c/jPSKZxmvEXXnllWIzfgkS5vCRkpvLQl987imsaSiCXq0Q1vy3v/2tIDVvNKClOPf4FgeuP60W//7pely4zImdw0kMe9OCiLVFNnx14xqsrKkhRbcgGdXANabE+CEl/GEF+oKTiCsTOK6jDV88cS3KnaXQaskiE9FSaT1SGT2ybM8dpK42ntNd6DCEgvM3kyYih9PIkdVO8jg4F7uwenOJKim4nLPnpOIZ5JCkMIGfb9bq6LnaWeXWElENkCk0iJNq7x0dwWP79lCnQuehY5sNpWjWlZFTUMITTcMXo5ZKYltwGj8d7sRN/a+iUm/CxeVNONVBVpt6kMe9o/jxoVeEFQ9R7K1Sq1FVVSUy5NKmBBIOx0dGbrfbjUOH+hD1TOLiFTWw6tXo6+sTNl1JdFnfVIzzl1fiM9TOaC/Fwgorokk5Xh2OwB1Ko8HhwFkL23FicxOK9DbEQ1q4xlVwUwsHVehJhiEv0mJ1Wx3F4R1ora6BRmsmG83xrwLpLKk2z+cmEmZ1KuQ5hjYWsuqs3Cqy28Rz5FOk2FzFNktuYc1ZvbkR2WKyLKL0fpmwrN4VVguFDwYRbzO55XLeKFCJPSPDeL67C4Mul3gNrUKLJq0DFQoLQqkMXKkYnvOP4c6Jbjw2MwR/JonllmJsIlI3GqwYigXxp7Eu3EtqPZlLQEadoUqpFOPZHR0dYrKIBAmH4yMjN8/UGj7Ui2qrHsurndCTHWblsxu0WEq3P7WkBheuqMX6+mIUG01wheR4sNOPCV+CYmxeo2wBTmvroJiVSB/QwE2K7R5XIhhSIaJTIlWhw5JFTThryWKh7HKdlWSZ7TFPEFEhm1Ujk9UJEmbkdNugEsNdzGgmqZrIrWJ2E4lzTGxqObLmQrlFozdLl550HJ5MQigx2/NGhxNW6kREIk2mg0Jlpjg7IJJoLw8cEnO0+bgSrQU2suKBTAw7Q1Ok1uPYFp7EAd4ggc622lqK00rqkaZOYzvF2n+d7sdj3hGE80ksLS9GhdkEBdl4riPnDLnBUAhVJEiYw0dCbo6tN2/ejOn+HiyuKsOQN4Mkr8NNBF9a48RFKxegvcwBp8FEBNMjnlZj0J3CX3aO0XGg+LoNp7YuQpG2CJGACmO9ClJtJZIJIpRRi2idBptOW4ezly1Cq6OEYl4jFKR++ZwSuaySyM3xMBGaM9p0XVzyLpsWXj2FvhIitZLanHpzFJ2juDubzCKXOZzgeYxGQxiPh6lDoOcoFETuUliIuIVkmoZiZxUep45sS18PpgJ+8fm586jWmRCkkOG5+DDucO3HPZPd0NDzL65swRerF5Jdt+Bxzwh+QBb8V4Od6KH4u8NZgis62rGu0gadIotEOiVWPz3jjDPEBgUSJByOD53cPIT161//WiTStNkUmkqKsbnPgwhZ01X15TihuQ7lFhv90PWC2BQBo3cmhSd7eNmgHE5qbseGhnY4NaVwTyjRv1eOMBE8m9HAWGJF20nNuOiKT6GjogK6LJeY0XkcFNfKiMCpPDIZpSAzqzcPV+V5uEpUkxHJiVzyIuogOGNOUBALmeBClsmeJ+JpJLh3YWLPknwwEMBIiKvilKhyOsmSm6lD0NFTtAjT673Q24u7d2xDv2tGnJNVW06KO5TwwJ0Oo81sx782rcbvl5yKE+wV2BGcwT93b8E1nc/g9uH9kCu1OK2+BVe0d+DU6nLqOJQIyDKI53PQk1rz+nBM7LlFICVImMOHSm5esPB73/se7rvvPkxNTsKk5hJQHXaNuGClH+pCnhVV5CQF1MGgNgpip8k+97ui2D3kRo29mBR7OZzKCngotp4ZZbVWQ2vSorzFgro1FShfUksE0yLjChEBFVBaiqAiAuXyFGfHc0glKKLPaujcpOBg5Z4dssoS2ek+mYEXXCi8X1ZtVnBGlsg8SY5jJhQpxNvUeLufwaAPE6TeNr0BZ7QthYksOZ9vIhAlxT6I3zz3NMZ9XnrNLFl9FdqtxfhJ+/G4sqodjXobRmNR3D1+CD/s3YFbBvdim2caKbkaHaW1uKC5A2fX12GxswglBh3sJjWqK3U44PZhJhJDbW0tNmzYINWQS3hLfCi/Cq4642oyLkZhYvPaZloijc1gITVWYdQbwNKqKiwoLiViGolQOlJurvrSYdibQvd0EGki6pkda1CmrkHMa4DfTRZbpkVpix0ltUaUtjpR1FgCtV6HxGQQqUCSrLgFKmsRSTAROCtHJppDPK6iuJcsODGY1VtYdGHPefiKiU1kZrWm98dj6KzeLNyeRJwIFUE4kRDKzXt5HfS4MRKm16LP5zRZsb6uHRqlEfsmpvHw3r14ZN8edE2Mi5VPGdxNxInk3WEv+iNBInYMk8kUZnJ5hJVqFFEn1OYsw6qySqymtoi+jwV2C8ptOpQ6NSgp0UBnlKHP5UMwkUFzczPWrVsn5q/z8kq8le+dd96JPXv2iNeT8MnGh0LuQ4cOifHr22+/XazOyRVopWS9iww2+uHLIcvLROWY02innoBUNa8lIujJMmvROe7DiDeO+qIqbKhejYTXhIBbRQTUwVFjRnmrDY5aK4wVDiiNRqTDKURGfZApdVBa7ZDrjEREGTKJHDJxXjixQG65nBN4s+SmlqfYmIu4eVJInLPfpOMcG8uFcufRS4R0J6Kk8AU7zgUpL4yNYCwcQpHRgpbSOlJvOw5OTOFhIvWj+3dj//io6BgUMiUprx0N9nLYzFbsIjs+JifCGzWoKXZiTU09zmzpwHntC/Gp1macUF+BtnILiu1aOChMKHZqUVaqhcmqxCFfGJPkCiz2IpSVlYmJMn+55x78/ubf4I+/vBl3/8/v8cBf7hU193MbM0j4ZOID3yuMf3w/+clPxKqcPJOLE0/8kmcuXIaT6QfN+1nfvetlfG7VWlh5mqIsD6NKTXG3maxsBjc+8zSGPTGcULsOy82r4JvKQKWRoXSBHqXNBjGdUqXXQEvxtkLHSwLHEOojy99AKm4zEMkVyJJ9TrpDiE74MT4jp5ibXIMxI3b/UKuywn6r8zHoM17Ik36MDLpgp3DASvaYlxd2xRL49dge1DttOKGyBg1mG9zxGP7xhcdwKOjHito2nLN4A8XnSvz3iw/R+52k5xVWHuX4usRYhBNrF2FJeRUpPG8fpKbXzVOcnKfvg1uOOoAcdSTUocjz9J3koFICGk2e13YQ91PPg2FfCL94fj929E9i/QkniR1Uent6sHP7y2ICS63eLIpfxnMJyEsduPnXvxYTSaTx708mPlDl5vJSnuzxyCOPiHFtrsgy8kqgdMkqrVLqEU7msaK6CVqys+P+CHyRNMwaKzI5DQY8EXgiCRRry9BmWgbXGM+w0sBZZ4ajzkJXKSaPkDIaTHS/CulgWtSDy7VGIjoRn2Jo5hgrdsKfRijCw188zs3j2Ty7i5Qbhay2jAifTMRwcHoGh/w+hFOFJZniuQy6I17s8k8JX12k1sFDinhvfx9miOBmg1lY7YcPvIIfPHorBj3jSGcLNlwh53JZM647eRMuP3451i2sREt9EaoqDCgr0aPYoaOmFa2oSAs7KbXNqobFrIbBoBSVeYUyWzmRVo5pciVbe8eg1OhFp8mTbXo692GJtQT/3LQKJzmqsYbcwVn2aowNDuHWP/wBBw8eFO9FwicPHxi5eTYXV5w9/fTTYundKlspTmhZATtZWCX96K06K8XVBiSJB03FtaR6BnijSYpps3TdRLG4Bi8Pj0CntKFC0yjsOMfGRRV6WEqIvGotskmKm2W6QrycViAVySEdJUqbeZyZFDslo2OY3Hl6jPfm4riaScPkZpJTLE6dCHJ0m2y2O+jFnQf2IpkiN0CKm8xlMRgN4PbxA/RNkVugTkMFBQYCATwy0oNgMoFQPIKBmVGy4L3wx8LCbeTpn0VvwJrGZvzrGZ/G0upacgoGMdSnUnA9uoI6uLlLHm6jxpfUuEMQCzpQ40s5dSZy6iAOBVJ47MAYhTE5tHe0C3L7RsawnFzB1xqXoYTCDx5vT1Bn1GK04aKSBuzc/CL+67/+Szinv/71ryI2n1tHTsL8xwdCbh7H3rt3r4ixea61VWPCSrKla+uWIZPn/bK4xNMEg9oGvdoMs9ZOaqdEKJFGTIienqyzBgcnJ2CUl6FU3YRUUgOjXQezw0A2nItPVEReHurSUkytQCYpQzpOsXVaKTYCyNJ9Wb6Pws4Eb68bliOWYMIQuck+i6mYpN6c2VYQIaf9Lrw43I+dU5OwkDsgimF/0I0Hp/pxIOzGkqISsTjDPs8MHh05hJFwgNQ0S51TCsF4GEEiNoM/W1NpJc7oWIELlqzF6romWIh4CnpNsd2Qms6t1RY2KxBND5mGblMoIhZQpE5LrjdCabJBZSuGnIgaoM+5d8yHHQMT9Ap5ckEe+F1uVFPndE5ZIxqNVmTpfh5vD6WTwp6fUVyHqNuLF55/QSw7NTezjp3UXXfdJRKch8+skzD/cNTk5oX4eE71HHhuNifQeKrmjh07kEllsLiqA+vqV6PKUoVQLCLUSaXQwUjkLtIXE420cEdiopBFTtczFO9GSGB8kTj06VJYUAmlimxrmV5kw5mUWSIxt8J1BdIJIjYpeY6ey0Nc2aS8QPgovUcidyBKZM+SUhK5FTIi0SyxkVMgEJrBztEuPDM0AD09riMi9kX8eGR6EE/ODCFN8a6FSNkT8OKBoR48MzFIDuCNqQouYHGYrFhWvQBntq/CuYvXYl1dG7kUIjWrMF3KNURsUnSlyULEpbCkyAm1swSa0gpoyirFpbqkHGpHGVT2EsgtTmTI0ewd8+CVQ6OY8gVEvmLgUB8U0QSWWYux2laGIIUBM8mY2EWFq9acar0oWV3Gq8TINDC4gxjdtQ/33XU3/uunPxVZdSY4z4nnGXjSziTzE0e9ESBbbh7a4skLDLaLDzzwgChUYaJX2Ctw/uJzsLJqBWbCfjy870kYKR5eW7caNfY6IpuKSJ3D3okeIqUM1bZK2HUOjPnd6JocR0luIRzKOhjMKpRU66FQcoaJlJdi0FyW+iYevuKEEd3O8ihVmiJqA49by0jRieCxPCKBDFwUc3OnolWrqGMhc03nUPAEkmQA2/tfwBN92zFMndSJzmoxO+v+yUN41j2CGBGHVyYdiwSxZWYcBwNuJEjp58Dn1Kk0KDbbsbK+DV9afxZW1zRRrG2i98YGnToBupSRJVdoNVBS56Qw6qGymKG226BxOqEtK4O2oppIXUwhhZU6AT09RY4EEXh62ou7XtyO57t6qdPj5J8MRh4vNzmw2l6GWoMF3kwSewIz4n01k9K3moo4ikC5zoSN9HmWU0xuI3eQllF4kk5jesaFV17dia3btokQhRNzRiO7C6kQZj7hqJWbFyfkOvE53HvvvYLcPNzFJPrMkguxoLiDlI7sM1npXD4Hk9ZESse10JwdN9B9aoz5XIKsOqUFURKSrpkxlOmaYFaVQqPTwVREP3hWZGHHqaW5Ko1uZ+iSFDtD1pXHzDkuz8TpdoKz5KzerPAqIoacXlNFH5gzx2zJ+flZPLXvXtx/cDMOelxEahk8pIC/HtyDl32Tgiy84kk0k4Y7EUM8c9jWnLMoszlx9qIT8M+nfAGfX34WbCobuRkgHEkjxMNykQwiMR5fz1O8S+QSVXIc4lPnwy0no/dB9yV4ckoS8SDF8b44gp4I4l4f7n5pCzqHhsn+U+dE789AnZuRGq//xiFAIcIHOimsqNQYscjsFO+Ll2zbS2EF5w0Wmh24tLIFN7Yej592nIjzKhegRGsQGzewiv/bv/0bdu3aJZ4nYf7gqMnNa5excrNdZDvOVpznaVt0VpzSegZqi1qgVdrox8wKzZlfQKOkuJJLNMkWM7E5IeaNBsV+1Qoie4xI0O8ehzFXBa2crKteS8o9ezwTmolNLUfEzhDRBYETSnGbyZ2Kyin+ZqvO2XIV8vTarITsEpjYyXQGQ65e/GHLz/BI7zYMBTyCyP5UAq+SArqI4EyKOePNn41Jzv84XneSSq9fsALXnvA5XHfCZTiXyM1xtoPstkGngU6rgl6rhl6nhlYMe/GcbzpHMk3vLUFhQgJRP9lobxRhF8XJUwGEJzyITEwjPjWBnGsc4alhbN6/F9v7DsEVConlnD5T2Ywftx+P9UUViGRTmIxHRGcZJuWOZFJwaHRiddQ5cAzOHROvmspqX0TxfIvJjssqWnFd/VKcWVKLEDmtbVu34ne/+51IfkqYPzgqcnO8zUNcPH7NFpz3xObhmXQygzJrFcXZm2DWltAPWy/i6AzXehM0KlZsToqxmnNTI0zKmCV15ZLTJNnpKSKcJlMGvdoONSk3Z8dFR0DHCrV+jeBqIrFKEFnE29QBpONEeLqdJtJn6Jg8xZ1q6lBYLUd9g9jS/xT+tv+v2DzwEoaCLsSIABxDJ4jQvBBChlcxJLDl1qsNKDaWoqW4FcfXb8C57afjwiVnE6FPwcaW1Vhe3UahRCl09P6UCnIHSsXrjay4kpdvIuurpH5NTucn+UY+EkWO137zuJGenkR6cgzJiVFxPUcOxu+axJ6BQ3hg5x5MegNYbHTgoopmXFC+AMcXVYpll6p1ZqHk/L5jvPADXddTxzO3IkyaXotDirnPMgfOJzSQlefznF+2AJ8pb0IuEsNLL74kVo893IVJOLZxVORm1eaKMx724rpx/nHwqioOYxnay1ah0tpCP2oewuLFC3jtcJ5zzLOnuLabh7Dm1FuDZCpFyp0TtjudUSJMHYcm5yAltBC56fmz49Gi8USPLDe26dSSrN4FFWeCi+vciOTJpAyRZAKe+AQOTO/CSwOP4/Gu+/Bc/zNwxSL0/BwpmxIG6nBsWjtKjOWottSj0dqKFvtCdDiWYlnpSqytWI+NtRtxKnVYJ1QdhwXmBVDTZ+JcVCpNqkwc4nSgGAynxvkDvuS10wrDXXSNiKgg0inIIchJdeVhP0CdGLGZLl2QRfwIBnzYOzqGJw70Ys/wBJr0NiJ1E84nYi8my81rqy2jGPpERxXF13YxZMeqzOrMYLJzFn+aOqliit3Zwr8VrCqNiMWvqukQTiATCImFKPlvKG1oMD9wVOTmZBo3XsyQs+N8nSdYLHAuwnH1nyYSkrqKphGxtUpuEj95XkaoMCtrjrBESFYaYkqC4k8mfD5HyiczQ6c3Qq3lzoFV+c2tMOmDY+9MkhqRO02xdyKZQzCcgDcYwrh3CgemOvHMwD2449Uf46neBzEWHKfQQA+L1gqHwUlkrkSbowUrK1ZjY/3p+HTLZ3Fpx9W4vP3LuLDpMpxSfQbaLIthyBUhHMxjbDKMgWE/hkeDmJqOwh+gWDmWpU6J42mOo/lrpUaf83Ciz7W3vE3Hxihc2Ds+hYf3duHFnn5UG8z4KtnnTSU1cKhf31eM1fd4RyXW2MsEeXlcm+eGC8UmpY5TiNEX9onHq0jh3w6s8rX0Gl+sWSg6jNHBITzxxBPi78gEl3Bs46jKT3nf69tuuw0vvPCCmHrIybViUxU2Nn0GGxsvJMKmxDCQSW2DjsjU49qFf334IopPO/DZZdeho3QVEToIX2IG//HkdWgk63t664WwqB34+eb/i7OtP0J7cyOKSlWQz07DfCPe+Naz+SypdABDvoPocr2M3pndmA6OIpoII5VNQkcxaRkpc6W5GlVWsraOJlTay6EnFePZX7zEkpgswpd0vlw2S8qcRCKRpG8qB5WKlFieI6ufEcUgyWRKFLxkiUxyeR46nRwWE1eYKcV1pSgvzRF1eWyf3ytbZL7O99F1uuT7+HHqFvAgxdiPki0+RGFOrdaMH7SuRx1ZaLbb7AHeDrxo01QiKrL8JqVaXPpScaHOrOj8md4J3CE8MDWA+yb7MCbPiMUWv/vd76KysnL2CAnHIo6K3JwZZ3Jv3bpVDKlwb3962+dw4oLzUWquJZvNK5TkYNY4iNxG9Ls78YOnPw+HqRSXLv0mFpdvILUKwRufxn8+9Y8osZTjjNbLUG5swC83fxfnFv8HOojcFiePFc++6Cw4kRRPRzAdHsKQvwtj/kPwhKcQS4aJJmlo1GoxbdSuK0axoQx2vZNifRURWQudSkextF4sh6RXF4jNZCvUefPXUSBgnjqLfC5DziND31RWkJ3vp3Ba3Jfjx+i+DH1uHmLKUIzLe3HnRKEO14fnodXIqVEoQte5A+DzKxR0DrrN5M/mMxj3e3D/3t3YMzqMcZ8PLXorLqlswSZnjVjA4Z2IPQeOrfkvKew/HZ7O5cVyUf/7MwsYT0Rwz3gPbp/shd3hELP3Wltb6f2+2zNI+LjhqGw5Fz8woTmZliYFsxmKUVvUBqeRe/xCn5Elu52fTeqolFqUWqqQzCRE/TXXePOyR3MWNpjwI5QIETkUgrxqIoWCNwPgHysprysyjgMzWyle/gup3G9w755f4pGDt2LPxPNwR8eJLErqIKrQ4OhAW8kqLK04DkurNmAh2e2WssVocLahnBTbZiSik80lWiKSCtPrBhF4rQXodgihZIQ6Hs6ap5CXE1npLbJ7UBCzVSpSZq0aRr2WlJq379GjyE7NZiDV1sJk1MCgn8uUK18rNxWxN6/uwqSjE7rCYbx0qA937XwZz3QfFOurNeusOLu0QaxdzuPr74bYDFZrJjMn1vgfL7f8XmhZRvE573vWQI6Bd3bhxCjnUiQcuzgqcrPoc8TIM7u4h28tW44yC9eJczzMhGY9ZCVjVcmRYhqwoHgJxaZkZ4ngDC4kYfDzQ3Emd0B0C9kcxXyqFLzJcbLzr+KVkafw4sADFDPfhWcO3Y0tQw/hwPR2+GIzMKqtaClZgeMWnCucwyktF2Nl9clE8kWk3CV8crLrIYSTQSItNSJx4TKEIN0fpOuizRKc7ys8FkEoRS0ZpU4gRrEsWXRqsXQC8Qxdp8+Rok6KNB0KlRw6vQoWixbOIgNKnEYUO4jsFt0s0VXQaFQie87P656ewOa+Lty351U8sq8TwUgUbUY7Pl3eiI3OKjFB5cMEV7Y1GKwiucadNYdanCSVcOziqMjNhGRl0tOPVk4kXV11BspNdeIxJjVPiGAFZ+vJVtWgtmBZ+UZ2vYgTcTJka7kclMHKFiFi+aNustthspVJ+DIj2D72N/zx1Rvwy5e+SUT4NfaPvwy1QouVtZtw8Yqv4qp138NZ7V8glT4BJcZqUslCdpjPK5qoRFOJxuPc4rp89ra45McLxxRKU+k59I8tLruOVCZN7ychyB0iy++PB+GNBUTzUywfZOInE4hRbM4JwVAyRvfxsXHqIOL0PG4J6ljiCMRimA4G0Dk+gptffBK/felZ7BoegG42sfXVhmU4s6QOpRQuvN8QQ33ZDMLUsXCL0fU3D5NVag1ixVWOTHjBB1ZwCccujirm5vrkh++7Bz37OzHuSeA/z3kQFdZ6+hFxnXiMFF1NKheGXmkidbWQbdSIOPnfHr8UHeVrcdKCz6DUVAtXdBT/tfmrGPb2oMbegmp7E7b0PUJKb6YfYJI6EBXZ6XosrzpZFMUYNCaKk9Xi/Kz8TEglEVUpCDtbP06XbFE5D8dzxHmeNHc1c/OnufspJLoK1wtNLGlKEcLsJdl2UKdEES09yuEF3/f6/eI48XiO3mcaUeqwtgzuEh0AOxV6+YI1pteMUufgCQXgDpI7iUfpe0lSqJFFxWyJ6OcqW1Gs0RUqzwrPet/Af2Au0OGqu96IX5Ca9x0r7FBqKxxE4OMOhDz4x/2bkaUO+8c3/gQXXnhh4UEJxxyOqrb88ccfx/49uyCjH2owlsSq2lNh0TkECVKkvBpSWE6q8Y+VyciKyzXd/NudDo+In3BdUTspeFrEzf6oC2Gy5Z7IpFBvs96CJRQzr6s/C0sqj0OVrQl2ius5+85W3KiyCDdgoEudygiN0kBNJ15HpeBEGRGeXk9Mr6RO4LW4lxxFYZolhxOFGJhvc2fA19miFjoNBT2fGhFORefhclo1xcG8FppalIDSZ6JLDTWdUiOSdQY1d2BJMa+7c6QHI94pjHqnMeabIdX2kXpHxONlWiPOLK3DRRVNOJFseBWRnDPb7zexuYc5EA/gb5EJjFhkKK2YgNEewACFQFsn/WI4zKHWz742hKrvC3tEDcDJp56KhQsXFs4j4ZjDUdlytm3TM276/ShQ57RjyN+JQNwjCCNi7llPwOTlxuDHllWeiApLPaLpIJF8WBDTqneIKrJkOi6eu7L2FJzYdD7W1J2OxeXr0eRchnJzHWxaJrddkFpPyq5XmaBlUiuY1BoiISn6nN0mIsqVdMlJLTU1DRGWm5YIy0NV4pIbKf9hTaVTQUXxs5piZV7lRS2aFmqDFhqDTjSVTouEPANPKoD+4DhenTqI54d24pWRAzg40Y8R9wTcYT/coUKLkCW3UAex0laKy6vbRPEIV4cdRzEu7/3Fde3vM60FMhYDfEVGeO061LRUYmWHA8ctAlobA4gZJnHvRB/c5CrmZrlxEq9Bb4U8x7XwSbHghoRjE0dsy3maJ2/g9+Sjj6Le6cDahjocnJRj04Ivo9GxmOJMP5FNh1gmLMhqUFlh1TpIIQsJtAHvPrgiY4KIVp0Tj/Xehp4pcgFQoKl4iSB1GZFZR8Rl0hbIyzt4vEUGmW5Sn8EiJborts5s/xPZKJLU0rm4iOFz4MqrwrCWGJLi8Ww6nhWcrxdUmseneUrq3CV1BnSdE3xRirnDZLl53DxGcbUv6oWXmpuUbjrohivggo+sd4IsML9LHnPm4hKrSg2rWotqssILzU6Ka52wcbkqv+kPGONOI3arMxjNRLG01I6l9kl6T73onhzDPTvDuGd7Dr9afLKYPqonR+JJxcWOJ78f2ocvf+t6XHHFFSgpKZk9m4RjCUdEbs6m8tj2j3/8Y7y8dRsWVlbhn08/Dd9+8CGc2vw1rK49HaksKTD940vOlrO6mjV2IimXoRbgJqt4cHo7dow/IYjD1ritdBVW15wuyMzKzORmS///jLcyoWcvc7I0snJqshRdppDKxzAe6MdUaASu0Di8EbL7ZEMTyShSZIk5UcbPVRPxePiMa7+1ah2MGiMMWgM1uqT4V6/SQUeWVU/X46kIBl0D6J3oxeD0ELwBL3UUha+O7Tx3DGp6/zwcpaEOyKnVUzxrFyWeSywOlGkMorLsw8aDWR/6zNSB0ntQuzI4rtGCItMMDrm68WBnH/62O4rvtqzBSY4qUa4aIlu+KzCDG3pexqozNuELX/iC2NFEwrGHIyI3F2784he/EAm1vt4+dFRU46YLr8S/PfIXVFqOx6rqs0l1axBK+kVii7PlnI02EFnNmiJxDn7ZrUMP457On2EmOIb2ipVYV3cWqfYyUniniKNZ5ZnUb6XUxB+y16S86jxGA93YP74dB8ZewdB0H4IRP3UrOWhIHfVMKiItz0TTk/1nF8CFHvz6Qjj549P5+BXEGLGIv2UUG/tIjSfhCXHGmI/nuvcM0pxlpsYdHINrvR3UIfAChUtJlduJ0Bw/m0mtWZk5li2MP7+3cef3Cz8e6cRUmRVLFy7Frlf3oc3cDL0ygq6Zg9gy2I1URoavVHbgZCI35wE42eYj53H17ieRLDLj6quvxte+9rXZs0k4lnBE5OY4jP/gvIe22+VGc0kVvrHpAhycGsf+CQ/q7MfjlKbPwhefFscXKra4sEIHs7pIEK3L9Qqe6b2bYtRn4DSV46z2z6O1ZCXsujJhvznx9lZRqEIjQ0YRx1iwF/vGt6F3slMMobEn5xJXI8XjVk0JTBqrUObXFmYQJONMeqGCS2THecyHL0XLi+SfOzKF3WPbMe4bIYIHkEwXxuPnwCuzcoabJ200Gawo1xlhp9cxsfVWacRSTKzQH4blfje4h9zGs+RcInoNKkvLUWoupVg6Cq1Zg6xKjr899BD+qWoR1tvKxNg6fyM88eT7vS9jR9iNMy7+jNhIgrcJlnBs4YjIzVVpl156qVgbWwctOsqbsKy2Ac3FDXigczNRshqfav8StGRr4xTrsXKz6nFpqCc6hbaS1Xi69y680P+gON9ZHVdgRdUmFOlKRZZ7Li5/DUTGvCyDBELodu3EeHAAHrL0wagfmVSOiGyDRVckknI2fTEsFNtzkq4wzj4HLrgpEJmHxgTJOdamc3M8PRkaRvfMbox4BtDv7hHKzVV0rOZ6IiyvcFJvsKCC1I0XI6ykS24cO2up0/i44lA8hOc9Y9ganEa6yAKZQo54MgmnvQg2qxXb6W/4nwvWYJGJvrPZsIGTa897x3HL8H6Yl7TiS1/+Ms466yzxmIRjB0dMbv5j7969G63OVqypW4mZ6Ag+t/JCPNu7jcjhQ0vxBjEzLJB0E0m4mism6r+f6f0z1tWeha0Dj4q4eHHVenxh1XdhJkJycu3Nas0dQyjlwUxsGN7UGKn1Dop3XdAqDKiwNaC+qAMOQzl1Cry6SgEFI0//2AoTOeeuM9U5kcbKzQk0Jm4w6cGEfxB7yAW8OvYiXEQCho4U30mxNi+SwMsVrbKViimX5WTB56ZXHgvgP+5oLIQdgWnspBAjmIhTZ5aDTq2hTlErauG/UrNIfC7+nuYQSqfwk/6d2K/JYv1JJ+KnP/3p7CMSjhUcEbm5pvyUU04RE/tPbDwZJzdvxGP778U/nHgtKXUKT/c8h0GPG/900m9EQUs8E0E0FRaztH730vdg0luF3V1QvAhntl+J9TWfEuR7M5KZOP3IvDg4sxXbRx6HOzCJRZXHo710NZzGCqHM4gcpCMwQNCYSU4wrrHjBkitFUQsXuRRsORlwkUHnQpsdo0/hqe770O/qIibk6Dg5DETsWqMVJzoKCyPwUNV8ASfMeFUZngfO9ees0odPTuHHeMoo3/fHsS48G3WhqHWBmEgi4djCEQeGnFTjfoGLRngoy6qxIJaQodhQjyprI5LZCF4aflCEtRo5bw/E1ONhJzki8aAgUUPRQiyrOPktic3TN3eMPo57dv8U3VO7sKLiVFy97vtYX3cmHMZyQWy27xyfc6KOp4kWaUvh1Fei2FiNIn2FGBPnGJ+Tc6z0SjqWdwLp9x7Afft/i+89/gXcseMXGPL0ioQZF6hUkfX+/5pW4T9bN+CKyjax1e58Ai/swHkBg1IpchAa+sxzxGbwmPefxg6iPxKAVaUVIQj/zSQcezhi5T7xhBPR3d2Nszs+g0uWfx4HxrYjQz+W5uJlRKAMtgxuxvahzbj2uBuFyh6Y3oZn++7BkLdLTBDZ2HQRTmm+WIyJH/7jYvs+FR5G58SLIhmmVenFuuYcU3PhSqFQRUttrj6c1Zi1ujDTSrTZ88XILfjj05ih802EBjARGIKPlIgLbfwxl5h0wplvPrrFVIRNxdVYQfabldqi5Nf55P2oeS22fSEPNrvHMBALQllRjMUnbMANN9wwe4SEYwVH/OvlMWxWTqVcQ6QrQlPpKoz5Rog8UTj0CyjmXiWq0naOPU1EmkE8FaWYu1/MCFtUsR6ra05Fja31DcQOJij+DfbDFRkV48vFpkrU2dvpuBY4DZViGI1LTwvlpmYxds4VaXEi8XR4AH2ul7Fz5FE813cHHtz3a/y185d4YO9/48nuO7Fj+DH0Tm0jF/Ay+mY6MRMap/eShlmlwcnFNbi0qgVnldZjlbVUrHryURGbbTIvauh/U5b+wwLnGtpMheE8Jrqtqlxs7i/h2MNR/YI5npXL1HRphM1QxWlnRBJRIrUKZeZmrK07XdSMH/LsFRMrNCpe/DCBDfWfEokwVuE5pHMpIrcXgYRb2MCOsjWotjXDpismMluF9VbQv1gyCBcp8RCd8+D0Vuwae5baU9g99iR2jz9Oiv8oOicfxd7JRzDgfZGUu4d6Ij90WRlsSuoQqDPiJBuPT3PRBi9XdGlVK84uqUfNOyxJ9GGBbRRbY7bFHwU4yWihDm+FrQQlBhMqamqwdu3a2UclHEs4YlvOVUvDh0bJln8Ol6/6OsWsWewafBTxnBzltg6htpxE++FTX0ClrVEsojBJ1phV819O/gMqLA2zZ8uLCrZg0otIOiBWN+GKNJ5BxnXjbLc5Y84W2xUZwXTokLh0h8fFmLQ/7oVFa4ZNb0WRwQ67wQYHtSKjTWw2aNVZxPa9nd2HsNu1G53uTnjJITiJ2BuclfiHmkUo0xqok3rdQbxbsMpyAooLP/iS54sx+Eyiao1CBE5cvZdz85/jFf809gc9uKKmjb6HwoSODwv8CTK5HJ5wDeN5hLHyM+fg61//euFBCccUjorc3V09OLP9c7h6zbdFGWc0GcCzvfcIm76x+TIxtv3S0IN031/EL761bIWo8T6n9e+EIjN4jDlMpOblltjGM6lZpbn01BUewYGpLdg/uQ1jgUFR511XVIsaezXKLWUoNjphM1qJSJwdLwxt8dg1x+CFqZ4yRCJJjEzNYO9IJ54YfRzuuAtVeiNOL63DVVXtMCp52uiR0Yczz8PRIAZjIbFM0TQpLrsCnnxRSta+2WAli1sk4vd3+xrcYWz3TWKbdwIbKVzg53+YZatpIjZvTfS93u1Y89nz8JlLL0F7e/vsoxKOJRx5Qu3EE8X2sJy9vmT5dagipeaM89b++4ioUbRVHI9KSyMpqxv37v0FOsdfpLi5gjqDK7CwbINQZVZkLnIJJT2iI+B6cpYOLlDZM/68mN/Na5yVWUqolaPEVAqjxlBY+4wsvlalFeui8eAWP1FciqozUtFsFoFgFB5/CIMzQ3hi8AEMUDzv0ChxeklhquXR2nBeWJDHgzk+9lHjNc+nU3GMxsNiw4BoOgk9hS48rHYC2f+FJoeoYnsnMLm5w9jqmcCO4DS+XLsIC8iFfNAEPxj2oiviwxiFVdPZBBpOOxGnn3cuFi1eDL3+9fkAEo4dHNF8bibOH//4RzHl06g2wqkvQZ2tSQTwrJYBUkeu+FrgXCoqxXhetDs6CW9kGqc0XSzmfHM5aIp+RFFSbb5kxeYMdtfUy9g1upmOH0UpqXNrSQc6ypehpWQhqu31ZL+dMGks4KWJedUVHtUupA7kyGR5zf+s2MbHFyDCBeKY8rnQ6z2I3e4dFLHncGpJLc4m1eby0aMFqzHPh+bZX1yCyjF8sVovNuJzknKb6X7e37svFsBYNESdQFIMAZbQce8E7m6T9GGG4yFMEtk4P8CJP3YE7xc4IcqrsfBrbPVP4ZW4D6GKIlRsWIX69auw8YzT0dzSIvYQk3Bs4ojJfcftdxC53aIwxEox7+KSxUSvHExqE7zRaQx6D8BpriVyG0QFGS85PBMZw/r6s8m2m8UPOJGJiCmh7NkDMY9Qd7bgPM97ScUanNx8DtrLlqHYVCHITG+XGhGZbDdf5vMysVZ4MpVDPJFBJJpGMJSExxfBlNdN8fkMhvy96PZ1YiY+IYa5WLF590u2z+8HuDPj2JpJzvt4caadt9BtNzvEgoOVFAKkyOry1j4D0QC8qQRsdAwnrd6q/pzfF8e8+VxeTBftDLrEKioc13P4oafX4E7l8FGGdwLbbHYWYxQ2jFKbIncxQR3GWDKCAWpd+TiGHQYoGquxeOMJOOvCC7Bx0ykoKy+HRvPOLkPCxxtHZMtF+emZZ2H3nt2kThasrlyPK5f+vZisweuSjQWGsHdmF6ZSAZzVchXs+jJsG3kUr4w9iQsXfQ0lxiqy5GlE6HEmN6/7/cTB29E98yrZ+wac0XoxFlesFha78BNmu12Y3MGzsXjGVy6XRYoscSQWQTAcQSgSIYIXVlVNZWNwxUYxFu7FSKgPLiK2loLwn3QcjxXWEhFnf5jgL7gz6MZDU/3YSrF0PdnsbzQuRx11ApxwezMibPX5s9BnHaNO4UnPMNxk93ku+OmltWLPL1Zxfi53EIcn7Pi12NpzZ8D7nXGo0EPqvCcRwGgqgkg8jjiFVewo5DoNqhsbcfWXvihWXHE6ncKCS0Ur8wNHpNxMMN4XjDchqDFWY3npElJeF0p5bXD6YRhImegoPNFzL2oc7TDrikjNJzEVGqC4uVqsJc5DX7yYQijuxe7R57F96HEsqdyA01svFXZebNqXL6i0TKmAXK1Anu4KRZPw+iOYnPFhcGIMB8b3oZOs/J6Zl7B75nnsnHkGr0w/jR7/LkxEhxCiDsSkUuLEkmqcQbE2E+Pdqt77BX41VnTehI836nt0ZlDsS8b2nOvX3wrc5abIIfGOIs0Gu5iwMpOMiiw2b9frSsQEkTkWPzweF4ROxdAV8uKuyV78cfQgxp0GLDv7VKzYeCJ6x0cx7J6GOxRAgDrEiclJsU83r3bKe781EtmlGHt+4IjIzWK/efNmjI2NwSY3Y4GtltQijSpTCSmKgmxjHhwNaygm3kXEM2qLWGsxHjrEy5Oj2tpMx5ONJqs+7j+Ex7vuQEvxEpGca3QsgoasvFxNyqQnG66WIZZMYsYVxtRkECPTI9g7vh2vjD9F7uAF+JOj9JpxOI0G1Ngr0VDcjHpnK6otNfQaWZGwKyN7eU39EtToTGJo6aMAW2kmYRERulZvwTbfBIwKtSA7r4ByONia8/FiSWi6ze+Zy0Z5+K5WZ0a9ziJifAYXvGSyOQxGAthP7mBPwIXusI9cUwx7Qm6MUKw/Ew5imP5W+w8cQP/gAPLJNHUsBtQbrCJHkCSX4PJ60T80KNYq37hxozi3hGMbR0zurq4usXUv+TvUmSuJ4FX0QFZMRuDGFV52rRUHZ/aQeoaEgnIsPRUcwqLS9eIHPBXkce9dmAz04+yWz6KN4nazgQhIv1slCVqMlMRP8bPbHcSkaxJdE9sxE9gPeWoApUofGo0aLCAyN5BzaKDn1jsXo87RgVpHK4r1pZgMjSKW8KDVbMclFGt/ECuLvhewfeatgSp0xkJmnRrH0TyV9HDwd8PHigUe6O3y981DfdwZsAPgaabcURQ+TeET8WQPHmvnz2gnN1BGr8Hj97zZgDyThdfngzocxyp9kVi3bQM1Xs9tkcWBVqMdZSqdOKZ3ZkJsDVVWVgatttCBSDg2cUTkZkSjURwgJfBOulBhdOLEipWioIRjQS5hVJLmGFQaUpUUerwHMRoaRjKTxJC7C2tqz4CS7OYhVyd6p3ei1dGGE+tOgcNsg0qXJ9XOIJGIYmbSj+lJD9yeSYSjvcglXyGnMIMOixFrSluxqmo9Gso2oMS5EkWWZliNlRQCFFNzIEeKtndqB+Rpj1hdlNct+yiJPQcmLitxCSnmXlJWHitvIXK9ORMujmMXRJ0kE32O7IU56IXOkwnOqq+m4zhBx9M2WY0bjVaxdHGHqQiNdJsVv4gIzwnFc0obBLkXmR30mEU8zpvz83BbiuLwg75p9I0Mi6o0m80mxd/HMI7oL8c/vFWrVonePZgKYzI8CS3Zbl4iV0/8UeSSkOeTUJBV31C+FFU6G/yhMfRN74E3TPFiZALRVBD+mBsJujyr8UzYSCU0+jSpdgrJeBgjveNwj88gHppELrUfTuzBVRVW/H1tE06oWg1r6akI209FRNeMrNxEr84b7FOXMtt8cT/CyTDK1RqsIWJ/nMBdTLXeJIiVzeWxP+wtPPAW4KmXVo0WDp0edp0OFrpuUqtfa2aN+vXHtbzuG2+u8Honxrb/tOIafLVuCS4pbxJJvLdaXILj/1X2MizWWPDKjh3o6+tDOMwjGe8O03dfIH4X73f795dnX+A1TOOuiw4/5gLcNT770Juw/QeHH/dW5/rw8FG8lyMmN/fqPAYaJxJPRV1IU2xrI/XQ0RmZ2HIiOJNcgyxOrV6DNSULxUosHAdvHXkIfa5dpO451JKlryblN5pIqVRpIjPFiKMzCHn9QDqKYtUoNlj8OKfYRnbTiKh5GYKmZUiqSyDj18iStc3GRePbslyWM37wRKaRJtfgpOewin3cwN/hMnMx9ES0Z90js/e+PZiwrNA8VVOQmjotbrzsk57u47FwPufRoM1YhHPLGsWw3o6Xd4i91yUcuzhiz8V2jZXb4XQiko5hMDiMbDZBap0hgqWJ4GnI8im6TJF6mLCmuBUnli8X8ePe0S3oJxVnlW8voh+TMguVOoccPT/iD8Dv8gBE1nL1DFp0YVRr81CrzYialiChqUSO54fT6yjy9Hq5OHUk1JjcvA1R0oNoeBzTvl6o83HYNDx18+O5cgpnynlYzp9KIkxhBA9hvROYukzgOZs+1/i+o6N1AS4eNiMXIYbR6D1xPYOEYxdHFVBxzXFzc7Mgd6e7B4l0hIhdIDR5aUFWvq2R5bHAUkZx+RJUm0oQIcvME0hSSR/a7DUUf/OeYWkkKI6PBEJIxyP0nBgq1W6UqOJQqwxE6nJqFcjJNIXOgxQbmQgyST9ScTfisSnEotTCEwgF+ykM6IeZzskJqPfjh/9BgONsu1orkmw9EZ8Yxvoowck4rrbjzqKyogIm01EsVFHaio2bNh51s354ZfXzDkdF7kWLFqGjowOxTBKvuLrFzC1WaxmpNsgiZ3jNcmGVU7CTZW+zVmJtSRvZSA2mwiNIEDErjXYoSLnlSCMWDBM5w1CSIlsVIdiVYbKieaSVNrLhZcjzUv90/jyFAOlUgGJzDxJE7Fh0utAi42TrB5AKHKQOZBIWEuwisq4fV/BwF8e65RoDdvipY8oWdmX5qMA1AJwH4MIYh8MBHcX4R4zjvoM7n3oWzx5lu2bF7PkkvGccFbnr6upE0QM0Cuz1DiNAZGVrLhe2nOw5kZyrxfg+VnIbxYcbyzooViwUSXC5qkqeI4tP5KZjE7EoETZOqp1EmdoPlSyLrMKAjNJKl/ScXIKIHUYi4UWYYupQZApxIniWiC7LhIDENPLhHqhDB8lWBmFgJTps4cSPGzjzXUrkrtKYsCfoErXeHxTY8idyGUSpA4lQ4yx9kBrf5sc4IGDnwLfZ6fD2vbyrzNz67Mci1n6XPhd/ttn27TWzD3xCcFTkZlRWVmLpsmVI8zCKtx/euE/Ew8p8FnqKyzPZJOK8pQ+pON9usZSiXG8TL+yOezFJNloBsuX0nEwqQUSNQwXuCKKkbDlSbTsyCjPF4PxYCMEwKTQROkfqzfZfSZ2HMeuBPtoDVfgAFLFxcS7+sRqI2LzY4ccVHCnzsCGvaZbP8ha7WRHvfhBgMj/nGcPdE33440Q3bh7bi58M7cKfJ3vFjDauhtsZnMFfZvrInstw2x9uwZYtW95TxlzCxwtHTW6Ouz/96U+TBgPPz/RgIuISKlxIeGVIORVIZRLwJ4MUm0dIjfNY42xEqc6KsfAMds10i2NJkkle2M4TYYncBgXdVmiRk2vo3HlkiMzhmAeZdFQkznQZD5yZCVTnR1EOFyz5EDScYBPb7xYsr4Fi2Y/zmuIc2/L7tJCjWWZxim18xuOR2UffP3Bxy2QigjtHu7ErMY58mR/V7UlULEhjSu/FzRO78KPhl7FLNorVK4247tMLhHt64IH7xcYTEo5NHDW5ebIBTzqoqanGUCKAodAEwgn/LGGzIE0ismcFuUfISoeJ4B22ClQZiuCj+3a7e+GP+pDLUqwu7HyB3Cp6Zzk574AhJ1ufRDIZRpqIrcoEYM374IQfRbIQrLIoDEiQ2megJpvLs6a4wIOLO3jnzI8zRPab/nHl2WKTU2Sqh2PB992ej8VDeMEzjsGoH40NKSxpz2L1ImDjKiVO2qDA4nUZdKzNYOXxNpyyaTHOPG0VlreVYXy4D52dnYhE3v8OR8IHj6Mmt1KpFENinzrnHMh0GhwIjGIgNEYkjQt7LBP2XEYETWGYlPpgYEyMy9aZeYcLFfr8Y9g92YVEihSZjufCF7mMVySVCdVme53NxJBKhqDMRUmhg0TqMGxyXgiBp0G+PgzEm/HpVCpRyMFZaB4m4gUVPs6gr0ZUmpVrjNDKFOgL+9Eb8YkZYe8HppNRbPVOYhv9XVqr1DhthRqrWuRoq8ljebMMZ6zW4IrTLPjCmXacdWINWpevQNXik3DqmhpYtWkMDQ2hp6dn9mzHFt5t4cgbjrvoLhS2pSgg0P8YbvnWF3HyxjaUzR1T1oaTL7oWN929HdMf1DqWmSHcdUXZ6+9LvO5luKXn3b/gUZObUV5eLvYOq6qqwiuhGbziHUY+FRQqzIQ1k5ralBqxEcELkwfRH5pEmd6CerMTvkQIf+naDFeMd81kUudEh8DI04+dNwrIZZLUIjDk/LAr06TKhfHdOfAHZ5Lwh+FMLxd2lGr1dF3xvpHkgwJ/Di4x5c9wkr1KrMLyxMwwxhNhsWfXO498vzX4ORy7B9JJPOsaxTPuAUAfwRdOt6CjQY0ShwwmUw4aTRoqZZIaOR9VAkq1DEpTKZQVJ+Ck5WWocaoFuZ955pnCiT9JCHTjlqvqYVtwFr74k1vw3Obu10k/3Y3n7r0Z37x0Hcp09bjgl3vwvi5nycS+ah0uu/2wbqb0Uty5/U5c3fLu6/3fF3IrKK62WCzYsGED9EV29IbcOBichJIsNFepMcGr9Gasc9SK2Ui39W3Bk2N7EUhGBBn3e4axfWQ/3ERw3u5nLnvLplXsp03noK4BDkUa6tfmeL8Ovi1206T3IW7THZWkhDzvO0yO4eMMrhPnyjP+DLwR33H2SsQzafy4b6eYA84TQt4ruFPgLYT+o+8V3DXaBb3Vj6s25nHqCjlsZuoIX/urC19ELU1XSRGSk8hH+iFTauGwG2DQqxAM+AsThD5BiHuew3fOaMMXbx2aveedMIT7v7oMZ/5gOwWH7wPeitiNV+M+IvaltbO33yXeF3Iz2J5ffvnlWLh4EXrjQTw0dQgZUlx5NixKRFVEUp6ldFZ5K7U2InAOQxRjRkjNE9k0/ta1Fd3eIYq2U/QY/dyyOSI2/fDoeewA1PQD1CrefiVRDb1+YVschkzMf5blZYgRUT7OYNUW75veOIcY1VoT1lvL0WKw4c7xbvyICHr3RK/YKICV+K3AFOUlnDqpU717shc39O3Av/e8DDdmcMriMD5/fAzHLQhDn5mCnFe+yb25w+AzsMNhos8mJFMz0Mjj9FAWsVhM3PeJQGY3br7i5NctfGkrLv2nG/H7+5/Fs889i0fv+hWuv6QVpbMPz2H7967BTS8fJb3fithrrsGjT/8e579HYjPeN3KzrWxqasJpp52GqvYW7A7M4AXvGOLpGKl3oUxURwSt15twaukCnF7agoWWUhjJrvMY5IBvCjs9PeiPjolhtQT//mbJrUQGGhnvzvnWxGZwEk17GMF5/TKOYd/+GR8P8Gdi18HVanydq9V4zvZycwmadFb6DHIMRwJk1Yfwh5ED+NVgJ34ztBf/M7wPvyO383u6j6/fMnqAOoMePDDZj93hERSVTeKkjhBOW5TE8ro0is3koChUksU9JE0ulicg4Se1Ds62AGT0vcsUWuTTZDKjI6IjeIevfH7igZtw0+N8pRRn/vBZTI114c4fX4+rz9uIjSdtxJmXXIMb7+pC9/7f49I3MHwPvvOn547cnr8lsb+NZx/+Fc48AmIz3jdyM7je/KSTTsLGk09G2qDFvaQ4o/GQ2OVzjuBs0+v1RpxdtgAXVy3EScX1aDEXizHpvvA4dgX6MEI/vmCK1xErDKkpSU24hPWdwMRgghjUvOZ5Yb1wJsrHeSiMwdzhSR88GYTfN3eSTHZ2Hmc467CpqFqoeSydxr6AGw9MHMJvh/bhKUUU3TV2DLWUYaipFK8aga0U1nQHPSKGPndJFqe0p9BUloFJX9i2WHSWqZAguCw2Q5fuNzRB+Mgo8pNPA7FRZNJx+psqjqxS7d7LXk9Avdf2pqTWR4Hz/7ANj/7LRpS+TfmrteNq3PKn69+o4L/Zhu7Zq+8Jb0nsG7Dt8Ruw0TF7+wjwvpKbwUUt69atQ8fK5djunxZllTwhgeNfJipP8lDkIihS5LDRWYnrm9bhy/UrsdJeAYtKhcH4JJ71HcAQWcEU2XpWEwU9W/m/kJvBJDHQOUwajcic84KFWrlSxPAfZwjFVqlFpl8QfPZ+vuRptOvIpl9Z0YZra5fgFGeNmLV17gXn46e/+gX+cMftuJXap+l2WWkphT8yckMKFBmz9B3koVHnoX5zHQ+PIHBNQYbsdjoy26LIB3uQG7gduc7/g0x0Csl0DiqNXize8InCkhvxnS/Uzd54e2g3XYBr38Dubgy9zfTTt8VbELv0Uzdi99Pfxlrr7B1HiPed3Aye6/33f//3KC4pxp9IvXcQyQ9PDMmIbGLYi9TcrshgY5ED329bgx+0bcBJRPj+mAu/Hn4ZY1FezzxFb5KHvN4dQTlBZSKiFJHa8AonvCGA721i1Y8TmMg8hZMVnBNsbwUuyllqdoqhM57UYTAYxP2ZTAaPPfooAmOTaDIXod7ogCukELkLpSIPBbV3hUwc+fg0cpEhuAMZxJIyWK1WUWb8ScLSKzZi6ez1d0Yd6o6bvXokeCtiX/57PHfX9Vj6Pqwo/YGQm5fE5Qkl//GjH8FQ4sRDriE84x4TlVKvg69ziQqgIyWyUYzcYbbj4oomXFndimA2il/2b8cL7kFEMgn68b/74I+VkGPvUrL/5dR4/bFjAZxQ4yIcXnyBF2FQKV5XcQZ/BxxucBKOic0LGXKBya5du+D3eGEgj1PNHZrchhe6DUik2ebPPvldgf4mZN3z5Ja6ptTwRBWiSKmtrW328feAo5kVVnmUknWU2NjROnvtf0Mp6hbOXhUYwhRFNu8K8bew4i034P7fXo3W92mp+A+E3AweGjuZYu+LPnsxksVWPOUewRbf20/+598gk7DZZMNpJTX4bFUTWdQ8XnL144mpXvRH/YUD3yWY4KxwbM2Z6McKOLTgxKBJpYGFlLyw8ooGRlJ0JZHdRXGwxW4Xys0jFILcr76KZDROcXkSiUwasqwafp8drwzqMR2koOZdCvcc+PiXB9SYCijExhP79++ffeQ94Ghmhf30zP8nG/1hwmY60rXj9iDxLhPmv7r0TcRm9PwKv3rg3Qy/vTt8YOTm5BqryyWXXILjTt4It1GN+ycPoSvsE8v6vh143Ju3j72ssgWfLmuEXpbD3sAEnvOMitprXmA/+x6rzt6TeH0MwB0TW3MmtYVckJWamcidow/SGfVi4fKloiqQwSuX8jh0JpWCjot2KPzx0H0mWNE16MSOQxbsG9NiMqCkxwrEfSfEUjIcmFBjcMIMWdqEmZExPPHEE7OPSni/MD39JmILTOOub3wHdw3P3jxKfGDkZnDms7q6WhB8w2mnoCsdxv+M7MNILCQKLd4JTPJNzhpcW78Ea4vKsDs4g18NdYrCDlcyLqYvzpW6zGcw0VnN+dtyUXjyasKPsy+8QCySweBkYTKZFMOJvKIpb5PEWxdxYZEhW4pnXq3CLc+W4rmDZkz41PBGlPCT3Q7G5Qgn5IgmCy1E1310f++UBre+aIc1XY7F1gqY6YV5+qeEDwZrv/J73PgPh/mU6btw/ffuIoN/9PhAyT0HHv++5NJLcdHnr8AWzzh+PbRXFGW8MQZ/a3DVFu+d/X+b1+KSihaxKP//jOzH854JMff4kwD+lrhTezg0iZXr14p8Bie6GGpS9PKKCrGabIoczRKLE5dUtaA/FsSr/mkYZTpUpBdgpKsDP7qnCf9yVy2+89dS/OfjRfjdFjPu2WXEX6jd/JwF3/6rAzc9WAGNvwG12mIKixRHVCEn4d1h7b88i8d+cTWu//4tuOZwft9+Gb55+9HT+0Mht0qlQkNDA847/3xc90/fxKg6h9tGD+JJImrif/nxiGEiip25uo23Arq8shWnOqvJauex2TWGl7zjYsud/+08xyq4RnyzZwzPRGdgaK7D9d/8ptjHa27JYSb5pk2boDcZ0BsNiLXQF5qKcF3tIpxX2oBkJoMtrinsdPmRTuhhS5eiPLUARaF2yKY6EBpqR5CaxtNO9zejVFaOSDqPF+m73emegJfCoKNakUXCW2Lt97fhsR9upOCJ4DgTN/z2mjfkGe6/4ptHbc8/FHIzOLPLCn7hRRfh/MsvQ6y8CH9zDeHBqX6xQP//tkgB23Se6dVhdmAxqdMCg40IbxSb5bG68F5awTTZ09njj3Xw9+Gh8OO+yUP4y0QvtrnH0Tsxiscefxw/+9nPcOONN+LWW2/F7t27sWDBAhSXlcKVS6E/4hfP5ZVVj7dV4CR7BdZbS9FhLOwTHknxzi9J9HkSODCdwp6JNHZPpNA1k4I7koVOrkKzzopytV6swqK3mNHS0jL7riS8Xzhr09oCsWdh/dR3cPPlb6A3LvvHW47Knn9o5GbwEBmPmX7hqqtwxgXnIVNbhoeCE3h8Zhg9YR/CmdS7IievrsJj2CtsJWI3TV7Uj3/QbEs59jzWwQnH0ViYvpch4XB4r+6xgBddBw7i5ht/il/ceBN++pMb8fOf/xx33HEHXnnlFSxeugTGEof4Hnf6Z8Sc8BIKaTY5qnFZRTPOpdCGCe6kzlBDvkdB3xOvLqejTlNHPwMVfW16mQIVanJIJodY/olHG7jjOPXUUwtvTMIHiFKc/8Ob31jS+vgXce3vjpzeHyq5GZxk47HTa665Bl/5+tdgbqrDb6Z7cBdPjqC4ktX3vczB5kw4W/Y6vUXsic02/lgHO5lnPKP4Yd8OjBPJeVXSYvpsvNfZIgpN2i0OlFCHFhifxEP33S++y1Vr1mDp8mUYzSVx30QfuiJesUYa5zV0ciXq6LnnOGvwleqF+E7jSny/aQ21tbiB2r83r8MPmtfi+rqlOIs6A/4OH5kagFuRFwVJ55133uw7k/CBovJ83PSLS99gzx/78rW4pX/2xnvEh07uOXA2l+vQ//PHP8Y/XPOP2CdL4N/7XsF/D+3FQOR9nR17zGEkHsbL/ilBsiXkTq5rXI5fLz4Fv1+yCT9uW4+ftZ+AW5aehu+1rsMqetzv9+O2225Dc3sbzj7vXAzHQvjn/S/g/pkBjCej7zpU4RGMA2Evru96SYxonP+ZCwSxeTxdwoeD0gtvwE1vsOeP4YuX34Q9s7feCz4ycjN4ozm26Rd/9rP44U03Yv25Z2G/IoWb+l/Fz/p3iY3n2ap/0tBALuTKqjb8dOGJuL5huRgSbKAwhNdg5909ufHiFy1GG04mpW03F6HvYBdsdjsuu/IKfOm6a5HQqoSC39C7HTeP7MWe8NuXTkXoO95J3zWPQvzXwC5MZRK48uqr8JnPfEYkQtltSfiwUIdLv3/TG+35y9/ENf/13un9kZKbwXF4bW0tNp68EZde/jl86srLUHrcSrycCYn9pe8a68Zz7lGhJGwx50vC7J3AO5GsspZio7NaJA95bXOeKcbhijsZF8sgi3p5+jI4/3B6cS0yoYhQ2I5FC3HhZy/GdV//OsoWtaEnF8cr/mlMJCNCmV8OTuOhmUHcOdGD340cENNH2S3x3PEd9J0b2hfg2uu+KoYuechtrn5dwoeI2ktxw0/faM+3f+Ma/Pur722++EdO7jnwcBnPJrvqqqvwhS99CStOOxnR5mq8pIjhAc8wHpkexIueMbGp/FQiKhbwn69E55EBTmZxHfnhmsnJQk6U8Vx5fyoh1hn3Etn1FFNzvTmD3RBnt6/9yldE2GMlNZdzJyBXiYIXLgAaJtu/xTeFP01045bJHrxqVSDb0YClm07CFVdeiW984xtYvHix2AtOwkeDukvInl84e0NgO77zFbLn74HfHxtyz4Fr0tdv2IAbb7pJtFPO/zSCZXbcH53C/xnehVvGDuJp14goY+XEUyidEj94VqWP+9TOowWrd6XOKNaFS+d5L3SF2GDgv4f3IWfQ/T/7afPadkxQs0KNEpVOHHuivQL/ULMQnyqth01rgNFixjeuvx6//e1vcRN93xdddJHoaCUr/lGD7PmP78T5s7cEXv6OsOfvlt8fO3LPYa50lTPBt995B26743ZccOklmDSrcCupzfX7n8ffdz6Nn1GM+PDUAA6EPPCl4vOe4Ay5UHSZICuvc+6lz33mp84u7P4yCy5yWb16tSD4Nv8kvnZgM67a+wxuHjsgqtesag0qDWZh5Tmunqt4k/AxAtnzG//0Bnpj+7++++WcZGT1PvZs4LcYj8cxMTEB18wMQqEQhoeGsX/PHox29SDjDQLpNO8kJoZ9eCN6Xuifd9Bke8sKx/O8Pw5gPeR3wu+JOzDOIvBfgNc5ZZsdJMIG0gkxJBinz8SLPtrUWpFM47XYPUTk512jsNJnlMmJ4FoVWtatwhe/+EWxQcThVpq/s1dffRXbt21Dd1c3An4fxrp6scrgKMTfYRfs1ZX4wx/+8IaOQcL8wDFB7jeDt5blqYj9/f0YHhxEOBBEPEGECIfg9XgRp9uZaAz5RApIpYn4Ge4heJaFIJf4wGw7PxTrSa/GL0ivP/dqvAyzgjohvpKn6/wwOw4uwonlMohk0iKnkKTPyRsr8FLNXF3GU0F5TRsf7zvudKKmpgaNTQuweMkSLF269C2TX0zwqamp1/b++sXPf47Q6CQSyQTUxUX4/Oc/j0svvVRs/CdhfuGYJPdbgT8Gj/fyj3hsbAwzrPDBIGKRCJKxOHUIOcjEGub8cZlUxCpm2QeNOWKLr/n1rzpPtjnHr/8eOhlWeh5d4FJeJjbv9MIlve92HJo7RY6r95DjYdLzzLLrrrtOdBQcZ0uYX5g35JYgQcIb8bFNqEmQIOHoIJFbgoR5ConcEiTMU0jkliBhnkIitwQJ8xQSuSVImKeQyC1BwjyFRG4JEuYpJHJLkDAvAfz/e6jyLuuoE+QAAAAASUVORK5CYII=;" vertex="1" parent="rQOZGqiJM3C5LVE3NJN--29">
          <mxGeometry x="57.4" y="138.01" width="161.19" height="104.41" as="geometry" />
        </mxCell>
        <mxCell id="rQOZGqiJM3C5LVE3NJN--34" value="" style="endArrow=classic;html=1;rounded=0;" parent="Pu-5_52rEPCiig4ukhZV-7" edge="1">
          <mxGeometry width="50" height="50" relative="1" as="geometry">
            <mxPoint x="203" y="138" as="sourcePoint" />
            <mxPoint x="203" y="101" as="targetPoint" />
          </mxGeometry>
        </mxCell>
        <mxCell id="D9eIzRcXRm9S8lRELcTM-2" value="&lt;div style=&quot;font-family: Consolas, &amp;quot;Courier New&amp;quot;, monospace; font-size: 14px; line-height: 19px;&quot;&gt;192.168.126.128&lt;br&gt;&lt;/div&gt;" style="text;html=1;align=center;verticalAlign=middle;whiteSpace=wrap;rounded=0;fillColor=none;labelBackgroundColor=default;fontColor=#000000;" vertex="1" parent="Pu-5_52rEPCiig4ukhZV-7">
          <mxGeometry x="387" y="5" width="60" height="30" as="geometry" />
        </mxCell>
        <mxCell id="D9eIzRcXRm9S8lRELcTM-4" value="&lt;span style=&quot;color: rgb(0, 0, 0); font-family: Consolas, &amp;quot;Courier New&amp;quot;, monospace; font-style: normal; font-variant-ligatures: normal; font-variant-caps: normal; font-weight: 400; letter-spacing: normal; orphans: 2; text-align: center; text-indent: 0px; text-transform: none; widows: 2; word-spacing: 0px; -webkit-text-stroke-width: 0px; background-color: rgb(255, 255, 255); text-decoration-thickness: initial; text-decoration-style: initial; text-decoration-color: initial; float: none; display: inline !important; font-size: 14px;&quot;&gt;:9092&lt;/span&gt;" style="text;whiteSpace=wrap;html=1;" vertex="1" parent="Pu-5_52rEPCiig4ukhZV-7">
          <mxGeometry x="251" y="32" width="110" height="39" as="geometry" />
        </mxCell>
        <mxCell id="Pu-5_52rEPCiig4ukhZV-22" style="edgeStyle=orthogonalEdgeStyle;rounded=0;orthogonalLoop=1;jettySize=auto;html=1;exitX=1;exitY=0.5;exitDx=0;exitDy=0;" parent="Pu-5_52rEPCiig4ukhZV-6" source="Pu-5_52rEPCiig4ukhZV-15" target="Pu-5_52rEPCiig4ukhZV-20" edge="1">
          <mxGeometry relative="1" as="geometry" />
        </mxCell>
        <mxCell id="Pu-5_52rEPCiig4ukhZV-15" value="" style="shape=image;verticalLabelPosition=bottom;labelBackgroundColor=default;verticalAlign=top;aspect=fixed;imageAspect=0;image=https://upload.wikimedia.org/wikipedia/commons/thumb/0/05/Apache_kafka.svg/154px-Apache_kafka.svg.png;" parent="Pu-5_52rEPCiig4ukhZV-6" vertex="1">
          <mxGeometry x="958.4" y="349.4" width="40.04" height="65" as="geometry" />
        </mxCell>
        <mxCell id="Pu-5_52rEPCiig4ukhZV-16" value="Consumidor" style="text;html=1;strokeColor=none;fillColor=none;align=center;verticalAlign=middle;whiteSpace=wrap;rounded=0;" parent="Pu-5_52rEPCiig4ukhZV-6" vertex="1">
          <mxGeometry x="948.42" y="416" width="60" height="30" as="geometry" />
        </mxCell>
        <mxCell id="rQOZGqiJM3C5LVE3NJN--6" style="edgeStyle=orthogonalEdgeStyle;rounded=0;orthogonalLoop=1;jettySize=auto;html=1;exitX=0;exitY=0.5;exitDx=0;exitDy=0;entryX=0.995;entryY=0.445;entryDx=0;entryDy=0;entryPerimeter=0;startArrow=classic;startFill=1;endArrow=none;endFill=0;" parent="Pu-5_52rEPCiig4ukhZV-6" source="Pu-5_52rEPCiig4ukhZV-15" target="rQOZGqiJM3C5LVE3NJN--3" edge="1">
          <mxGeometry relative="1" as="geometry" />
        </mxCell>
        <mxCell id="rQOZGqiJM3C5LVE3NJN--10" value="" style="shape=image;verticalLabelPosition=bottom;labelBackgroundColor=default;verticalAlign=top;aspect=fixed;imageAspect=0;image=https://upload.wikimedia.org/wikipedia/commons/thumb/c/c3/Python-logo-notext.svg/800px-Python-logo-notext.svg.png;" parent="Pu-5_52rEPCiig4ukhZV-6" vertex="1">
          <mxGeometry x="919.8200000000002" y="327" width="38.58" height="42.3" as="geometry" />
        </mxCell>
        <mxCell id="Pu-5_52rEPCiig4ukhZV-23" value="" style="shadow=0;dashed=0;html=1;strokeColor=none;fillColor=#4495D1;labelPosition=center;verticalLabelPosition=bottom;verticalAlign=top;align=center;outlineConnect=0;shape=mxgraph.veeam.data_file;" parent="Pu-5_52rEPCiig4ukhZV-6" vertex="1">
          <mxGeometry x="42.599999999999994" y="91" width="47.2" height="60.8" as="geometry" />
        </mxCell>
        <mxCell id="rQOZGqiJM3C5LVE3NJN--11" value="" style="shape=image;verticalLabelPosition=bottom;labelBackgroundColor=default;verticalAlign=top;aspect=fixed;imageAspect=0;image=https://upload.wikimedia.org/wikipedia/commons/thumb/c/c3/Python-logo-notext.svg/800px-Python-logo-notext.svg.png;" parent="Pu-5_52rEPCiig4ukhZV-6" vertex="1">
          <mxGeometry x="80.82" y="79.5" width="38.58" height="42.3" as="geometry" />
        </mxCell>
        <mxCell id="Pu-5_52rEPCiig4ukhZV-24" value="Dados Fabricados em Tempo Real" style="text;html=1;strokeColor=none;fillColor=none;align=center;verticalAlign=middle;whiteSpace=wrap;rounded=0;" parent="Pu-5_52rEPCiig4ukhZV-6" vertex="1">
          <mxGeometry x="13" y="154" width="106.4" height="30" as="geometry" />
        </mxCell>
        <mxCell id="Pu-5_52rEPCiig4ukhZV-8" style="edgeStyle=orthogonalEdgeStyle;rounded=0;orthogonalLoop=1;jettySize=auto;html=1;entryX=0;entryY=0.5;entryDx=0;entryDy=0;" parent="Pu-5_52rEPCiig4ukhZV-6" source="Pu-5_52rEPCiig4ukhZV-23" target="Pu-5_52rEPCiig4ukhZV-1" edge="1">
          <mxGeometry relative="1" as="geometry">
            <mxPoint x="116" y="293" as="sourcePoint" />
          </mxGeometry>
        </mxCell>
        <mxCell id="Pu-5_52rEPCiig4ukhZV-1" value="" style="shape=image;verticalLabelPosition=bottom;labelBackgroundColor=default;verticalAlign=top;aspect=fixed;imageAspect=0;image=https://upload.wikimedia.org/wikipedia/commons/thumb/0/05/Apache_kafka.svg/154px-Apache_kafka.svg.png;" parent="Pu-5_52rEPCiig4ukhZV-6" vertex="1">
          <mxGeometry x="221.39999999999998" y="88" width="40.04" height="65" as="geometry" />
        </mxCell>
        <mxCell id="rQOZGqiJM3C5LVE3NJN--7" value="" style="shape=image;verticalLabelPosition=bottom;labelBackgroundColor=default;verticalAlign=top;aspect=fixed;imageAspect=0;image=https://upload.wikimedia.org/wikipedia/commons/thumb/c/c3/Python-logo-notext.svg/800px-Python-logo-notext.svg.png;" parent="Pu-5_52rEPCiig4ukhZV-6" vertex="1">
          <mxGeometry x="185" y="78.5" width="38.58" height="42.3" as="geometry" />
        </mxCell>
        <mxCell id="Pu-5_52rEPCiig4ukhZV-9" value="Produtor" style="text;html=1;strokeColor=none;fillColor=none;align=center;verticalAlign=middle;whiteSpace=wrap;rounded=0;" parent="Pu-5_52rEPCiig4ukhZV-6" vertex="1">
          <mxGeometry x="211.42" y="154" width="60" height="30" as="geometry" />
        </mxCell>
        <mxCell id="rQOZGqiJM3C5LVE3NJN--38" style="edgeStyle=orthogonalEdgeStyle;rounded=0;orthogonalLoop=1;jettySize=auto;html=1;entryX=0.479;entryY=-0.006;entryDx=0;entryDy=0;entryPerimeter=0;" parent="Pu-5_52rEPCiig4ukhZV-6" target="Pu-5_52rEPCiig4ukhZV-7" edge="1">
          <mxGeometry relative="1" as="geometry">
            <mxPoint x="241" y="192" as="sourcePoint" />
          </mxGeometry>
        </mxCell>
        <mxCell id="rQOZGqiJM3C5LVE3NJN--40" value="" style="group" parent="Pu-5_52rEPCiig4ukhZV-6" vertex="1" connectable="0">
          <mxGeometry x="1099" y="358" width="60" height="77" as="geometry" />
        </mxCell>
        <mxCell id="Pu-5_52rEPCiig4ukhZV-20" value="" style="sketch=0;pointerEvents=1;shadow=0;dashed=0;html=1;strokeColor=none;fillColor=#122DB0;aspect=fixed;labelPosition=center;verticalLabelPosition=bottom;verticalAlign=top;align=center;outlineConnect=0;shape=mxgraph.vvd.nsx_dashboard;" parent="rQOZGqiJM3C5LVE3NJN--40" vertex="1">
          <mxGeometry x="5" width="50" height="46.5" as="geometry" />
        </mxCell>
        <mxCell id="Pu-5_52rEPCiig4ukhZV-21" value="GrÃ¡fico" style="text;html=1;strokeColor=none;fillColor=none;align=center;verticalAlign=middle;whiteSpace=wrap;rounded=0;" parent="rQOZGqiJM3C5LVE3NJN--40" vertex="1">
          <mxGeometry y="55" width="60" height="30" as="geometry" />
        </mxCell>
        <mxCell id="rQOZGqiJM3C5LVE3NJN--42" value="Script Produtor" style="text;html=1;strokeColor=none;fillColor=none;align=center;verticalAlign=middle;whiteSpace=wrap;rounded=0;" parent="Pu-5_52rEPCiig4ukhZV-6" vertex="1">
          <mxGeometry x="97" y="40" width="118" height="30" as="geometry" />
        </mxCell>
        <mxCell id="D9eIzRcXRm9S8lRELcTM-3" value="&lt;div style=&quot;font-family: Consolas, &amp;quot;Courier New&amp;quot;, monospace; font-size: 14px; line-height: 19px;&quot;&gt;192.168.0.18&lt;br&gt;&lt;/div&gt;" style="text;html=1;align=center;verticalAlign=middle;whiteSpace=wrap;rounded=0;fillColor=none;labelBackgroundColor=default;fontColor=#000000;" vertex="1" parent="Pu-5_52rEPCiig4ukhZV-6">
          <mxGeometry x="1109" y="10" width="60" height="30" as="geometry" />
        </mxCell>
        <mxCell id="rQOZGqiJM3C5LVE3NJN--36" value="" style="endArrow=none;html=1;rounded=0;startArrow=classic;startFill=1;endFill=0;" parent="1" edge="1">
          <mxGeometry width="50" height="50" relative="1" as="geometry">
            <mxPoint x="370" y="407" as="sourcePoint" />
            <mxPoint x="370" y="370" as="targetPoint" />
          </mxGeometry>
        </mxCell>
        <mxCell id="rQOZGqiJM3C5LVE3NJN--39" value="" style="endArrow=classic;html=1;rounded=0;" parent="1" edge="1">
          <mxGeometry width="50" height="50" relative="1" as="geometry">
            <mxPoint x="595" y="406" as="sourcePoint" />
            <mxPoint x="709" y="406" as="targetPoint" />
          </mxGeometry>
        </mxCell>
        <mxCell id="n1mQBBaIRTNBW4XyGneE-1" value="" style="shape=image;verticalLabelPosition=bottom;labelBackgroundColor=default;verticalAlign=top;aspect=fixed;imageAspect=0;image=https://matplotlib.org/_static/logo_dark.svg;" vertex="1" parent="1">
          <mxGeometry x="1179" y="352.96" width="100.17" height="24.04" as="geometry" />
        </mxCell>
      </root>
    </mxGraphModel>
  </diagram>
  <diagram id="Pe2BUETb_ycjWCkTdiZG" name="Dados Modelos">
    <mxGraphModel dx="1436" dy="640" grid="0" gridSize="10" guides="1" tooltips="1" connect="1" arrows="1" fold="1" page="0" pageScale="1" pageWidth="827" pageHeight="1169" math="0" shadow="0">
      <root>
        <mxCell id="0" />
        <mxCell id="1" parent="0" />
        <mxCell id="VTnEilNkrn9U1MQnDhNZ-1" value="Computador Local Windows" style="shape=mxgraph.ibm.box;prType=zone;fontStyle=0;verticalAlign=top;align=left;spacingLeft=32;spacingTop=4;fillColor=none;rounded=0;whiteSpace=wrap;html=1;strokeColor=#0370FF;strokeWidth=1;dashed=0;container=1;spacing=-4;collapsible=0;expand=0;recursiveResize=0;" vertex="1" parent="1">
          <mxGeometry x="102" y="19" width="1202" height="560" as="geometry" />
        </mxCell>
        <mxCell id="VTnEilNkrn9U1MQnDhNZ-2" value="" style="rounded=0;whiteSpace=wrap;html=1;" vertex="1" parent="VTnEilNkrn9U1MQnDhNZ-1">
          <mxGeometry x="12" y="67" width="310" height="123" as="geometry" />
        </mxCell>
        <mxCell id="VTnEilNkrn9U1MQnDhNZ-3" value="MÃ¡quina Virtual Ubuntu" style="shape=mxgraph.ibm.box;prType=zone;fontStyle=0;verticalAlign=top;align=left;spacingLeft=32;spacingTop=4;fillColor=none;rounded=0;whiteSpace=wrap;html=1;strokeColor=#000000;strokeWidth=1;dashed=0;container=1;spacing=-4;collapsible=0;expand=0;recursiveResize=0;" vertex="1" parent="VTnEilNkrn9U1MQnDhNZ-1">
          <mxGeometry x="10" y="250" width="483" height="287" as="geometry" />
        </mxCell>
        <mxCell id="VTnEilNkrn9U1MQnDhNZ-4" value="" style="rounded=0;whiteSpace=wrap;html=1;" vertex="1" parent="VTnEilNkrn9U1MQnDhNZ-3">
          <mxGeometry x="100" y="138" width="263" height="112" as="geometry" />
        </mxCell>
        <mxCell id="VTnEilNkrn9U1MQnDhNZ-5" value="" style="rounded=0;whiteSpace=wrap;html=1;" vertex="1" parent="VTnEilNkrn9U1MQnDhNZ-3">
          <mxGeometry x="177" y="35" width="120" height="66" as="geometry" />
        </mxCell>
        <mxCell id="VTnEilNkrn9U1MQnDhNZ-6" value="" style="shape=image;verticalLabelPosition=bottom;labelBackgroundColor=default;verticalAlign=top;aspect=fixed;imageAspect=0;image=https://upload.wikimedia.org/wikipedia/commons/thumb/0/05/Apache_kafka.svg/154px-Apache_kafka.svg.png;" vertex="1" parent="VTnEilNkrn9U1MQnDhNZ-3">
          <mxGeometry x="121.99999999999997" y="152.5" width="40.04" height="65" as="geometry" />
        </mxCell>
        <mxCell id="VTnEilNkrn9U1MQnDhNZ-7" value="" style="shape=image;verticalLabelPosition=bottom;labelBackgroundColor=default;verticalAlign=top;aspect=fixed;imageAspect=0;image=https://upload.wikimedia.org/wikipedia/commons/thumb/0/05/Apache_kafka.svg/154px-Apache_kafka.svg.png;" vertex="1" parent="VTnEilNkrn9U1MQnDhNZ-3">
          <mxGeometry x="217" y="152.5" width="40.04" height="65" as="geometry" />
        </mxCell>
        <mxCell id="VTnEilNkrn9U1MQnDhNZ-8" value="" style="shape=image;verticalLabelPosition=bottom;labelBackgroundColor=default;verticalAlign=top;aspect=fixed;imageAspect=0;image=https://upload.wikimedia.org/wikipedia/commons/thumb/0/05/Apache_kafka.svg/154px-Apache_kafka.svg.png;" vertex="1" parent="VTnEilNkrn9U1MQnDhNZ-3">
          <mxGeometry x="308" y="152.5" width="40.04" height="65" as="geometry" />
        </mxCell>
        <mxCell id="VTnEilNkrn9U1MQnDhNZ-9" value="Broker 1" style="text;html=1;strokeColor=none;fillColor=none;align=center;verticalAlign=middle;whiteSpace=wrap;rounded=0;" vertex="1" parent="VTnEilNkrn9U1MQnDhNZ-3">
          <mxGeometry x="112.01999999999998" y="225" width="60" height="30" as="geometry" />
        </mxCell>
        <mxCell id="VTnEilNkrn9U1MQnDhNZ-10" value="Broker 2" style="text;html=1;strokeColor=none;fillColor=none;align=center;verticalAlign=middle;whiteSpace=wrap;rounded=0;" vertex="1" parent="VTnEilNkrn9U1MQnDhNZ-3">
          <mxGeometry x="207.01999999999998" y="225" width="60" height="30" as="geometry" />
        </mxCell>
        <mxCell id="VTnEilNkrn9U1MQnDhNZ-11" value="Broker 3" style="text;html=1;strokeColor=none;fillColor=none;align=center;verticalAlign=middle;whiteSpace=wrap;rounded=0;" vertex="1" parent="VTnEilNkrn9U1MQnDhNZ-3">
          <mxGeometry x="298.02" y="225" width="60" height="30" as="geometry" />
        </mxCell>
        <mxCell id="VTnEilNkrn9U1MQnDhNZ-12" value="" style="shape=image;verticalLabelPosition=bottom;labelBackgroundColor=default;verticalAlign=top;aspect=fixed;imageAspect=0;image=https://upload.wikimedia.org/wikipedia/commons/thumb/7/77/Apache_ZooKeeper_logo.svg/1200px-Apache_ZooKeeper_logo.svg.png;" vertex="1" parent="VTnEilNkrn9U1MQnDhNZ-3">
          <mxGeometry x="198" y="45.01000000000001" width="85" height="45.97" as="geometry" />
        </mxCell>
        <mxCell id="VTnEilNkrn9U1MQnDhNZ-13" value="Cluster" style="text;html=1;strokeColor=none;fillColor=none;align=center;verticalAlign=middle;whiteSpace=wrap;rounded=0;" vertex="1" parent="VTnEilNkrn9U1MQnDhNZ-3">
          <mxGeometry x="201.01999999999998" y="114" width="60" height="30" as="geometry" />
        </mxCell>
        <mxCell id="VTnEilNkrn9U1MQnDhNZ-14" value="" style="group" vertex="1" connectable="0" parent="VTnEilNkrn9U1MQnDhNZ-3">
          <mxGeometry x="576" y="14.98999999999998" width="255" height="247.01000000000002" as="geometry" />
        </mxCell>
        <mxCell id="VTnEilNkrn9U1MQnDhNZ-15" value="" style="rounded=0;whiteSpace=wrap;html=1;" vertex="1" parent="VTnEilNkrn9U1MQnDhNZ-14">
          <mxGeometry x="21" y="12.01000000000002" width="234" height="235" as="geometry" />
        </mxCell>
        <mxCell id="VTnEilNkrn9U1MQnDhNZ-17" value="" style="shape=image;verticalLabelPosition=bottom;labelBackgroundColor=default;verticalAlign=top;aspect=fixed;imageAspect=0;image=https://upload.wikimedia.org/wikipedia/commons/thumb/f/f3/Apache_Spark_logo.svg/1920px-Apache_Spark_logo.svg.png;" vertex="1" parent="VTnEilNkrn9U1MQnDhNZ-14">
          <mxGeometry x="65.14999999999998" y="29.01000000000002" width="153.69" height="79.79" as="geometry" />
        </mxCell>
        <mxCell id="VTnEilNkrn9U1MQnDhNZ-18" value="OU" style="text;html=1;strokeColor=none;fillColor=none;align=center;verticalAlign=middle;whiteSpace=wrap;rounded=0;" vertex="1" parent="VTnEilNkrn9U1MQnDhNZ-14">
          <mxGeometry x="106" y="116.31000000000003" width="60" height="30" as="geometry" />
        </mxCell>
        <mxCell id="VTnEilNkrn9U1MQnDhNZ-19" value="" style="shape=image;verticalLabelPosition=bottom;labelBackgroundColor=default;verticalAlign=top;aspect=fixed;imageAspect=0;image=https://upload.wikimedia.org/wikipedia/commons/thumb/c/c3/Python-logo-notext.svg/800px-Python-logo-notext.svg.png;" vertex="1" parent="VTnEilNkrn9U1MQnDhNZ-14">
          <mxGeometry width="78" height="85.51" as="geometry" />
        </mxCell>
        <mxCell id="VTnEilNkrn9U1MQnDhNZ-20" value="" style="endArrow=classic;html=1;rounded=0;" edge="1" parent="VTnEilNkrn9U1MQnDhNZ-3">
          <mxGeometry width="50" height="50" relative="1" as="geometry">
            <mxPoint x="203" y="138" as="sourcePoint" />
            <mxPoint x="203" y="101" as="targetPoint" />
          </mxGeometry>
        </mxCell>
        <mxCell id="VTnEilNkrn9U1MQnDhNZ-21" style="edgeStyle=orthogonalEdgeStyle;rounded=0;orthogonalLoop=1;jettySize=auto;html=1;exitX=1;exitY=0.5;exitDx=0;exitDy=0;" edge="1" parent="VTnEilNkrn9U1MQnDhNZ-1" source="VTnEilNkrn9U1MQnDhNZ-22" target="VTnEilNkrn9U1MQnDhNZ-35">
          <mxGeometry relative="1" as="geometry" />
        </mxCell>
        <mxCell id="VTnEilNkrn9U1MQnDhNZ-22" value="" style="shape=image;verticalLabelPosition=bottom;labelBackgroundColor=default;verticalAlign=top;aspect=fixed;imageAspect=0;image=https://upload.wikimedia.org/wikipedia/commons/thumb/0/05/Apache_kafka.svg/154px-Apache_kafka.svg.png;" vertex="1" parent="VTnEilNkrn9U1MQnDhNZ-1">
          <mxGeometry x="958.4" y="349.4" width="40.04" height="65" as="geometry" />
        </mxCell>
        <mxCell id="VTnEilNkrn9U1MQnDhNZ-23" value="Consumidor" style="text;html=1;strokeColor=none;fillColor=none;align=center;verticalAlign=middle;whiteSpace=wrap;rounded=0;" vertex="1" parent="VTnEilNkrn9U1MQnDhNZ-1">
          <mxGeometry x="948.42" y="416" width="60" height="30" as="geometry" />
        </mxCell>
        <mxCell id="VTnEilNkrn9U1MQnDhNZ-24" style="edgeStyle=orthogonalEdgeStyle;rounded=0;orthogonalLoop=1;jettySize=auto;html=1;exitX=0;exitY=0.5;exitDx=0;exitDy=0;entryX=0.995;entryY=0.445;entryDx=0;entryDy=0;entryPerimeter=0;startArrow=classic;startFill=1;endArrow=none;endFill=0;" edge="1" parent="VTnEilNkrn9U1MQnDhNZ-1" source="VTnEilNkrn9U1MQnDhNZ-22" target="VTnEilNkrn9U1MQnDhNZ-15">
          <mxGeometry relative="1" as="geometry" />
        </mxCell>
        <mxCell id="VTnEilNkrn9U1MQnDhNZ-25" value="" style="shape=image;verticalLabelPosition=bottom;labelBackgroundColor=default;verticalAlign=top;aspect=fixed;imageAspect=0;image=https://upload.wikimedia.org/wikipedia/commons/thumb/c/c3/Python-logo-notext.svg/800px-Python-logo-notext.svg.png;" vertex="1" parent="VTnEilNkrn9U1MQnDhNZ-1">
          <mxGeometry x="919.8200000000002" y="327" width="38.58" height="42.3" as="geometry" />
        </mxCell>
        <mxCell id="VTnEilNkrn9U1MQnDhNZ-27" value="" style="shape=image;verticalLabelPosition=bottom;labelBackgroundColor=default;verticalAlign=top;aspect=fixed;imageAspect=0;image=https://upload.wikimedia.org/wikipedia/commons/thumb/c/c3/Python-logo-notext.svg/800px-Python-logo-notext.svg.png;" vertex="1" parent="VTnEilNkrn9U1MQnDhNZ-1">
          <mxGeometry x="102" y="78.5" width="38.58" height="42.3" as="geometry" />
        </mxCell>
        <mxCell id="VTnEilNkrn9U1MQnDhNZ-28" value="Dados Fabricados em Tempo Real pelo Modelo" style="text;html=1;strokeColor=none;fillColor=none;align=center;verticalAlign=middle;whiteSpace=wrap;rounded=0;" vertex="1" parent="VTnEilNkrn9U1MQnDhNZ-1">
          <mxGeometry x="13" y="154" width="124" height="30" as="geometry" />
        </mxCell>
        <mxCell id="aw91GCfRjGsSbVvbW3xj-1" style="edgeStyle=orthogonalEdgeStyle;rounded=0;orthogonalLoop=1;jettySize=auto;html=1;exitX=0;exitY=0.5;exitDx=0;exitDy=0;startArrow=classic;startFill=1;endArrow=none;endFill=0;" edge="1" parent="VTnEilNkrn9U1MQnDhNZ-1" source="VTnEilNkrn9U1MQnDhNZ-30" target="yikuAbfuaxwvLpNAhsKD-1">
          <mxGeometry relative="1" as="geometry" />
        </mxCell>
        <mxCell id="VTnEilNkrn9U1MQnDhNZ-30" value="" style="shape=image;verticalLabelPosition=bottom;labelBackgroundColor=default;verticalAlign=top;aspect=fixed;imageAspect=0;image=https://upload.wikimedia.org/wikipedia/commons/thumb/0/05/Apache_kafka.svg/154px-Apache_kafka.svg.png;" vertex="1" parent="VTnEilNkrn9U1MQnDhNZ-1">
          <mxGeometry x="221.39999999999998" y="88" width="40.04" height="65" as="geometry" />
        </mxCell>
        <mxCell id="VTnEilNkrn9U1MQnDhNZ-31" value="" style="shape=image;verticalLabelPosition=bottom;labelBackgroundColor=default;verticalAlign=top;aspect=fixed;imageAspect=0;image=https://upload.wikimedia.org/wikipedia/commons/thumb/c/c3/Python-logo-notext.svg/800px-Python-logo-notext.svg.png;" vertex="1" parent="VTnEilNkrn9U1MQnDhNZ-1">
          <mxGeometry x="185" y="78.5" width="38.58" height="42.3" as="geometry" />
        </mxCell>
        <mxCell id="VTnEilNkrn9U1MQnDhNZ-32" value="Produtor" style="text;html=1;strokeColor=none;fillColor=none;align=center;verticalAlign=middle;whiteSpace=wrap;rounded=0;" vertex="1" parent="VTnEilNkrn9U1MQnDhNZ-1">
          <mxGeometry x="211.42" y="154" width="60" height="30" as="geometry" />
        </mxCell>
        <mxCell id="VTnEilNkrn9U1MQnDhNZ-33" style="edgeStyle=orthogonalEdgeStyle;rounded=0;orthogonalLoop=1;jettySize=auto;html=1;entryX=0.479;entryY=-0.006;entryDx=0;entryDy=0;entryPerimeter=0;" edge="1" parent="VTnEilNkrn9U1MQnDhNZ-1" target="VTnEilNkrn9U1MQnDhNZ-3">
          <mxGeometry relative="1" as="geometry">
            <mxPoint x="241" y="192" as="sourcePoint" />
          </mxGeometry>
        </mxCell>
        <mxCell id="VTnEilNkrn9U1MQnDhNZ-34" value="" style="group" vertex="1" connectable="0" parent="VTnEilNkrn9U1MQnDhNZ-1">
          <mxGeometry x="1099" y="358" width="60" height="77" as="geometry" />
        </mxCell>
        <mxCell id="VTnEilNkrn9U1MQnDhNZ-35" value="" style="sketch=0;pointerEvents=1;shadow=0;dashed=0;html=1;strokeColor=none;fillColor=#122DB0;aspect=fixed;labelPosition=center;verticalLabelPosition=bottom;verticalAlign=top;align=center;outlineConnect=0;shape=mxgraph.vvd.nsx_dashboard;" vertex="1" parent="VTnEilNkrn9U1MQnDhNZ-34">
          <mxGeometry x="5" width="50" height="46.5" as="geometry" />
        </mxCell>
        <mxCell id="VTnEilNkrn9U1MQnDhNZ-36" value="GrÃ¡fico" style="text;html=1;strokeColor=none;fillColor=none;align=center;verticalAlign=middle;whiteSpace=wrap;rounded=0;" vertex="1" parent="VTnEilNkrn9U1MQnDhNZ-34">
          <mxGeometry y="55" width="60" height="30" as="geometry" />
        </mxCell>
        <mxCell id="VTnEilNkrn9U1MQnDhNZ-37" value="Script Produtor" style="text;html=1;strokeColor=none;fillColor=none;align=center;verticalAlign=middle;whiteSpace=wrap;rounded=0;" vertex="1" parent="VTnEilNkrn9U1MQnDhNZ-1">
          <mxGeometry x="97" y="40" width="118" height="30" as="geometry" />
        </mxCell>
        <mxCell id="yikuAbfuaxwvLpNAhsKD-1" value="" style="sketch=0;outlineConnect=0;fontColor=#232F3E;gradientColor=none;fillColor=#01A88D;strokeColor=none;dashed=0;verticalLabelPosition=bottom;verticalAlign=top;align=center;html=1;fontSize=12;fontStyle=0;aspect=fixed;pointerEvents=1;shape=mxgraph.aws4.sagemaker_model;" vertex="1" parent="VTnEilNkrn9U1MQnDhNZ-1">
          <mxGeometry x="49.5" y="95" width="51" height="51" as="geometry" />
        </mxCell>
        <mxCell id="aw91GCfRjGsSbVvbW3xj-6" value="" style="shape=image;verticalLabelPosition=bottom;labelBackgroundColor=default;verticalAlign=top;aspect=fixed;imageAspect=0;image=https://matplotlib.org/_static/logo_dark.svg;" vertex="1" parent="VTnEilNkrn9U1MQnDhNZ-1">
          <mxGeometry x="1077" y="333.96" width="100.17" height="24.04" as="geometry" />
        </mxCell>
        <mxCell id="VTnEilNkrn9U1MQnDhNZ-38" value="" style="endArrow=none;html=1;rounded=0;startArrow=classic;startFill=1;endFill=0;" edge="1" parent="1">
          <mxGeometry width="50" height="50" relative="1" as="geometry">
            <mxPoint x="370" y="407" as="sourcePoint" />
            <mxPoint x="370" y="370" as="targetPoint" />
          </mxGeometry>
        </mxCell>
        <mxCell id="VTnEilNkrn9U1MQnDhNZ-39" value="" style="endArrow=classic;html=1;rounded=0;" edge="1" parent="1">
          <mxGeometry width="50" height="50" relative="1" as="geometry">
            <mxPoint x="595" y="406" as="sourcePoint" />
            <mxPoint x="709" y="406" as="targetPoint" />
          </mxGeometry>
        </mxCell>
        <mxCell id="aw91GCfRjGsSbVvbW3xj-2" value="" style="shape=image;verticalLabelPosition=bottom;labelBackgroundColor=default;verticalAlign=top;aspect=fixed;imageAspect=0;image=https://huggingface.co/front/assets/huggingface_logo-noborder.svg;" vertex="1" parent="1">
          <mxGeometry x="-179" y="103" width="78.81" height="73" as="geometry" />
        </mxCell>
        <mxCell id="aw91GCfRjGsSbVvbW3xj-4" style="edgeStyle=orthogonalEdgeStyle;rounded=0;orthogonalLoop=1;jettySize=auto;html=1;startArrow=classic;startFill=1;endArrow=none;endFill=0;entryX=1;entryY=0.5;entryDx=0;entryDy=0;dashed=1;" edge="1" parent="1" source="yikuAbfuaxwvLpNAhsKD-1" target="aw91GCfRjGsSbVvbW3xj-2">
          <mxGeometry relative="1" as="geometry">
            <mxPoint x="-2" y="254" as="sourcePoint" />
            <mxPoint x="-123" y="254" as="targetPoint" />
          </mxGeometry>
        </mxCell>
        <mxCell id="aw91GCfRjGsSbVvbW3xj-5" value="&lt;font style=&quot;font-size: 10px;&quot;&gt;TheBloke/Llama-2-7B-Chat-GGUF&lt;br&gt;TheBloke/Llama-2-13B-chat-GGUF&lt;br&gt;TheBloke/zephyr-7B-beta-GGUF&lt;/font&gt;" style="rounded=0;whiteSpace=wrap;html=1;" vertex="1" parent="1">
          <mxGeometry x="-74" y="95.5" width="160" height="88" as="geometry" />
        </mxCell>
        <mxCell id="PUXXL8FVPbDoMcsw-AFd-1" value="&lt;div style=&quot;font-family: Consolas, &amp;quot;Courier New&amp;quot;, monospace; font-size: 14px; line-height: 19px;&quot;&gt;192.168.126.128&lt;br&gt;&lt;/div&gt;" style="text;html=1;align=center;verticalAlign=middle;whiteSpace=wrap;rounded=0;fillColor=none;labelBackgroundColor=default;fontColor=#000000;" vertex="1" parent="1">
          <mxGeometry x="499" y="274" width="60" height="30" as="geometry" />
        </mxCell>
        <mxCell id="PUXXL8FVPbDoMcsw-AFd-2" value="&lt;span style=&quot;color: rgb(0, 0, 0); font-family: Consolas, &amp;quot;Courier New&amp;quot;, monospace; font-style: normal; font-variant-ligatures: normal; font-variant-caps: normal; font-weight: 400; letter-spacing: normal; orphans: 2; text-align: center; text-indent: 0px; text-transform: none; widows: 2; word-spacing: 0px; -webkit-text-stroke-width: 0px; background-color: rgb(255, 255, 255); text-decoration-thickness: initial; text-decoration-style: initial; text-decoration-color: initial; float: none; display: inline !important; font-size: 14px;&quot;&gt;:9092&lt;/span&gt;" style="text;whiteSpace=wrap;html=1;" vertex="1" parent="1">
          <mxGeometry x="363" y="301" width="110" height="39" as="geometry" />
        </mxCell>
        <mxCell id="bk2kPcVhE9ku58u3RQCw-1" value="&lt;div style=&quot;font-family: Consolas, &amp;quot;Courier New&amp;quot;, monospace; font-size: 14px; line-height: 19px;&quot;&gt;192.168.0.18&lt;br&gt;&lt;/div&gt;" style="text;html=1;align=center;verticalAlign=middle;whiteSpace=wrap;rounded=0;fillColor=none;labelBackgroundColor=default;fontColor=#000000;" vertex="1" parent="1">
          <mxGeometry x="1211" y="29" width="60" height="30" as="geometry" />
        </mxCell>
        <mxCell id="pPzjUvRnqIS4qs48lEpf-1" value="Hugging Face" style="text;html=1;strokeColor=none;fillColor=none;align=center;verticalAlign=middle;whiteSpace=wrap;rounded=0;" vertex="1" parent="1">
          <mxGeometry x="-198.6" y="176" width="118" height="30" as="geometry" />
        </mxCell>
        <mxCell id="a4gLrBYKQ2-HlLSxVVEA-1" value="" style="shape=image;verticalLabelPosition=bottom;labelBackgroundColor=default;verticalAlign=top;aspect=fixed;imageAspect=0;image=data:image/png,iVBORw0KGgoAAAANSUhEUgAAAPcAAACgCAYAAADQB/ocAAAAAXNSR0IArs4c6QAAAARnQU1BAACxjwv8YQUAAAAJcEhZcwAAEnQAABJ0Ad5mH3gAAGyKSURBVHhe7b0HgKRVlTb8VM6xqzrn7uk8OQfSwJAFAQEBAQV1Aygqrv/uGvb7lHVdBdeE7qoIShKRIDkPYQLDMDM9qdN0zl055/Cfc6sbBj5gYYY0zfsMl0pvvRW6nvs859xz75XlCZAgQcK8g3z2UoIECfMMErklSJinkMgtQcI8hURuCRLmKSRyS5AwTyGRW4KEeQqJ3BIkzFNI5JYgYZ5CIrcECfMUErklSJinkMgtQcI8hURuCRLmKSRyS5AwTyGRW4KEeQqJ3BIkzFNI5JYgYZ5CIrcECfMUErklSJinkMgtQcI8hURuCRLmKSRyS5AwTyGRW4KEeQqJ3BIkzFNI65a/B8TjcUxNTWFychIymQx2u100s9kMtVqNRCIBjUYDhUIhHpcg4aOERO7DwF9FNptFKpVCOp1GJpNBLpcTjR8bGhrCXXfdhdtvvx1KpRInnngiNm7ciGXLlsHhcGBiYgKlpaWC7FqtFiqVSpCdj5XILuHDhkTuw5BMJjE9PY1t27Zh7969gswejweRSESociwWE9ej0aggKxOXG6u2XC4XHQMTuqKiAgsWLMCSJUtEB1BfXy+OkyDhw8QnmtxMxh07dmDPrp1E5AG4PV74fEGEwwF6MAkZ0sjnMqTiGcTiKXj8EYSjSVjNepywthn+YBRDI25Mu0NIpjLinEx6Vm2j0QibzQan0wm7zYKSkjIsJrKvX78ejY2N4lgJEj5IfOLIzXFzf38/9uzZTbHzFLq6ujA6PIB8OoQSuwblxSY4rHpYTBrotCooFXLy60A6k4U/FMfoVBCeQILU2UHKXItoLAVfIEqXCcTDccT9Qbg8IQxNBjE8E0Ymm4dKqYDZYhUK3tHRgdraWrS0tAhlZxsvWXYJHwQ+EeTmj8gxdF9fDyn0sLDdTz/9tLDdTKsSInRznROLmkrR0VSCcqcRDpsedrMOJr2KTyDOwwRncu8/5MKMN44LLlgNu9OKLJ0lmUgj7A8jMuXC2NAUdu4bw5b94xicDEFBHUQwkkIsmRX2XafTYc2aNdi0aZOI16uqqoSV51ifk3HcJEg4Wsx7cjOpOU7mWPqmm/4DW17ahhmXhyx5TjxusxmwZnkDysusFFenSWmzMOg0aG8sxsqOMrTW2Mmik+Xmr+mwr4qvyoiEeZ0eeY0OxEj25PRADkqfG6Hxaew+OIbbnzoAu0mHV3o8GJwK0/PI7NNrZ0nRlRSfL168GBdeeCF1FOcjFArDYDDAYrFAr9fPvpIECUeGeU/u7u5uPPDAAyLDHfD7kUgmXiM22+HqqiKsXl6PpYtqsKC+GJUVdlJXGRLxNExGsuklFkFuGT1PlkpwoC6e+xpIifNqDaA10KVa3CXLpCHzeeHpH8YTrwxh4+JKPLqjC3sOuZFMq7B/KIAJT5xITpadCG61mFFfXYqyqnroDSaRgWfCS5BwNJi35Obhq7/97W+i7d69GyMjI6SaeUHoMqcJy9rKsHZJFRqri1BMty0WA0xmPXR6rVDhTE4GuVoFDak4yTGRmjqELJE2mSSSJ+kFDiM5E1xFxGYVVxWy4vJoBDnXDDwTMyix6DEZm8GEL4hIiGx3RouHXx7Bc50TGJmJiM5Eq1HT041i2Oyss87Cddddh7q6OnEuCRKOBPOO3PxxeEjrvvvuE23Xrl3wk2KzYy4vNmNJcymWtZdjMV221jtht+oKSTM+gFpeRteJrIVGVptani23QknX6RjqNISKJ+Pi+mtWnZ4nlFtHCq5UQUZqrwgFoZyZFA/n9RHEZVGk6GnGjAOd/V48vWscT+0aIyX3QaUgt5DKIUfna29vx6mnniouTzvtNGHTGcFgEK+88gqGh4dRVlYmHpc6AAlvh3lHbiby1q1b8aMf/Qi9vb0Uc6dg1KtRV2ETSn3q+kYsaiqBxUQK/XZgos+BScvkJsJyE9f5brLoTHKh6Kzss8hrSb1JwbkzkMei0IwPFToAXQwwhKiDIMX3llDHoMDQVIQUfBiP7BiBWqvCvj4XUukcPVVFKm5CZWUlbr75ZjQ1NWFmZgZbtmwRIcaBAwdEQu6SSy7BKaecMvvKEiS8EfOK3DzMxePWX/7yl0XxiQw5QeKOxmJ8/vxlOH55DUyGw4pJZkmczeWRzuSQoUZX6Vn0TPpacnQjz9VpdCmT5aEgNZdzwYpOBwXZdTWptzJHVv3wr5DVn+w1k1xOHYuayC3LZAB1lCQ7AGhIugPFQMJALyTHiCuMrskwciY9fn7rForJ80gkcxibCiORzuI3v/kNVqxYgaeeego3/uQnCAR8YnjtvPPOw+c//3lRJCNBwlthXpGbh7d+/vOfC+XmApUWst3nbmzBeae0oaLYBLVaQc66YL85rs4rWI2VmHRH0D3oQ+9gAB5fEqFIEj5/CMFAEOFIFIl4AiaTEUV2E0qdFlSWmlBdqkNrgwNVDj0MmoKazyGvovOSPZeR6qsmRyHnGF1J5DZ5AW0YiNmAkIN6FaXImiep00haLXjoiX1obCxFNqPEI4/34n/+tl1UuvEwWTAQwOjgIThtWorTw/jBDT/EZZddJmXVJbwt5g25Dx06hDvuuAN/+MMfEA6HcPqGRpx9QjNWLaoUsbZKoxaxMJOZLXM6L0MwnMaEO4csbNAaS8kK20i9uRilD8m4VwyjpdIyxOIZcgJ+eLx+uN1BTE/7qXmgpc7CbtGS5bcKd7CwuYRIb6FOREnKrYOMOg+Vawpyjs+VEVJuD6An9U6aKH6oADKF7HperULOboNrzA2jw0quQY2Xto7g7//9r+J9atRarKjWYUWVCrsmM3BnzPjWv35PJN6kAhgJb4d5Q+7bbrsVf/zjH9HXc1DE1F+8cAXWLKtFkcNcSIaJVkiOyZQG5GRWRIhkgbACSrUFVlsxLBYTZDmyyGkXhclkt2V0fF6OFCmv1z0Kr2cGLrcHU9NeTExMYWTMg4lJH6KROAxqOWoprm+qLUJbgxPFJTZBzKm+USyuNKLYmYXG7oXM4APSZMk9dURuDhGInKz0TjvZdVJ1I703hRY93R58+8bHsaNvDAaVAheusOH4Zh3+42kfmpaegKu//A8i7pYg4e2g+D+E2evHJLhv4iTan/70J2x56UVRPvrlS9bgpA3NsDmthQITbpzJVqghU1mg0JRDqauH1tQEZ0kN7PZi6HQUI7MIEqnlSjvF1mV0ODVVEVREfpPJhOLiEtTV1WBh+wKsWtmOhvpKsurUedDzXN4w9vXNYG/PFKY8EUzMhHCgdwovvDIEi55nh2Wg1sWg1sfocDlZc7bl5Cb4yXIlZFot8pEEvT8iPJM9Te8lIMOugXE02DXY2GKAzZTFrVv8OOmU0ygOXylmokmQ8HaYF+TmcewnnngCY6MjaFlQiq/+3cnQWq2QszVmogjrKiebrCdSN0JBTU6k5dEukk86CTdmU5aO5eP5ATI0eR7LzonhMLnSTI2eo6TzquxE1FpS5yoiei3WrWrAovZyOlaG8Uk/9vdNY0fnGPYR0QMUv3NiLpWO0/NiMBrTUHNoECmmlyMi5+i1ZERuHiePJiFTa8R1ZU4Ba1KPh3d1YUlpHhsaNUjSe7x7RxibNp0qYnGejcZJRLbm0hxyCW/GvCA3L6DASbSR0VFRvOJy+UltVTBzUYqO1JqUkcmp0rfTdRXx2I1sYpBaH7LxPmTiPcjGeun2IeTifP8QsqkxsudTdCxZ9IwfuWwIuUwAObo/y8fTMQWVt5IaV6O4rAkrlrVjw6oK6LUyeHxhTLvDiCXSGHdHkU4l4PfFMD0TR1WZCfloMeQ5DbkFBZF7tsWpM+FqN+qQYtEs+g568PT+Xqwoz6OtTI7JaBoPd8awfPlyhMNhkUB85JFHhKvg2WdMdgkS5jAvYm625TzTy+fzEVlyRMYY9uzZBq9rBJXlJqxb10EK21Y4mAjJ8XThkhV7bpx67mtgJZ1VeqHgTLy5S7rI8fOSdIUPI5WVa+kKKTEhn0siEQ9QZ+PF3oOj2PxCFx56bBepdh52kwIc/jdWqnHxaeWwK5qxoLQEDpuRTs3nppMniNx826iFeyaGR+47iNtf2olzW1I4rkWJg/40vnqHXwyN8WgAF7VwEcsvf/lLQW4uZZUgYQ7HvHIzeJYVDxfxPOna2no4isuJdHoSQyNm3CF0dw+QfU0QkXj6JREzE4UsGYI8HoQsHiq0RITu4/upcQ15ho7LpojIKXoF7gS45JQadwxznQF3ELk4tahofIxSIYPVqkeZTYNyUx5WdRoufxyeUBq+cAbhGBCJyqBXWlBhs8Jq1Bc6jxSdL0cE1xaUOxCI44Vt/fAQgduKM3S+HGZiWTy+Ny5Um5d6YjKvXLlSjHlLtlzCmzEvyH045qZU1tc3YEFTK7J5Bfbu66G4vBN2mx42nQyGbBTysAfykAvyCF1yi3ohj/mJ6ET4ZLhAcoqTZURyWSYlmqgt55bLzhauzKn9HJig9Fg6AV02gnJtAh3VOmHNfcEEkTuNYIzCCG8GDSVFaC4vgsNUKGYRCTQKHwS5lSr4qEN4fushUv0omp1JOC0ZIncOT+5PifJaVm6Ou7k8laeNSsSW8Gaw35y34LXMzjjjbPzjtd+EPyTDn/68Hfu37UJ2ogdyVy9k/kEgSLEztwBdDwzQff2QeXvp8S7Ip/ZDMb4PypHdUIztg2KqBwrPMOSBScgi3BmQ4guljxGhqdGlPBagc0wg7xlDPuyDiZzy332qAactt6HUKkM2l4MvkhSVaeFohsSfSEmqnSOCZ8j65/L0JyEFz2XyiCZSMKhzUCt4imhWlKYyh/VqmahF51i7pKRk9tNKkPBGzDvlfjNY0ZjkK1aswf0PPo6Y3w2HYhplsj4gPklxrgtIuolgXrr0FK7zffEZIDZFjYjKxyVdpOoeaqTuCbb01MKk/KEZyINTRHhqdKmg+xJBH6Zmgjg4FMCefh96BiagzAZI1NMY9+WRIuIGIgksri6luLuIXIAC4XgaU0R6pVYNrVoNjy+Kp7d0w6yJo95OSi3LYf+MHAcmcjhzsU6cQ2MuwaJFi9DWNptPkCDhMMyLhNr/Bv6IPGT03W9/G117XsKmlhz+4XQnFLkIEXmMrDZdimEvxlvYW46JOZvNs8Q4eSZXIws1JsM6jAeVmAzI4A7liaA5uIJpuANJBKO8emoOWlWe9DiJSCyFSX8WE/48MpwUVypw4Zo2XH7cYjSVObG5awiOMhtaGytRUmRG79AM/r+b/oo6ewzH1YXhS+bxzCDZAPosNU4ZXuxNIG9uxGc/+1l8/etfn32jEiS8jnmv3Iy5cWBegXRX5wHE/ZNYSLGw2ahCXlWGvKaWWhUxrpRuO6kVFZqSLx3IK+zUbMjLLBRVG6npyT5rySZrKAxXkLUmtqYSSMfZogdhVARRYQqjyRlHa0kCCyhmrrFn4TTloaR+YsLP9jyPCMXiJq1WtLu37ceK9gZUOu3QKFRiHbbHtu9FuSWJMlMSw74suslQXLgsKyrfDs1k4KE+qaioCGeeeebsJ5Ug4XXMW3LzMsSMufXImODl5eV4edt2zAx2ocqYQb2TJbQIICKDiJwTZC4hUlfQZRW1mkJTc6MOQFk9e72Gjq+GTl+OIrLGlfYi1DhsqLBZ0F5hxtp6M45v0mNDoxIranNYVpvGirosWsrypNh57B6Rka2WwU/WnJdcYpK/0DOCU5a1ENF1oqYmGIjiqZ37UGXhjH0O/RQ1RKkTuWptHK6YAgcncxj3pmG1WsWqLfz5pKSahMMxL8nNNnxgYEBcslrPEZxXOdmyeTPGDk3CrrZjWWkaitReyJNdkCXHgXQM+RwdmzchB1JsENlBqi0nNZcX07dFyq4sp1Y5S3TuAGoBbSMUhhYYTW0w6jugVbRAnqNjsiZ6D0y6OL16iix6lq7nsGdEAV+U11IjFfeF0DkyBSW9RwO910QyCw3F4PlYBs/t7UGJMYVutwIzURWaS/M4qTmGiYgce0fzGPNkxPLJ55xzjvicPFIgQcIc5iW555ZYGh0dFVVbxcVEzFlsfuYZDPT0oEhjxaqS45BNEWGJ0DIEIMcY5OkhyFMHifC7oEh0Eum7IE8cgiw2UkiuxWaQj/iRiyeRJ8VFOk0k5rQFl7eqKCSnptEDGrbxJchEK5BJVCFBx+0YjOK2rTlsOaQg5S68HwaXpyZSaRwgki+rr8byykpEPTG81D1E4X4SB6fjcJhiuGhZHJVFGTzZo0XnKOCPFjov3tKIl03mIUAJEuYwL7t6Vmze2ufee+8VNeecTJtDMpNGKBFHIE52N6NDNl6JVGA5ku6TkHAdR9ebiJBEzFSeHg9AlpmELN0PeWYfFJmXqW2GMvMYVOl7oEz+GYr4Q5CFnwN8e5DzjCMXDtHzSJJ5korWCrmNFb6OzrEW9ealOKXVigYnJ9Rm3xCBuwbiNyrsVlTZ7DBDjXQgiRRZ9lfHUggl5aiwKtFAfZRSpUbPJBCKy6BSykRBCy/VzLugMLi45dVXX4XX6xXDZxI+uZi3Po4JPTg4iJdeegkvvviiIHzXft6IYBzBRALhdIoCcSJWRoNsoogIXYN0qAVp/0KkvMuI6Mvhm2rFwLATew6pMTqTRiwRgizngSw/RZcjZL37IcuSymd2k+JvJ8V/HrLofuSDk8gLssnE5BW50QE5xexFujasqmjGlevUqLTJoSpECwIcLi+prUYynkb/8Ax8/gipewbT4QzqHMDSagWRmYjt0qLYpCCiK0nNFSK30ENOhAtb9u3bh7/85S/485//LNZk53XQJXxyMW/JzarFjXcUeeyxx8SP/7FHHkJvXx8SRJqkLEuqqgJUzHAmuZzUWo9stAwZfxNSnsWITi+Bb6IdU6NNRLgKdA5YsH9UT3EyHZfXkNrKqNNI0KsR4eUDFPPuJrLvIuveSwo+jRwRnJdpkvOSSwYL2fZKFKla8OlFJVhdp4bd+HoCjCJzGDVaHByawJ6+EcQTKYSJnAaNHKtrZVhSJUdWpkG/W4MTWlRY1aAS5OYFJdil8PpqTGpesII7MyY9hycSPrmYt+Rmm8o/fI/bLRSNlezBR57C4PAoEZLITKRR1BuI4GSf1bNfA3OB/LFYMy0rh1VmRYu2EetMy5BxteKJLeW47Wkbnu40YSqgQjSpQSarofNxU1Oj2F0xTiTvJv8/gJzfg3w8IQgu4/niOgvkeTu0mXac0WFGveN16eY12/YMjODAwBjCoSj0ciV8iRhay7VYXEVKb1dBr1HDoVcQ2RUoM/PEFpnYiZQnzHzvu9/FbbfcgsH+frFXWUNDgzRL7BOOeRtzj4+PIxFna5wXGxNcccUV6DvUT2TIisd57TLeBkhRq4eSmtyqovtZwel/nCDjIFhc0pdECr3MXoLPL1iCZcYGPLMHuPq3aTzWqYIrRLZeqDg3tWhQ+iBXjtFzZ5D1EMGpkxHarNFQHF6EXKwGi8ttKDarhB1n8HvqmZpGh7kI7RYHxkMhmDRKfH61Astq1VCpNSKbvrJWi33jSjxzMEWxd2F2Gj9XkSb7rrei2mQTSTbeg4xHByR8cjHvyM1b7fL0T5fLhSUVSqwidc5mkkK52Zoz1DIFdHklokHePogIbFJCXqmDsq5AcuIhEZtIwyo+S3Q1fVV2lRariypxXmUHSmRO/GlrFL/enMD2fhlZ4DkF56ZEXk7xORE8l4wX1JsUVkYxs0xnpPPqoKfnq/B6dpsXblzrLMdSWzF0yhyUei++dYYBi4nMJr0G/rgKL9Lr/ODRJH76VBR7RlLQyTX0nCp8v209fti8HheULUCTzSnWOZdmiUmYd+Tm9b15kUQ3k7tSi+MWWFBp1YvkEiscw0CW15ZRIT4UQcyXEhMy8lo55EVEYbLBijItZBTPymY3IZhTcBk1p1qHlfZSnFvRBHnMhK09aTywO4EtA7xJP6n3bMvzvHImuCyIfJIcBGfQeRxaRWpNnUQ8YUY6w1aek2kyaBVKbKysQG1JFianG/W1Maxq1GAyrMADnWn8zwsx3LYlikc649gznEKJwoZzicyfq2rFacV12GCvgIrOE8llxFRQTihKMfcnG/OG3Bx37t+/H08++aRILCmycTQU67Gw3IxGh2n2qAIspKCVpJq5fiL3cBQxdxKpaIY4TLE2KbecyK0o0YiEm0zLcbFMqLiIyYnoFrkaJ5BinlpSC1lCg809USJ4DFMhBVJZtuYFi84Eh8qHfIrUO1sIB7hOXabVYTqoQDRRUFY1kb7cYEBbuQYqqx9BjQuedJQ6jCTu3x3H716M4A8vhfH0gSj8kQwWGOw4q6wBF1c245SiKvF5UvksesJeHAp5hUPhfMNcZybhk4ljltycCeeMMI/n8jJLPOT1s5/9DD/84Q8RCYewvNaMCqsRZpUOxbwDyGEoIpvbaDJC7Uki2xVEfDCCyEwSsSARPEWEVMggd2qgqCabXq6DTD9rcUUcTiegpqQ4/OySRoqRnQhHcmTNI3iqK4kg2efXyE1fb14RJkvOhS50XqHS9JVrdOin1/bHCpUsRlLaZcUOJE1uDCT8eKQ7jBse8+Mbd8/gz9sCODQZRzKVpU5AgVKtAX9XvxifIdVu1BW2GWIKD8dCGI0G4Q4Fxa6mvJ65VLH2ycYx+9fnLXkffvhhXHPNNTj77LPFzKhHH31ULD3EM64uWFpMys3WV4d04vWtg5ijJaTIHRTLaikuVSfITg9EkOwOIjYRQ5BsepzUMSNITv8VqaBsMkJeQVadVZzjcEFyUnBSzCWWYjQZ7ZgJpvDb56fgDrOTJ/Uma56l2Dsr59VaqDfg5zAL+Q2oVdg7HYArysNogE4txwLqRO7s9OP/PjaO27dNY9qXRAvF3+eQOtcZraI8tdXiwM8WnSwsuFWpEc9lZPM53D7Rg66wT1SpcUkqJ9OkmPuTjWOG3Dzkw0kyXpv8a1/7Gq699lqxuwhXZ3GyjBU8Ho+hzKzBdZsWoKnEBhX0CEfV8EZfzxqX28yoqTDB6CSeET+0SjnUrMbeFNJE8tRgWMThsVAGqWRBbaEkJberoajUQe7gBRfpPrqfDDaaTXY0EPkypMzucArdU2n4orze+ezwmJgqyq/Mz+GOAWJWV9eMj95Xgdwxisf3+0LYPeZHgFzACkslvlG/AldVtmOICMurL32qfAG+0bAcTQYr/GlS/XQCKeo0wtk0tgemsT/gQiCVEHO7udZcgoSPBbk58dPZ2SmSYW+OE3nPL7bc//3f/42bbrpJrE/+4IMP4vnnnxcb4gUCAUF81qgFpNTnLa3BaW2VsGqNiAbUmHLnMDVLIhayheUVaKsoh9xAH70oxVWipOBEcCKdLJhGdiKO1GgUCbLN8XAGSV60kIgrI4LLOKvuVBPBqVfgsXE6X6XOiHJ6LQYT/MBkAu4I7zU2a815aIztMb9B+mjxFHcAk5gMhUUxDd8dS2exb8qPGpUN55c24byyRtQTiWdS1FnR+c8sqcd5pY2o0ZsFkb1EbM4PpOh7G4oGcPd4NyZjYVRUV+GEE07AcccdJ96PhE82PnJyh0IhUVF19913i105OZbmZBATffv27XjooYdw6623CpXmTfF27twpkmeH100r5DLUO804rb0a5y6pQ7HRTLGzBu5pFUanEkRuryB2jdOGpVU1qLGVIy0n61ycAvR5KNUyaEjBVUS1PFnyLMW46ekEEl4iuLDos0NidA6ZgQherBFDZjJ6jlmlgYUabxLI/dKAiKVft+ZMcsj5zPRV0+OBaBRPH9hHx8ToMYrK6XlG6mFqZBZ8ejb7vc5eDiXdHySFPq2kDqcX18KkJCsf8mAgHoSGYm812fSxRBhPu0fwvGsUJmcRNm3aJFp1dfXsNyPhk4yPlNysuFwX/Y1vfEMMXzG5mey8UT7vavmtb30L//Iv/4L7/vpXeN0useGeTa+EVlWozmLw+LDTqMcFyxpJtRegxEwWOaOBb1qNsSkFRn0x+ONe6LUanLu6A+1VlVDITEjk9MgZicxFdB5tYU0yHZ2XL5HKIjcdR4YIniR7HmXCp0naZ8e8ZSpZYbhMr4CCVZ+IyISjRxGMZZBIMdELY96FohYmuJzi/ywm/X480rkb4URhMgt3DiuJzDe0HYeznLUoVesFkZeYHfjH6kVYanJiIhnF31xD2OKbFMfU6y0IZ9J4YmYYfxztojBBLvbzvvzyy7F27VpxXgkSPlJy85xrHrrizeR5HJqJff/99+NLX/oSvvOd74i6cC5KUSoVqCjS4+I1pbjh/CqsrDOI57Nim7RqXLNxGU5pbYDdYEY6pYZvRomJQQW63GmM0XnNRP4Tli/GGauWo6a4SBAunjIhk9Mi7SBVNtPJSIX5fEaVEioiCxM5708iMxlDMk7qTfF3bpbgInJgFbfxNkAcefOcbfGWBPLkAfg1hC0nBedxbd53bNTjxku93Rj3eojoGaH2JxRV4lsUSzvoGCUF8+LcFJOz5e6N+vHd3m24beygGF//Wt0SFNOlOxnDb4f34c/jPSKZxmvEXXnllWIzfgkS5vCRkpvLQl987imsaSiCXq0Q1vy3v/2tIDVvNKClOPf4FgeuP60W//7pely4zImdw0kMe9OCiLVFNnx14xqsrKkhRbcgGdXANabE+CEl/GEF+oKTiCsTOK6jDV88cS3KnaXQaskiE9FSaT1SGT2ybM8dpK42ntNd6DCEgvM3kyYih9PIkdVO8jg4F7uwenOJKim4nLPnpOIZ5JCkMIGfb9bq6LnaWeXWElENkCk0iJNq7x0dwWP79lCnQuehY5sNpWjWlZFTUMITTcMXo5ZKYltwGj8d7sRN/a+iUm/CxeVNONVBVpt6kMe9o/jxoVeEFQ9R7K1Sq1FVVSUy5NKmBBIOx0dGbrfbjUOH+hD1TOLiFTWw6tXo6+sTNl1JdFnfVIzzl1fiM9TOaC/Fwgorokk5Xh2OwB1Ko8HhwFkL23FicxOK9DbEQ1q4xlVwUwsHVehJhiEv0mJ1Wx3F4R1ora6BRmsmG83xrwLpLKk2z+cmEmZ1KuQ5hjYWsuqs3Cqy28Rz5FOk2FzFNktuYc1ZvbkR2WKyLKL0fpmwrN4VVguFDwYRbzO55XLeKFCJPSPDeL67C4Mul3gNrUKLJq0DFQoLQqkMXKkYnvOP4c6Jbjw2MwR/JonllmJsIlI3GqwYigXxp7Eu3EtqPZlLQEadoUqpFOPZHR0dYrKIBAmH4yMjN8/UGj7Ui2qrHsurndCTHWblsxu0WEq3P7WkBheuqMX6+mIUG01wheR4sNOPCV+CYmxeo2wBTmvroJiVSB/QwE2K7R5XIhhSIaJTIlWhw5JFTThryWKh7HKdlWSZ7TFPEFEhm1Ujk9UJEmbkdNugEsNdzGgmqZrIrWJ2E4lzTGxqObLmQrlFozdLl550HJ5MQigx2/NGhxNW6kREIk2mg0Jlpjg7IJJoLw8cEnO0+bgSrQU2suKBTAw7Q1Ok1uPYFp7EAd4ggc622lqK00rqkaZOYzvF2n+d7sdj3hGE80ksLS9GhdkEBdl4riPnDLnBUAhVJEiYw0dCbo6tN2/ejOn+HiyuKsOQN4Mkr8NNBF9a48RFKxegvcwBp8FEBNMjnlZj0J3CX3aO0XGg+LoNp7YuQpG2CJGACmO9ClJtJZIJIpRRi2idBptOW4ezly1Cq6OEYl4jFKR++ZwSuaySyM3xMBGaM9p0XVzyLpsWXj2FvhIitZLanHpzFJ2juDubzCKXOZzgeYxGQxiPh6lDoOcoFETuUliIuIVkmoZiZxUep45sS18PpgJ+8fm586jWmRCkkOG5+DDucO3HPZPd0NDzL65swRerF5Jdt+Bxzwh+QBb8V4Od6KH4u8NZgis62rGu0gadIotEOiVWPz3jjDPEBgUSJByOD53cPIT161//WiTStNkUmkqKsbnPgwhZ01X15TihuQ7lFhv90PWC2BQBo3cmhSd7eNmgHE5qbseGhnY4NaVwTyjRv1eOMBE8m9HAWGJF20nNuOiKT6GjogK6LJeY0XkcFNfKiMCpPDIZpSAzqzcPV+V5uEpUkxHJiVzyIuogOGNOUBALmeBClsmeJ+JpJLh3YWLPknwwEMBIiKvilKhyOsmSm6lD0NFTtAjT673Q24u7d2xDv2tGnJNVW06KO5TwwJ0Oo81sx782rcbvl5yKE+wV2BGcwT93b8E1nc/g9uH9kCu1OK2+BVe0d+DU6nLqOJQIyDKI53PQk1rz+nBM7LlFICVImMOHSm5esPB73/se7rvvPkxNTsKk5hJQHXaNuGClH+pCnhVV5CQF1MGgNgpip8k+97ui2D3kRo29mBR7OZzKCngotp4ZZbVWQ2vSorzFgro1FShfUksE0yLjChEBFVBaiqAiAuXyFGfHc0glKKLPaujcpOBg5Z4dssoS2ek+mYEXXCi8X1ZtVnBGlsg8SY5jJhQpxNvUeLufwaAPE6TeNr0BZ7QthYksOZ9vIhAlxT6I3zz3NMZ9XnrNLFl9FdqtxfhJ+/G4sqodjXobRmNR3D1+CD/s3YFbBvdim2caKbkaHaW1uKC5A2fX12GxswglBh3sJjWqK3U44PZhJhJDbW0tNmzYINWQS3hLfCi/Cq4642oyLkZhYvPaZloijc1gITVWYdQbwNKqKiwoLiViGolQOlJurvrSYdibQvd0EGki6pkda1CmrkHMa4DfTRZbpkVpix0ltUaUtjpR1FgCtV6HxGQQqUCSrLgFKmsRSTAROCtHJppDPK6iuJcsODGY1VtYdGHPefiKiU1kZrWm98dj6KzeLNyeRJwIFUE4kRDKzXt5HfS4MRKm16LP5zRZsb6uHRqlEfsmpvHw3r14ZN8edE2Mi5VPGdxNxInk3WEv+iNBInYMk8kUZnJ5hJVqFFEn1OYsw6qySqymtoi+jwV2C8ptOpQ6NSgp0UBnlKHP5UMwkUFzczPWrVsn5q/z8kq8le+dd96JPXv2iNeT8MnGh0LuQ4cOifHr22+/XazOyRVopWS9iww2+uHLIcvLROWY02innoBUNa8lIujJMmvROe7DiDeO+qIqbKhejYTXhIBbRQTUwVFjRnmrDY5aK4wVDiiNRqTDKURGfZApdVBa7ZDrjEREGTKJHDJxXjixQG65nBN4s+SmlqfYmIu4eVJInLPfpOMcG8uFcufRS4R0J6Kk8AU7zgUpL4yNYCwcQpHRgpbSOlJvOw5OTOFhIvWj+3dj//io6BgUMiUprx0N9nLYzFbsIjs+JifCGzWoKXZiTU09zmzpwHntC/Gp1macUF+BtnILiu1aOChMKHZqUVaqhcmqxCFfGJPkCiz2IpSVlYmJMn+55x78/ubf4I+/vBl3/8/v8cBf7hU193MbM0j4ZOID3yuMf3w/+clPxKqcPJOLE0/8kmcuXIaT6QfN+1nfvetlfG7VWlh5mqIsD6NKTXG3maxsBjc+8zSGPTGcULsOy82r4JvKQKWRoXSBHqXNBjGdUqXXQEvxtkLHSwLHEOojy99AKm4zEMkVyJJ9TrpDiE74MT4jp5ibXIMxI3b/UKuywn6r8zHoM17Ik36MDLpgp3DASvaYlxd2xRL49dge1DttOKGyBg1mG9zxGP7xhcdwKOjHito2nLN4A8XnSvz3iw/R+52k5xVWHuX4usRYhBNrF2FJeRUpPG8fpKbXzVOcnKfvg1uOOoAcdSTUocjz9J3koFICGk2e13YQ91PPg2FfCL94fj929E9i/QkniR1Uent6sHP7y2ICS63eLIpfxnMJyEsduPnXvxYTSaTx708mPlDl5vJSnuzxyCOPiHFtrsgy8kqgdMkqrVLqEU7msaK6CVqys+P+CHyRNMwaKzI5DQY8EXgiCRRry9BmWgbXGM+w0sBZZ4ajzkJXKSaPkDIaTHS/CulgWtSDy7VGIjoRn2Jo5hgrdsKfRijCw188zs3j2Ty7i5Qbhay2jAifTMRwcHoGh/w+hFOFJZniuQy6I17s8k8JX12k1sFDinhvfx9miOBmg1lY7YcPvIIfPHorBj3jSGcLNlwh53JZM647eRMuP3451i2sREt9EaoqDCgr0aPYoaOmFa2oSAs7KbXNqobFrIbBoBSVeYUyWzmRVo5pciVbe8eg1OhFp8mTbXo692GJtQT/3LQKJzmqsYbcwVn2aowNDuHWP/wBBw8eFO9FwicPHxi5eTYXV5w9/fTTYundKlspTmhZATtZWCX96K06K8XVBiSJB03FtaR6BnijSYpps3TdRLG4Bi8Pj0CntKFC0yjsOMfGRRV6WEqIvGotskmKm2W6QrycViAVySEdJUqbeZyZFDslo2OY3Hl6jPfm4riaScPkZpJTLE6dCHJ0m2y2O+jFnQf2IpkiN0CKm8xlMRgN4PbxA/RNkVugTkMFBQYCATwy0oNgMoFQPIKBmVGy4L3wx8LCbeTpn0VvwJrGZvzrGZ/G0upacgoGMdSnUnA9uoI6uLlLHm6jxpfUuEMQCzpQ40s5dSZy6iAOBVJ47MAYhTE5tHe0C3L7RsawnFzB1xqXoYTCDx5vT1Bn1GK04aKSBuzc/CL+67/+Szinv/71ryI2n1tHTsL8xwdCbh7H3rt3r4ixea61VWPCSrKla+uWIZPn/bK4xNMEg9oGvdoMs9ZOaqdEKJFGTIienqyzBgcnJ2CUl6FU3YRUUgOjXQezw0A2nItPVEReHurSUkytQCYpQzpOsXVaKTYCyNJ9Wb6Pws4Eb68bliOWYMIQuck+i6mYpN6c2VYQIaf9Lrw43I+dU5OwkDsgimF/0I0Hp/pxIOzGkqISsTjDPs8MHh05hJFwgNQ0S51TCsF4GEEiNoM/W1NpJc7oWIELlqzF6romWIh4CnpNsd2Qms6t1RY2KxBND5mGblMoIhZQpE5LrjdCabJBZSuGnIgaoM+5d8yHHQMT9Ap5ckEe+F1uVFPndE5ZIxqNVmTpfh5vD6WTwp6fUVyHqNuLF55/QSw7NTezjp3UXXfdJRKch8+skzD/cNTk5oX4eE71HHhuNifQeKrmjh07kEllsLiqA+vqV6PKUoVQLCLUSaXQwUjkLtIXE420cEdiopBFTtczFO9GSGB8kTj06VJYUAmlimxrmV5kw5mUWSIxt8J1BdIJIjYpeY6ey0Nc2aS8QPgovUcidyBKZM+SUhK5FTIi0SyxkVMgEJrBztEuPDM0AD09riMi9kX8eGR6EE/ODCFN8a6FSNkT8OKBoR48MzFIDuCNqQouYHGYrFhWvQBntq/CuYvXYl1dG7kUIjWrMF3KNURsUnSlyULEpbCkyAm1swSa0gpoyirFpbqkHGpHGVT2EsgtTmTI0ewd8+CVQ6OY8gVEvmLgUB8U0QSWWYux2laGIIUBM8mY2EWFq9acar0oWV3Gq8TINDC4gxjdtQ/33XU3/uunPxVZdSY4z4nnGXjSziTzE0e9ESBbbh7a4skLDLaLDzzwgChUYaJX2Ctw/uJzsLJqBWbCfjy870kYKR5eW7caNfY6IpuKSJ3D3okeIqUM1bZK2HUOjPnd6JocR0luIRzKOhjMKpRU66FQcoaJlJdi0FyW+iYevuKEEd3O8ihVmiJqA49by0jRieCxPCKBDFwUc3OnolWrqGMhc03nUPAEkmQA2/tfwBN92zFMndSJzmoxO+v+yUN41j2CGBGHVyYdiwSxZWYcBwNuJEjp58Dn1Kk0KDbbsbK+DV9afxZW1zRRrG2i98YGnToBupSRJVdoNVBS56Qw6qGymKG226BxOqEtK4O2oppIXUwhhZU6AT09RY4EEXh62ou7XtyO57t6qdPj5J8MRh4vNzmw2l6GWoMF3kwSewIz4n01k9K3moo4ikC5zoSN9HmWU0xuI3eQllF4kk5jesaFV17dia3btokQhRNzRiO7C6kQZj7hqJWbFyfkOvE53HvvvYLcPNzFJPrMkguxoLiDlI7sM1npXD4Hk9ZESse10JwdN9B9aoz5XIKsOqUFURKSrpkxlOmaYFaVQqPTwVREP3hWZGHHqaW5Ko1uZ+iSFDtD1pXHzDkuz8TpdoKz5KzerPAqIoacXlNFH5gzx2zJ+flZPLXvXtx/cDMOelxEahk8pIC/HtyDl32Tgiy84kk0k4Y7EUM8c9jWnLMoszlx9qIT8M+nfAGfX34WbCobuRkgHEkjxMNykQwiMR5fz1O8S+QSVXIc4lPnwy0no/dB9yV4ckoS8SDF8b44gp4I4l4f7n5pCzqHhsn+U+dE789AnZuRGq//xiFAIcIHOimsqNQYscjsFO+Ll2zbS2EF5w0Wmh24tLIFN7Yej592nIjzKhegRGsQGzewiv/bv/0bdu3aJZ4nYf7gqMnNa5excrNdZDvOVpznaVt0VpzSegZqi1qgVdrox8wKzZlfQKOkuJJLNMkWM7E5IeaNBsV+1Qoie4xI0O8ehzFXBa2crKteS8o9ezwTmolNLUfEzhDRBYETSnGbyZ2Kyin+ZqvO2XIV8vTarITsEpjYyXQGQ65e/GHLz/BI7zYMBTyCyP5UAq+SArqI4EyKOePNn41Jzv84XneSSq9fsALXnvA5XHfCZTiXyM1xtoPstkGngU6rgl6rhl6nhlYMe/GcbzpHMk3vLUFhQgJRP9lobxRhF8XJUwGEJzyITEwjPjWBnGsc4alhbN6/F9v7DsEVConlnD5T2Ywftx+P9UUViGRTmIxHRGcZJuWOZFJwaHRiddQ5cAzOHROvmspqX0TxfIvJjssqWnFd/VKcWVKLEDmtbVu34ne/+51IfkqYPzgqcnO8zUNcPH7NFpz3xObhmXQygzJrFcXZm2DWltAPWy/i6AzXehM0KlZsToqxmnNTI0zKmCV15ZLTJNnpKSKcJlMGvdoONSk3Z8dFR0DHCrV+jeBqIrFKEFnE29QBpONEeLqdJtJn6Jg8xZ1q6lBYLUd9g9jS/xT+tv+v2DzwEoaCLsSIABxDJ4jQvBBChlcxJLDl1qsNKDaWoqW4FcfXb8C57afjwiVnE6FPwcaW1Vhe3UahRCl09P6UCnIHSsXrjay4kpdvIuurpH5NTucn+UY+EkWO137zuJGenkR6cgzJiVFxPUcOxu+axJ6BQ3hg5x5MegNYbHTgoopmXFC+AMcXVYpll6p1ZqHk/L5jvPADXddTxzO3IkyaXotDirnPMgfOJzSQlefznF+2AJ8pb0IuEsNLL74kVo893IVJOLZxVORm1eaKMx724rpx/nHwqioOYxnay1ah0tpCP2oewuLFC3jtcJ5zzLOnuLabh7Dm1FuDZCpFyp0TtjudUSJMHYcm5yAltBC56fmz49Gi8USPLDe26dSSrN4FFWeCi+vciOTJpAyRZAKe+AQOTO/CSwOP4/Gu+/Bc/zNwxSL0/BwpmxIG6nBsWjtKjOWottSj0dqKFvtCdDiWYlnpSqytWI+NtRtxKnVYJ1QdhwXmBVDTZ+JcVCpNqkwc4nSgGAynxvkDvuS10wrDXXSNiKgg0inIIchJdeVhP0CdGLGZLl2QRfwIBnzYOzqGJw70Ys/wBJr0NiJ1E84nYi8my81rqy2jGPpERxXF13YxZMeqzOrMYLJzFn+aOqliit3Zwr8VrCqNiMWvqukQTiATCImFKPlvKG1oMD9wVOTmZBo3XsyQs+N8nSdYLHAuwnH1nyYSkrqKphGxtUpuEj95XkaoMCtrjrBESFYaYkqC4k8mfD5HyiczQ6c3Qq3lzoFV+c2tMOmDY+9MkhqRO02xdyKZQzCcgDcYwrh3CgemOvHMwD2449Uf46neBzEWHKfQQA+L1gqHwUlkrkSbowUrK1ZjY/3p+HTLZ3Fpx9W4vP3LuLDpMpxSfQbaLIthyBUhHMxjbDKMgWE/hkeDmJqOwh+gWDmWpU6J42mOo/lrpUaf83Ciz7W3vE3Hxihc2Ds+hYf3duHFnn5UG8z4KtnnTSU1cKhf31eM1fd4RyXW2MsEeXlcm+eGC8UmpY5TiNEX9onHq0jh3w6s8rX0Gl+sWSg6jNHBITzxxBPi78gEl3Bs46jKT3nf69tuuw0vvPCCmHrIybViUxU2Nn0GGxsvJMKmxDCQSW2DjsjU49qFf334IopPO/DZZdeho3QVEToIX2IG//HkdWgk63t664WwqB34+eb/i7OtP0J7cyOKSlWQz07DfCPe+Naz+SypdABDvoPocr2M3pndmA6OIpoII5VNQkcxaRkpc6W5GlVWsraOJlTay6EnFePZX7zEkpgswpd0vlw2S8qcRCKRpG8qB5WKlFieI6ufEcUgyWRKFLxkiUxyeR46nRwWE1eYKcV1pSgvzRF1eWyf3ytbZL7O99F1uuT7+HHqFvAgxdiPki0+RGFOrdaMH7SuRx1ZaLbb7AHeDrxo01QiKrL8JqVaXPpScaHOrOj8md4J3CE8MDWA+yb7MCbPiMUWv/vd76KysnL2CAnHIo6K3JwZZ3Jv3bpVDKlwb3962+dw4oLzUWquJZvNK5TkYNY4iNxG9Ls78YOnPw+HqRSXLv0mFpdvILUKwRufxn8+9Y8osZTjjNbLUG5swC83fxfnFv8HOojcFiePFc++6Cw4kRRPRzAdHsKQvwtj/kPwhKcQS4aJJmlo1GoxbdSuK0axoQx2vZNifRURWQudSkextF4sh6RXF4jNZCvUefPXUSBgnjqLfC5DziND31RWkJ3vp3Ba3Jfjx+i+DH1uHmLKUIzLe3HnRKEO14fnodXIqVEoQte5A+DzKxR0DrrN5M/mMxj3e3D/3t3YMzqMcZ8PLXorLqlswSZnjVjA4Z2IPQeOrfkvKew/HZ7O5cVyUf/7MwsYT0Rwz3gPbp/shd3hELP3Wltb6f2+2zNI+LjhqGw5Fz8woTmZliYFsxmKUVvUBqeRe/xCn5Elu52fTeqolFqUWqqQzCRE/TXXePOyR3MWNpjwI5QIETkUgrxqIoWCNwPgHysprysyjgMzWyle/gup3G9w755f4pGDt2LPxPNwR8eJLErqIKrQ4OhAW8kqLK04DkurNmAh2e2WssVocLahnBTbZiSik80lWiKSCtPrBhF4rQXodgihZIQ6Hs6ap5CXE1npLbJ7UBCzVSpSZq0aRr2WlJq379GjyE7NZiDV1sJk1MCgn8uUK18rNxWxN6/uwqSjE7rCYbx0qA937XwZz3QfFOurNeusOLu0QaxdzuPr74bYDFZrJjMn1vgfL7f8XmhZRvE573vWQI6Bd3bhxCjnUiQcuzgqcrPoc8TIM7u4h28tW44yC9eJczzMhGY9ZCVjVcmRYhqwoHgJxaZkZ4ngDC4kYfDzQ3Emd0B0C9kcxXyqFLzJcbLzr+KVkafw4sADFDPfhWcO3Y0tQw/hwPR2+GIzMKqtaClZgeMWnCucwyktF2Nl9clE8kWk3CV8crLrIYSTQSItNSJx4TKEIN0fpOuizRKc7ys8FkEoRS0ZpU4gRrEsWXRqsXQC8Qxdp8+Rok6KNB0KlRw6vQoWixbOIgNKnEYUO4jsFt0s0VXQaFQie87P656ewOa+Lty351U8sq8TwUgUbUY7Pl3eiI3OKjFB5cMEV7Y1GKwiucadNYdanCSVcOziqMjNhGRl0tOPVk4kXV11BspNdeIxJjVPiGAFZ+vJVtWgtmBZ+UZ2vYgTcTJka7kclMHKFiFi+aNustthspVJ+DIj2D72N/zx1Rvwy5e+SUT4NfaPvwy1QouVtZtw8Yqv4qp138NZ7V8glT4BJcZqUslCdpjPK5qoRFOJxuPc4rp89ra45McLxxRKU+k59I8tLruOVCZN7ychyB0iy++PB+GNBUTzUywfZOInE4hRbM4JwVAyRvfxsXHqIOL0PG4J6ljiCMRimA4G0Dk+gptffBK/felZ7BoegG42sfXVhmU4s6QOpRQuvN8QQ33ZDMLUsXCL0fU3D5NVag1ixVWOTHjBB1ZwCccujirm5vrkh++7Bz37OzHuSeA/z3kQFdZ6+hFxnXiMFF1NKheGXmkidbWQbdSIOPnfHr8UHeVrcdKCz6DUVAtXdBT/tfmrGPb2oMbegmp7E7b0PUJKb6YfYJI6EBXZ6XosrzpZFMUYNCaKk9Xi/Kz8TEglEVUpCDtbP06XbFE5D8dzxHmeNHc1c/OnufspJLoK1wtNLGlKEcLsJdl2UKdEES09yuEF3/f6/eI48XiO3mcaUeqwtgzuEh0AOxV6+YI1pteMUufgCQXgDpI7iUfpe0lSqJFFxWyJ6OcqW1Gs0RUqzwrPet/Af2Au0OGqu96IX5Ca9x0r7FBqKxxE4OMOhDz4x/2bkaUO+8c3/gQXXnhh4UEJxxyOqrb88ccfx/49uyCjH2owlsSq2lNh0TkECVKkvBpSWE6q8Y+VyciKyzXd/NudDo+In3BdUTspeFrEzf6oC2Gy5Z7IpFBvs96CJRQzr6s/C0sqj0OVrQl2ius5+85W3KiyCDdgoEudygiN0kBNJ15HpeBEGRGeXk9Mr6RO4LW4lxxFYZolhxOFGJhvc2fA19miFjoNBT2fGhFORefhclo1xcG8FppalIDSZ6JLDTWdUiOSdQY1d2BJMa+7c6QHI94pjHqnMeabIdX2kXpHxONlWiPOLK3DRRVNOJFseBWRnDPb7zexuYc5EA/gb5EJjFhkKK2YgNEewACFQFsn/WI4zKHWz742hKrvC3tEDcDJp56KhQsXFs4j4ZjDUdlytm3TM276/ShQ57RjyN+JQNwjCCNi7llPwOTlxuDHllWeiApLPaLpIJF8WBDTqneIKrJkOi6eu7L2FJzYdD7W1J2OxeXr0eRchnJzHWxaJrddkFpPyq5XmaBlUiuY1BoiISn6nN0mIsqVdMlJLTU1DRGWm5YIy0NV4pIbKf9hTaVTQUXxs5piZV7lRS2aFmqDFhqDTjSVTouEPANPKoD+4DhenTqI54d24pWRAzg40Y8R9wTcYT/coUKLkCW3UAex0laKy6vbRPEIV4cdRzEu7/3Fde3vM60FMhYDfEVGeO061LRUYmWHA8ctAlobA4gZJnHvRB/c5CrmZrlxEq9Bb4U8x7XwSbHghoRjE0dsy3maJ2/g9+Sjj6Le6cDahjocnJRj04Ivo9GxmOJMP5FNh1gmLMhqUFlh1TpIIQsJtAHvPrgiY4KIVp0Tj/Xehp4pcgFQoKl4iSB1GZFZR8Rl0hbIyzt4vEUGmW5Sn8EiJborts5s/xPZKJLU0rm4iOFz4MqrwrCWGJLi8Ww6nhWcrxdUmseneUrq3CV1BnSdE3xRirnDZLl53DxGcbUv6oWXmpuUbjrohivggo+sd4IsML9LHnPm4hKrSg2rWotqssILzU6Ka52wcbkqv+kPGONOI3arMxjNRLG01I6l9kl6T73onhzDPTvDuGd7Dr9afLKYPqonR+JJxcWOJ78f2ocvf+t6XHHFFSgpKZk9m4RjCUdEbs6m8tj2j3/8Y7y8dRsWVlbhn08/Dd9+8CGc2vw1rK49HaksKTD940vOlrO6mjV2IimXoRbgJqt4cHo7dow/IYjD1ritdBVW15wuyMzKzORmS///jLcyoWcvc7I0snJqshRdppDKxzAe6MdUaASu0Di8EbL7ZEMTyShSZIk5UcbPVRPxePiMa7+1ah2MGiMMWgM1uqT4V6/SQUeWVU/X46kIBl0D6J3oxeD0ELwBL3UUha+O7Tx3DGp6/zwcpaEOyKnVUzxrFyWeSywOlGkMorLsw8aDWR/6zNSB0ntQuzI4rtGCItMMDrm68WBnH/62O4rvtqzBSY4qUa4aIlu+KzCDG3pexqozNuELX/iC2NFEwrGHIyI3F2784he/EAm1vt4+dFRU46YLr8S/PfIXVFqOx6rqs0l1axBK+kVii7PlnI02EFnNmiJxDn7ZrUMP457On2EmOIb2ipVYV3cWqfYyUniniKNZ5ZnUb6XUxB+y16S86jxGA93YP74dB8ZewdB0H4IRP3UrOWhIHfVMKiItz0TTk/1nF8CFHvz6Qjj549P5+BXEGLGIv2UUG/tIjSfhCXHGmI/nuvcM0pxlpsYdHINrvR3UIfAChUtJlduJ0Bw/m0mtWZk5li2MP7+3cef3Cz8e6cRUmRVLFy7Frlf3oc3cDL0ygq6Zg9gy2I1URoavVHbgZCI35wE42eYj53H17ieRLDLj6quvxte+9rXZs0k4lnBE5OY4jP/gvIe22+VGc0kVvrHpAhycGsf+CQ/q7MfjlKbPwhefFscXKra4sEIHs7pIEK3L9Qqe6b2bYtRn4DSV46z2z6O1ZCXsujJhvznx9lZRqEIjQ0YRx1iwF/vGt6F3slMMobEn5xJXI8XjVk0JTBqrUObXFmYQJONMeqGCS2THecyHL0XLi+SfOzKF3WPbMe4bIYIHkEwXxuPnwCuzcoabJ200Gawo1xlhp9cxsfVWacRSTKzQH4blfje4h9zGs+RcInoNKkvLUWoupVg6Cq1Zg6xKjr899BD+qWoR1tvKxNg6fyM88eT7vS9jR9iNMy7+jNhIgrcJlnBs4YjIzVVpl156qVgbWwctOsqbsKy2Ac3FDXigczNRshqfav8StGRr4xTrsXKz6nFpqCc6hbaS1Xi69y680P+gON9ZHVdgRdUmFOlKRZZ7Li5/DUTGvCyDBELodu3EeHAAHrL0wagfmVSOiGyDRVckknI2fTEsFNtzkq4wzj4HLrgpEJmHxgTJOdamc3M8PRkaRvfMbox4BtDv7hHKzVV0rOZ6IiyvcFJvsKCC1I0XI6ykS24cO2up0/i44lA8hOc9Y9ganEa6yAKZQo54MgmnvQg2qxXb6W/4nwvWYJGJvrPZsIGTa897x3HL8H6Yl7TiS1/+Ms466yzxmIRjB0dMbv5j7969G63OVqypW4mZ6Ag+t/JCPNu7jcjhQ0vxBjEzLJB0E0m4mism6r+f6f0z1tWeha0Dj4q4eHHVenxh1XdhJkJycu3Nas0dQyjlwUxsGN7UGKn1Dop3XdAqDKiwNaC+qAMOQzl1Cry6SgEFI0//2AoTOeeuM9U5kcbKzQk0Jm4w6cGEfxB7yAW8OvYiXEQCho4U30mxNi+SwMsVrbKViimX5WTB56ZXHgvgP+5oLIQdgWnspBAjmIhTZ5aDTq2hTlErauG/UrNIfC7+nuYQSqfwk/6d2K/JYv1JJ+KnP/3p7CMSjhUcEbm5pvyUU04RE/tPbDwZJzdvxGP778U/nHgtKXUKT/c8h0GPG/900m9EQUs8E0E0FRaztH730vdg0luF3V1QvAhntl+J9TWfEuR7M5KZOP3IvDg4sxXbRx6HOzCJRZXHo710NZzGCqHM4gcpCMwQNCYSU4wrrHjBkitFUQsXuRRsORlwkUHnQpsdo0/hqe770O/qIibk6Dg5DETsWqMVJzoKCyPwUNV8ASfMeFUZngfO9ees0odPTuHHeMoo3/fHsS48G3WhqHWBmEgi4djCEQeGnFTjfoGLRngoy6qxIJaQodhQjyprI5LZCF4aflCEtRo5bw/E1ONhJzki8aAgUUPRQiyrOPktic3TN3eMPo57dv8U3VO7sKLiVFy97vtYX3cmHMZyQWy27xyfc6KOp4kWaUvh1Fei2FiNIn2FGBPnGJ+Tc6z0SjqWdwLp9x7Afft/i+89/gXcseMXGPL0ioQZF6hUkfX+/5pW4T9bN+CKyjax1e58Ai/swHkBg1IpchAa+sxzxGbwmPefxg6iPxKAVaUVIQj/zSQcezhi5T7xhBPR3d2Nszs+g0uWfx4HxrYjQz+W5uJlRKAMtgxuxvahzbj2uBuFyh6Y3oZn++7BkLdLTBDZ2HQRTmm+WIyJH/7jYvs+FR5G58SLIhmmVenFuuYcU3PhSqFQRUttrj6c1Zi1ujDTSrTZ88XILfjj05ih802EBjARGIKPlIgLbfwxl5h0wplvPrrFVIRNxdVYQfabldqi5Nf55P2oeS22fSEPNrvHMBALQllRjMUnbMANN9wwe4SEYwVH/OvlMWxWTqVcQ6QrQlPpKoz5Rog8UTj0CyjmXiWq0naOPU1EmkE8FaWYu1/MCFtUsR6ra05Fja31DcQOJij+DfbDFRkV48vFpkrU2dvpuBY4DZViGI1LTwvlpmYxds4VaXEi8XR4AH2ul7Fz5FE813cHHtz3a/y185d4YO9/48nuO7Fj+DH0Tm0jF/Ay+mY6MRMap/eShlmlwcnFNbi0qgVnldZjlbVUrHryURGbbTIvauh/U5b+wwLnGtpMheE8Jrqtqlxs7i/h2MNR/YI5npXL1HRphM1QxWlnRBJRIrUKZeZmrK07XdSMH/LsFRMrNCpe/DCBDfWfEokwVuE5pHMpIrcXgYRb2MCOsjWotjXDpismMluF9VbQv1gyCBcp8RCd8+D0Vuwae5baU9g99iR2jz9Oiv8oOicfxd7JRzDgfZGUu4d6Ij90WRlsSuoQqDPiJBuPT3PRBi9XdGlVK84uqUfNOyxJ9GGBbRRbY7bFHwU4yWihDm+FrQQlBhMqamqwdu3a2UclHEs4YlvOVUvDh0bJln8Ol6/6OsWsWewafBTxnBzltg6htpxE++FTX0ClrVEsojBJ1phV819O/gMqLA2zZ8uLCrZg0otIOiBWN+GKNJ5BxnXjbLc5Y84W2xUZwXTokLh0h8fFmLQ/7oVFa4ZNb0WRwQ67wQYHtSKjTWw2aNVZxPa9nd2HsNu1G53uTnjJITiJ2BuclfiHmkUo0xqok3rdQbxbsMpyAooLP/iS54sx+Eyiao1CBE5cvZdz85/jFf809gc9uKKmjb6HwoSODwv8CTK5HJ5wDeN5hLHyM+fg61//euFBCccUjorc3V09OLP9c7h6zbdFGWc0GcCzvfcIm76x+TIxtv3S0IN031/EL761bIWo8T6n9e+EIjN4jDlMpOblltjGM6lZpbn01BUewYGpLdg/uQ1jgUFR511XVIsaezXKLWUoNjphM1qJSJwdLwxt8dg1x+CFqZ4yRCJJjEzNYO9IJ54YfRzuuAtVeiNOL63DVVXtMCp52uiR0Yczz8PRIAZjIbFM0TQpLrsCnnxRSta+2WAli1sk4vd3+xrcYWz3TWKbdwIbKVzg53+YZatpIjZvTfS93u1Y89nz8JlLL0F7e/vsoxKOJRx5Qu3EE8X2sJy9vmT5dagipeaM89b++4ioUbRVHI9KSyMpqxv37v0FOsdfpLi5gjqDK7CwbINQZVZkLnIJJT2iI+B6cpYOLlDZM/68mN/Na5yVWUqolaPEVAqjxlBY+4wsvlalFeui8eAWP1FciqozUtFsFoFgFB5/CIMzQ3hi8AEMUDzv0ChxeklhquXR2nBeWJDHgzk+9lHjNc+nU3GMxsNiw4BoOgk9hS48rHYC2f+FJoeoYnsnMLm5w9jqmcCO4DS+XLsIC8iFfNAEPxj2oiviwxiFVdPZBBpOOxGnn3cuFi1eDL3+9fkAEo4dHNF8bibOH//4RzHl06g2wqkvQZ2tSQTwrJYBUkeu+FrgXCoqxXhetDs6CW9kGqc0XSzmfHM5aIp+RFFSbb5kxeYMdtfUy9g1upmOH0UpqXNrSQc6ypehpWQhqu31ZL+dMGks4KWJedUVHtUupA7kyGR5zf+s2MbHFyDCBeKY8rnQ6z2I3e4dFLHncGpJLc4m1eby0aMFqzHPh+bZX1yCyjF8sVovNuJzknKb6X7e37svFsBYNESdQFIMAZbQce8E7m6T9GGG4yFMEtk4P8CJP3YE7xc4IcqrsfBrbPVP4ZW4D6GKIlRsWIX69auw8YzT0dzSIvYQk3Bs4ojJfcftdxC53aIwxEox7+KSxUSvHExqE7zRaQx6D8BpriVyG0QFGS85PBMZw/r6s8m2m8UPOJGJiCmh7NkDMY9Qd7bgPM97ScUanNx8DtrLlqHYVCHITG+XGhGZbDdf5vMysVZ4MpVDPJFBJJpGMJSExxfBlNdN8fkMhvy96PZ1YiY+IYa5WLF590u2z+8HuDPj2JpJzvt4caadt9BtNzvEgoOVFAKkyOry1j4D0QC8qQRsdAwnrd6q/pzfF8e8+VxeTBftDLrEKioc13P4oafX4E7l8FGGdwLbbHYWYxQ2jFKbIncxQR3GWDKCAWpd+TiGHQYoGquxeOMJOOvCC7Bx0ykoKy+HRvPOLkPCxxtHZMtF+emZZ2H3nt2kThasrlyPK5f+vZisweuSjQWGsHdmF6ZSAZzVchXs+jJsG3kUr4w9iQsXfQ0lxiqy5GlE6HEmN6/7/cTB29E98yrZ+wac0XoxFlesFha78BNmu12Y3MGzsXjGVy6XRYoscSQWQTAcQSgSIYIXVlVNZWNwxUYxFu7FSKgPLiK2loLwn3QcjxXWEhFnf5jgL7gz6MZDU/3YSrF0PdnsbzQuRx11ApxwezMibPX5s9BnHaNO4UnPMNxk93ku+OmltWLPL1Zxfi53EIcn7Pi12NpzZ8D7nXGo0EPqvCcRwGgqgkg8jjiFVewo5DoNqhsbcfWXvihWXHE6ncKCS0Ur8wNHpNxMMN4XjDchqDFWY3npElJeF0p5bXD6YRhImegoPNFzL2oc7TDrikjNJzEVGqC4uVqsJc5DX7yYQijuxe7R57F96HEsqdyA01svFXZebNqXL6i0TKmAXK1Anu4KRZPw+iOYnPFhcGIMB8b3oZOs/J6Zl7B75nnsnHkGr0w/jR7/LkxEhxCiDsSkUuLEkmqcQbE2E+Pdqt77BX41VnTehI836nt0ZlDsS8b2nOvX3wrc5abIIfGOIs0Gu5iwMpOMiiw2b9frSsQEkTkWPzweF4ROxdAV8uKuyV78cfQgxp0GLDv7VKzYeCJ6x0cx7J6GOxRAgDrEiclJsU83r3bKe781EtmlGHt+4IjIzWK/efNmjI2NwSY3Y4GtltQijSpTCSmKgmxjHhwNaygm3kXEM2qLWGsxHjrEy5Oj2tpMx5ONJqs+7j+Ex7vuQEvxEpGca3QsgoasvFxNyqQnG66WIZZMYsYVxtRkECPTI9g7vh2vjD9F7uAF+JOj9JpxOI0G1Ngr0VDcjHpnK6otNfQaWZGwKyN7eU39EtToTGJo6aMAW2kmYRERulZvwTbfBIwKtSA7r4ByONia8/FiSWi6ze+Zy0Z5+K5WZ0a9ziJifAYXvGSyOQxGAthP7mBPwIXusI9cUwx7Qm6MUKw/Ew5imP5W+w8cQP/gAPLJNHUsBtQbrCJHkCSX4PJ60T80KNYq37hxozi3hGMbR0zurq4usXUv+TvUmSuJ4FX0QFZMRuDGFV52rRUHZ/aQeoaEgnIsPRUcwqLS9eIHPBXkce9dmAz04+yWz6KN4nazgQhIv1slCVqMlMRP8bPbHcSkaxJdE9sxE9gPeWoApUofGo0aLCAyN5BzaKDn1jsXo87RgVpHK4r1pZgMjSKW8KDVbMclFGt/ECuLvhewfeatgSp0xkJmnRrH0TyV9HDwd8PHigUe6O3y981DfdwZsAPgaabcURQ+TeET8WQPHmvnz2gnN1BGr8Hj97zZgDyThdfngzocxyp9kVi3bQM1Xs9tkcWBVqMdZSqdOKZ3ZkJsDVVWVgatttCBSDg2cUTkZkSjURwgJfBOulBhdOLEipWioIRjQS5hVJLmGFQaUpUUerwHMRoaRjKTxJC7C2tqz4CS7OYhVyd6p3ei1dGGE+tOgcNsg0qXJ9XOIJGIYmbSj+lJD9yeSYSjvcglXyGnMIMOixFrSluxqmo9Gso2oMS5EkWWZliNlRQCFFNzIEeKtndqB+Rpj1hdlNct+yiJPQcmLitxCSnmXlJWHitvIXK9ORMujmMXRJ0kE32O7IU56IXOkwnOqq+m4zhBx9M2WY0bjVaxdHGHqQiNdJsVv4gIzwnFc0obBLkXmR30mEU8zpvz83BbiuLwg75p9I0Mi6o0m80mxd/HMI7oL8c/vFWrVonePZgKYzI8CS3Zbl4iV0/8UeSSkOeTUJBV31C+FFU6G/yhMfRN74E3TPFiZALRVBD+mBsJujyr8UzYSCU0+jSpdgrJeBgjveNwj88gHppELrUfTuzBVRVW/H1tE06oWg1r6akI209FRNeMrNxEr84b7FOXMtt8cT/CyTDK1RqsIWJ/nMBdTLXeJIiVzeWxP+wtPPAW4KmXVo0WDp0edp0OFrpuUqtfa2aN+vXHtbzuG2+u8Honxrb/tOIafLVuCS4pbxJJvLdaXILj/1X2MizWWPDKjh3o6+tDOMwjGe8O03dfIH4X73f795dnX+A1TOOuiw4/5gLcNT770Juw/QeHH/dW5/rw8FG8lyMmN/fqPAYaJxJPRV1IU2xrI/XQ0RmZ2HIiOJNcgyxOrV6DNSULxUosHAdvHXkIfa5dpO451JKlryblN5pIqVRpIjPFiKMzCHn9QDqKYtUoNlj8OKfYRnbTiKh5GYKmZUiqSyDj18iStc3GRePbslyWM37wRKaRJtfgpOewin3cwN/hMnMx9ES0Z90js/e+PZiwrNA8VVOQmjotbrzsk57u47FwPufRoM1YhHPLGsWw3o6Xd4i91yUcuzhiz8V2jZXb4XQiko5hMDiMbDZBap0hgqWJ4GnI8im6TJF6mLCmuBUnli8X8ePe0S3oJxVnlW8voh+TMguVOoccPT/iD8Dv8gBE1nL1DFp0YVRr81CrzYialiChqUSO54fT6yjy9Hq5OHUk1JjcvA1R0oNoeBzTvl6o83HYNDx18+O5cgpnynlYzp9KIkxhBA9hvROYukzgOZs+1/i+o6N1AS4eNiMXIYbR6D1xPYOEYxdHFVBxzXFzc7Mgd6e7B4l0hIhdIDR5aUFWvq2R5bHAUkZx+RJUm0oQIcvME0hSSR/a7DUUf/OeYWkkKI6PBEJIxyP0nBgq1W6UqOJQqwxE6nJqFcjJNIXOgxQbmQgyST9ScTfisSnEotTCEwgF+ykM6IeZzskJqPfjh/9BgONsu1orkmw9EZ8Yxvoowck4rrbjzqKyogIm01EsVFHaio2bNh51s354ZfXzDkdF7kWLFqGjowOxTBKvuLrFzC1WaxmpNsgiZ3jNcmGVU7CTZW+zVmJtSRvZSA2mwiNIEDErjXYoSLnlSCMWDBM5w1CSIlsVIdiVYbKieaSVNrLhZcjzUv90/jyFAOlUgGJzDxJE7Fh0utAi42TrB5AKHKQOZBIWEuwisq4fV/BwF8e65RoDdvipY8oWdmX5qMA1AJwH4MIYh8MBHcX4R4zjvoM7n3oWzx5lu2bF7PkkvGccFbnr6upE0QM0Cuz1DiNAZGVrLhe2nOw5kZyrxfg+VnIbxYcbyzooViwUSXC5qkqeI4tP5KZjE7EoETZOqp1EmdoPlSyLrMKAjNJKl/ScXIKIHUYi4UWYYupQZApxIniWiC7LhIDENPLhHqhDB8lWBmFgJTps4cSPGzjzXUrkrtKYsCfoErXeHxTY8idyGUSpA4lQ4yx9kBrf5sc4IGDnwLfZ6fD2vbyrzNz67Mci1n6XPhd/ttn27TWzD3xCcFTkZlRWVmLpsmVI8zCKtx/euE/Ew8p8FnqKyzPZJOK8pQ+pON9usZSiXG8TL+yOezFJNloBsuX0nEwqQUSNQwXuCKKkbDlSbTsyCjPF4PxYCMEwKTQROkfqzfZfSZ2HMeuBPtoDVfgAFLFxcS7+sRqI2LzY4ccVHCnzsCGvaZbP8ha7WRHvfhBgMj/nGcPdE33440Q3bh7bi58M7cKfJ3vFjDauhtsZnMFfZvrInstw2x9uwZYtW95TxlzCxwtHTW6Ouz/96U+TBgPPz/RgIuISKlxIeGVIORVIZRLwJ4MUm0dIjfNY42xEqc6KsfAMds10i2NJkkle2M4TYYncBgXdVmiRk2vo3HlkiMzhmAeZdFQkznQZD5yZCVTnR1EOFyz5EDScYBPb7xYsr4Fi2Y/zmuIc2/L7tJCjWWZxim18xuOR2UffP3Bxy2QigjtHu7ErMY58mR/V7UlULEhjSu/FzRO78KPhl7FLNorVK4247tMLhHt64IH7xcYTEo5NHDW5ebIBTzqoqanGUCKAodAEwgn/LGGzIE0ismcFuUfISoeJ4B22ClQZiuCj+3a7e+GP+pDLUqwu7HyB3Cp6Zzk574AhJ1ufRDIZRpqIrcoEYM374IQfRbIQrLIoDEiQ2megJpvLs6a4wIOLO3jnzI8zRPab/nHl2WKTU2Sqh2PB992ej8VDeMEzjsGoH40NKSxpz2L1ImDjKiVO2qDA4nUZdKzNYOXxNpyyaTHOPG0VlreVYXy4D52dnYhE3v8OR8IHj6Mmt1KpFENinzrnHMh0GhwIjGIgNEYkjQt7LBP2XEYETWGYlPpgYEyMy9aZeYcLFfr8Y9g92YVEihSZjufCF7mMVySVCdVme53NxJBKhqDMRUmhg0TqMGxyXgiBp0G+PgzEm/HpVCpRyMFZaB4m4gUVPs6gr0ZUmpVrjNDKFOgL+9Eb8YkZYe8HppNRbPVOYhv9XVqr1DhthRqrWuRoq8ljebMMZ6zW4IrTLPjCmXacdWINWpevQNXik3DqmhpYtWkMDQ2hp6dn9mzHFt5t4cgbjrvoLhS2pSgg0P8YbvnWF3HyxjaUzR1T1oaTL7oWN929HdMf1DqWmSHcdUXZ6+9LvO5luKXn3b/gUZObUV5eLvYOq6qqwiuhGbziHUY+FRQqzIQ1k5ralBqxEcELkwfRH5pEmd6CerMTvkQIf+naDFeMd81kUudEh8DI04+dNwrIZZLUIjDk/LAr06TKhfHdOfAHZ5Lwh+FMLxd2lGr1dF3xvpHkgwJ/Di4x5c9wkr1KrMLyxMwwxhNhsWfXO498vzX4ORy7B9JJPOsaxTPuAUAfwRdOt6CjQY0ShwwmUw4aTRoqZZIaOR9VAkq1DEpTKZQVJ+Ck5WWocaoFuZ955pnCiT9JCHTjlqvqYVtwFr74k1vw3Obu10k/3Y3n7r0Z37x0Hcp09bjgl3vwvi5nycS+ah0uu/2wbqb0Uty5/U5c3fLu6/3fF3IrKK62WCzYsGED9EV29IbcOBichJIsNFepMcGr9Gasc9SK2Ui39W3Bk2N7EUhGBBn3e4axfWQ/3ERw3u5nLnvLplXsp03noK4BDkUa6tfmeL8Ovi1206T3IW7THZWkhDzvO0yO4eMMrhPnyjP+DLwR33H2SsQzafy4b6eYA84TQt4ruFPgLYT+o+8V3DXaBb3Vj6s25nHqCjlsZuoIX/urC19ELU1XSRGSk8hH+iFTauGwG2DQqxAM+AsThD5BiHuew3fOaMMXbx2aveedMIT7v7oMZ/5gOwWH7wPeitiNV+M+IvaltbO33yXeF3Iz2J5ffvnlWLh4EXrjQTw0dQgZUlx5NixKRFVEUp6ldFZ5K7U2InAOQxRjRkjNE9k0/ta1Fd3eIYq2U/QY/dyyOSI2/fDoeewA1PQD1CrefiVRDb1+YVschkzMf5blZYgRUT7OYNUW75veOIcY1VoT1lvL0WKw4c7xbvyICHr3RK/YKICV+K3AFOUlnDqpU717shc39O3Av/e8DDdmcMriMD5/fAzHLQhDn5mCnFe+yb25w+AzsMNhos8mJFMz0Mjj9FAWsVhM3PeJQGY3br7i5NctfGkrLv2nG/H7+5/Fs889i0fv+hWuv6QVpbMPz2H7967BTS8fJb3fithrrsGjT/8e579HYjPeN3KzrWxqasJpp52GqvYW7A7M4AXvGOLpGKl3oUxURwSt15twaukCnF7agoWWUhjJrvMY5IBvCjs9PeiPjolhtQT//mbJrUQGGhnvzvnWxGZwEk17GMF5/TKOYd/+GR8P8Gdi18HVanydq9V4zvZycwmadFb6DHIMRwJk1Yfwh5ED+NVgJ34ztBf/M7wPvyO383u6j6/fMnqAOoMePDDZj93hERSVTeKkjhBOW5TE8ro0is3koChUksU9JE0ulicg4Se1Ds62AGT0vcsUWuTTZDKjI6IjeIevfH7igZtw0+N8pRRn/vBZTI114c4fX4+rz9uIjSdtxJmXXIMb7+pC9/7f49I3MHwPvvOn547cnr8lsb+NZx/+Fc48AmIz3jdyM7je/KSTTsLGk09G2qDFvaQ4o/GQ2OVzjuBs0+v1RpxdtgAXVy3EScX1aDEXizHpvvA4dgX6MEI/vmCK1xErDKkpSU24hPWdwMRgghjUvOZ5Yb1wJsrHeSiMwdzhSR88GYTfN3eSTHZ2Hmc467CpqFqoeSydxr6AGw9MHMJvh/bhKUUU3TV2DLWUYaipFK8aga0U1nQHPSKGPndJFqe0p9BUloFJX9i2WHSWqZAguCw2Q5fuNzRB+Mgo8pNPA7FRZNJx+psqjqxS7d7LXk9Avdf2pqTWR4Hz/7ANj/7LRpS+TfmrteNq3PKn69+o4L/Zhu7Zq+8Jb0nsG7Dt8Ruw0TF7+wjwvpKbwUUt69atQ8fK5djunxZllTwhgeNfJipP8lDkIihS5LDRWYnrm9bhy/UrsdJeAYtKhcH4JJ71HcAQWcEU2XpWEwU9W/m/kJvBJDHQOUwajcic84KFWrlSxPAfZwjFVqlFpl8QfPZ+vuRptOvIpl9Z0YZra5fgFGeNmLV17gXn46e/+gX+cMftuJXap+l2WWkphT8yckMKFBmz9B3koVHnoX5zHQ+PIHBNQYbsdjoy26LIB3uQG7gduc7/g0x0Csl0DiqNXize8InCkhvxnS/Uzd54e2g3XYBr38Dubgy9zfTTt8VbELv0Uzdi99Pfxlrr7B1HiPed3Aye6/33f//3KC4pxp9IvXcQyQ9PDMmIbGLYi9TcrshgY5ED329bgx+0bcBJRPj+mAu/Hn4ZY1FezzxFb5KHvN4dQTlBZSKiFJHa8AonvCGA721i1Y8TmMg8hZMVnBNsbwUuyllqdoqhM57UYTAYxP2ZTAaPPfooAmOTaDIXod7ogCukELkLpSIPBbV3hUwc+fg0cpEhuAMZxJIyWK1WUWb8ScLSKzZi6ez1d0Yd6o6bvXokeCtiX/57PHfX9Vj6Pqwo/YGQm5fE5Qkl//GjH8FQ4sRDriE84x4TlVKvg69ziQqgIyWyUYzcYbbj4oomXFndimA2il/2b8cL7kFEMgn68b/74I+VkGPvUrL/5dR4/bFjAZxQ4yIcXnyBF2FQKV5XcQZ/BxxucBKOic0LGXKBya5du+D3eGEgj1PNHZrchhe6DUik2ebPPvldgf4mZN3z5Ja6ptTwRBWiSKmtrW328feAo5kVVnmUknWU2NjROnvtf0Mp6hbOXhUYwhRFNu8K8bew4i034P7fXo3W92mp+A+E3AweGjuZYu+LPnsxksVWPOUewRbf20/+598gk7DZZMNpJTX4bFUTWdQ8XnL144mpXvRH/YUD3yWY4KxwbM2Z6McKOLTgxKBJpYGFlLyw8ooGRlJ0JZHdRXGwxW4Xys0jFILcr76KZDROcXkSiUwasqwafp8drwzqMR2koOZdCvcc+PiXB9SYCijExhP79++ffeQ94Ghmhf30zP8nG/1hwmY60rXj9iDxLhPmv7r0TcRm9PwKv3rg3Qy/vTt8YOTm5BqryyWXXILjTt4It1GN+ycPoSvsE8v6vh143Ju3j72ssgWfLmuEXpbD3sAEnvOMitprXmA/+x6rzt6TeH0MwB0TW3MmtYVckJWamcidow/SGfVi4fKloiqQwSuX8jh0JpWCjot2KPzx0H0mWNE16MSOQxbsG9NiMqCkxwrEfSfEUjIcmFBjcMIMWdqEmZExPPHEE7OPSni/MD39JmILTOOub3wHdw3P3jxKfGDkZnDms7q6WhB8w2mnoCsdxv+M7MNILCQKLd4JTPJNzhpcW78Ea4vKsDs4g18NdYrCDlcyLqYvzpW6zGcw0VnN+dtyUXjyasKPsy+8QCySweBkYTKZFMOJvKIpb5PEWxdxYZEhW4pnXq3CLc+W4rmDZkz41PBGlPCT3Q7G5Qgn5IgmCy1E1310f++UBre+aIc1XY7F1gqY6YV5+qeEDwZrv/J73PgPh/mU6btw/ffuIoN/9PhAyT0HHv++5NJLcdHnr8AWzzh+PbRXFGW8MQZ/a3DVFu+d/X+b1+KSihaxKP//jOzH854JMff4kwD+lrhTezg0iZXr14p8Bie6GGpS9PKKCrGabIoczRKLE5dUtaA/FsSr/mkYZTpUpBdgpKsDP7qnCf9yVy2+89dS/OfjRfjdFjPu2WXEX6jd/JwF3/6rAzc9WAGNvwG12mIKixRHVCEn4d1h7b88i8d+cTWu//4tuOZwft9+Gb55+9HT+0Mht0qlQkNDA847/3xc90/fxKg6h9tGD+JJImrif/nxiGEiip25uo23Arq8shWnOqvJauex2TWGl7zjYsud/+08xyq4RnyzZwzPRGdgaK7D9d/8ptjHa27JYSb5pk2boDcZ0BsNiLXQF5qKcF3tIpxX2oBkJoMtrinsdPmRTuhhS5eiPLUARaF2yKY6EBpqR5CaxtNO9zejVFaOSDqPF+m73emegJfCoKNakUXCW2Lt97fhsR9upOCJ4DgTN/z2mjfkGe6/4ptHbc8/FHIzOLPLCn7hRRfh/MsvQ6y8CH9zDeHBqX6xQP//tkgB23Se6dVhdmAxqdMCg40IbxSb5bG68F5awTTZ09njj3Xw9+Gh8OO+yUP4y0QvtrnH0Tsxiscefxw/+9nPcOONN+LWW2/F7t27sWDBAhSXlcKVS6E/4hfP5ZVVj7dV4CR7BdZbS9FhLOwTHknxzi9J9HkSODCdwp6JNHZPpNA1k4I7koVOrkKzzopytV6swqK3mNHS0jL7riS8Xzhr09oCsWdh/dR3cPPlb6A3LvvHW47Knn9o5GbwEBmPmX7hqqtwxgXnIVNbhoeCE3h8Zhg9YR/CmdS7IievrsJj2CtsJWI3TV7Uj3/QbEs59jzWwQnH0ViYvpch4XB4r+6xgBddBw7i5ht/il/ceBN++pMb8fOf/xx33HEHXnnlFSxeugTGEof4Hnf6Z8Sc8BIKaTY5qnFZRTPOpdCGCe6kzlBDvkdB3xOvLqejTlNHPwMVfW16mQIVanJIJodY/olHG7jjOPXUUwtvTMIHiFKc/8Ob31jS+vgXce3vjpzeHyq5GZxk47HTa665Bl/5+tdgbqrDb6Z7cBdPjqC4ktX3vczB5kw4W/Y6vUXsic02/lgHO5lnPKP4Yd8OjBPJeVXSYvpsvNfZIgpN2i0OlFCHFhifxEP33S++y1Vr1mDp8mUYzSVx30QfuiJesUYa5zV0ciXq6LnnOGvwleqF+E7jSny/aQ21tbiB2r83r8MPmtfi+rqlOIs6A/4OH5kagFuRFwVJ55133uw7k/CBovJ83PSLS99gzx/78rW4pX/2xnvEh07uOXA2l+vQ//PHP8Y/XPOP2CdL4N/7XsF/D+3FQOR9nR17zGEkHsbL/ilBsiXkTq5rXI5fLz4Fv1+yCT9uW4+ftZ+AW5aehu+1rsMqetzv9+O2225Dc3sbzj7vXAzHQvjn/S/g/pkBjCej7zpU4RGMA2Evru96SYxonP+ZCwSxeTxdwoeD0gtvwE1vsOeP4YuX34Q9s7feCz4ycjN4ozm26Rd/9rP44U03Yv25Z2G/IoWb+l/Fz/p3iY3n2ap/0tBALuTKqjb8dOGJuL5huRgSbKAwhNdg5909ufHiFy1GG04mpW03F6HvYBdsdjsuu/IKfOm6a5HQqoSC39C7HTeP7MWe8NuXTkXoO95J3zWPQvzXwC5MZRK48uqr8JnPfEYkQtltSfiwUIdLv3/TG+35y9/ENf/13un9kZKbwXF4bW0tNp68EZde/jl86srLUHrcSrycCYn9pe8a68Zz7lGhJGwx50vC7J3AO5GsspZio7NaJA95bXOeKcbhijsZF8sgi3p5+jI4/3B6cS0yoYhQ2I5FC3HhZy/GdV//OsoWtaEnF8cr/mlMJCNCmV8OTuOhmUHcOdGD340cENNH2S3x3PEd9J0b2hfg2uu+KoYuechtrn5dwoeI2ktxw0/faM+3f+Ma/Pur722++EdO7jnwcBnPJrvqqqvwhS99CStOOxnR5mq8pIjhAc8wHpkexIueMbGp/FQiKhbwn69E55EBTmZxHfnhmsnJQk6U8Vx5fyoh1hn3Etn1FFNzvTmD3RBnt6/9yldE2GMlNZdzJyBXiYIXLgAaJtu/xTeFP01045bJHrxqVSDb0YClm07CFVdeiW984xtYvHix2AtOwkeDukvInl84e0NgO77zFbLn74HfHxtyz4Fr0tdv2IAbb7pJtFPO/zSCZXbcH53C/xnehVvGDuJp14goY+XEUyidEj94VqWP+9TOowWrd6XOKNaFS+d5L3SF2GDgv4f3IWfQ/T/7afPadkxQs0KNEpVOHHuivQL/ULMQnyqth01rgNFixjeuvx6//e1vcRN93xdddJHoaCUr/lGD7PmP78T5s7cEXv6OsOfvlt8fO3LPYa50lTPBt995B26743ZccOklmDSrcCupzfX7n8ffdz6Nn1GM+PDUAA6EPPCl4vOe4Ay5UHSZICuvc+6lz33mp84u7P4yCy5yWb16tSD4Nv8kvnZgM67a+wxuHjsgqtesag0qDWZh5Tmunqt4k/AxAtnzG//0Bnpj+7++++WcZGT1PvZs4LcYj8cxMTEB18wMQqEQhoeGsX/PHox29SDjDQLpNO8kJoZ9eCN6Xuifd9Bke8sKx/O8Pw5gPeR3wu+JOzDOIvBfgNc5ZZsdJMIG0gkxJBinz8SLPtrUWpFM47XYPUTk512jsNJnlMmJ4FoVWtatwhe/+EWxQcThVpq/s1dffRXbt21Dd1c3An4fxrp6scrgKMTfYRfs1ZX4wx/+8IaOQcL8wDFB7jeDt5blqYj9/f0YHhxEOBBEPEGECIfg9XgRp9uZaAz5RApIpYn4Ge4heJaFIJf4wGw7PxTrSa/GL0ivP/dqvAyzgjohvpKn6/wwOw4uwonlMohk0iKnkKTPyRsr8FLNXF3GU0F5TRsf7zvudKKmpgaNTQuweMkSLF269C2TX0zwqamp1/b++sXPf47Q6CQSyQTUxUX4/Oc/j0svvVRs/CdhfuGYJPdbgT8Gj/fyj3hsbAwzrPDBIGKRCJKxOHUIOcjEGub8cZlUxCpm2QeNOWKLr/n1rzpPtjnHr/8eOhlWeh5d4FJeJjbv9MIlve92HJo7RY6r95DjYdLzzLLrrrtOdBQcZ0uYX5g35JYgQcIb8bFNqEmQIOHoIJFbgoR5ConcEiTMU0jkliBhnkIitwQJ8xQSuSVImKeQyC1BwjyFRG4JEuYpJHJLkDAvAfz/e6jyLuuoE+QAAAAASUVORK5CYII=;" vertex="1" parent="1">
          <mxGeometry x="745.4" y="422" width="161.19" height="104.41" as="geometry" />
        </mxCell>
      </root>
    </mxGraphModel>
  </diagram>
</mxfile>
